<?xml version="1.0" encoding="UTF-8" standalone="no"?>
<svg width="17px" height="17px" viewBox="0 0 17 17" version="1.1" xmlns="http://www.w3.org/2000/svg" xmlns:xlink="http://www.w3.org/1999/xlink">
    <!-- Generator: Sketch 39.1 (31720) - http://www.bohemiancoding.com/sketch -->
    <title>noun_442461_cc-2 copy 7</title>
    <desc>Created with Sketch.</desc>
    <defs></defs>
    <g id="Page-1" stroke="none" stroke-width="1" fill="none" fill-rule="evenodd">
        <g id="websettlements_openobject_new_open" transform="translate(-765.000000, -2712.000000)" fill="#BABABA">
            <g id="noun_442461_cc-2-copy-7" transform="translate(765.000000, 2712.000000)">
                <g id="Group">
                    <path d="M14.8600109,0.0960997612 L1.65111232,0.0960997612 C0.794087904,0.0960997612 0.0971242544,0.785711647 0.0971242544,1.63369594 L0.0971242544,14.7032635 C0.0971242544,15.5512477 0.794087904,16.2408596 1.65111232,16.2408596 L14.8600109,16.2408596 C15.7166468,16.2408596 16.413999,15.5512477 16.413999,14.7032635 L16.413999,1.63369594 C16.413999,0.785711647 15.7166468,0.0960997612 14.8600109,0.0960997612 L14.8600109,0.0960997612 Z M15.517295,10.6930927 L7.8221067,7.17979728 L10.4982403,0.955425421 L15.517295,0.955425421 L15.517295,10.6930927 Z M9.46688793,0.976893019 L3.13857645,15.3234072 L0.948716167,15.3234072 L1.02957401,0.976893019 L9.46688793,0.976893019 Z M4.17704244,15.3594212 L7.4234491,7.97532997 L15.5106557,11.5517966 L15.5106557,15.3594212 L4.17704244,15.3594212 Z" id="Shape"></path>
                </g>
            </g>
        </g>
    </g>
</svg>