<svg width="17" height="10" viewBox="0 0 17 10" fill="none" xmlns="http://www.w3.org/2000/svg">
<path fill-rule="evenodd" clip-rule="evenodd" d="M8.33333 0C5.14899 0 2.26126 1.7536 0.130408 4.60192C-0.0434694 4.83528 -0.0434694 5.16129 0.130408 5.39465C2.26126 8.2464 5.14899 10 8.33333 10C11.5177 10 14.4054 8.2464 16.5363 5.39808C16.7101 5.16472 16.7101 4.83871 16.5363 4.60535C14.4054 1.7536 11.5177 0 8.33333 0ZM8.56222 8.52089C6.44841 8.65473 4.70282 6.90112 4.83578 4.77003C4.94488 3.013 6.35977 1.58884 8.10536 1.47902C10.2192 1.34518 11.9648 3.09879 11.8318 5.22988C11.7193 6.98348 10.3044 8.40764 8.56222 8.52089ZM6.45128 4.87643C6.37628 6.02262 7.31726 6.96634 8.45599 6.89428C9.39356 6.83594 10.1573 6.07067 10.2186 5.12008C10.2936 3.97389 9.35265 3.03017 8.21392 3.10224C7.27294 3.16401 6.50924 3.92928 6.45128 4.87643Z" fill="#979797"/>
</svg>
