<?xml version="1.0" encoding="utf-8"?>
<!-- Generator: Adobe Illustrator 15.0.0, SVG Export Plug-In . SVG Version: 6.00 Build 0)  -->
<!DOCTYPE svg PUBLIC "-//W3C//DTD SVG 1.1//EN" "http://www.w3.org/Graphics/SVG/1.1/DTD/svg11.dtd">
<svg version="1.1" id="Слой_1" xmlns="http://www.w3.org/2000/svg" xmlns:xlink="http://www.w3.org/1999/xlink" x="0px" y="0px"
	 width="21px" height="34.333px" viewBox="0 0 21 34.333" enable-background="new 0 0 21 34.333" xml:space="preserve">
<path d="M19.417,1.125h-5.625c0,0-1.7-0.063-3.158,0.979c-0.756,0.54-2.076,1.9-2.451,3.025S7.709,6.974,7.709,7.474
	s0,4.922,0,4.922H3.48v4.938h4.25l0.063,15.875h6.25l-0.031-15.875h4.813l0.594-4.938h-5.363l0.051-4.438
	c0,0-0.038-0.782,0.354-1.292c0.208-0.271,0.708-0.5,1.271-0.489c0.499,0.01,3.688-0.063,3.688-0.063V1.125z"/>
</svg>
