<?xml version="1.0" encoding="UTF-8" standalone="no"?>
<svg width="24px" height="24px" viewBox="0 0 24 24" version="1.1" xmlns="http://www.w3.org/2000/svg" xmlns:xlink="http://www.w3.org/1999/xlink">
    <!-- Generator: Sketch 3.8.3 (29802) - http://www.bohemiancoding.com/sketch -->
    <title>noun_77231_cc</title>
    <desc>Created with Sketch.</desc>
    <defs></defs>
    <g id="Page-1" stroke="none" stroke-width="1" fill="none" fill-rule="evenodd">
        <g id="web/open/objec/ver2/city" transform="translate(-517.000000, -681.000000)" fill="#000000">
            <g id="noun_77231_cc" transform="translate(529.000000, 693.000000) scale(-1, 1) translate(-529.000000, -693.000000) translate(517.000000, 681.000000)">
                <g id="Group">
                    <path d="M23.1627907,16.8837209 L18.2790698,16.8837209 L18.2790698,12 C18.2790698,11.6093023 17.972093,11.3023256 17.5813953,11.3023256 L12.6976744,11.3023256 L12.6976744,6.41860465 C12.6976744,6.02790698 12.3906977,5.72093023 12,5.72093023 L7.11627907,5.72093023 L7.11627907,0.837209302 C7.11627907,0.446511628 6.80930233,0.139534884 6.41860465,0.139534884 L0.837209302,0.139534884 C0.446511628,0.139534884 0.139534884,0.446511628 0.139534884,0.837209302 L0.139534884,9.20930233 C0.139534884,9.40465116 0.223255814,9.57209302 0.334883721,9.71162791 L14.2883721,23.6651163 C14.427907,23.8046512 14.5953488,23.8604651 14.7906977,23.8604651 L23.1627907,23.8604651 C23.5534884,23.8604651 23.8604651,23.5534884 23.8604651,23.1627907 L23.8604651,17.5813953 C23.8604651,17.1906977 23.5534884,16.8837209 23.1627907,16.8837209 L23.1627907,16.8837209 Z M14.8237915,22.7166138 L1.06762695,9.04418945 L1.06762695,1.11315918 L6.00134277,1.03967285 L6.00134277,6.11993408 C6.00134277,6.51063176 6.43492488,6.8258667 6.82562256,6.8258667 L11.5584717,6.8258667 L11.5584717,11.6383057 C11.5584717,12.0290033 12.0211676,12.4434204 12.4118652,12.4434204 L17.1610718,12.4434204 L17.1610718,17.319519 C17.1610718,17.7102167 17.5750006,18.0515747 17.9656982,18.0515747 L22.6623535,18.0515747 L22.7467041,22.7166138 L14.8237915,22.7166138 Z" id="Shape"></path>
                </g>
            </g>
        </g>
    </g>
</svg>
