<?xml version="1.0" encoding="UTF-8" standalone="no"?>
<svg width="13px" height="12px" viewBox="0 0 13 12" version="1.1" xmlns="http://www.w3.org/2000/svg" xmlns:xlink="http://www.w3.org/1999/xlink">
    <!-- Generator: Sketch 3.6.1 (26313) - http://www.bohemiancoding.com/sketch -->
    <title>Group</title>
    <desc>Created with Sketch.</desc>
    <defs></defs>
    <g id="Page-1" stroke="none" stroke-width="1" fill="none" fill-rule="evenodd">
        <g id="village/open/object-" transform="translate(-1042.000000, -2152.000000)" fill="#000000">
            <g id="Group-6" transform="translate(1020.000000, 2139.000000)">
                <g id="noun_83832_cc" transform="translate(22.000000, 13.000000)">
                    <g id="Group">
                        <path d="M0,1.09173214 L0,3.15514286 L1.09648627,3.15514286 L1.09648627,1.09173214 L3.16951046,1.09173214 L3.16951046,0 L1.09648627,0 C0.492062745,0 0,0.489857143 0,1.09173214 L0,1.09173214 Z" id="Shape"></path>
                        <path d="M11.2491719,0 L9.17647059,0 L9.17647059,1.09173214 L11.2491719,1.09173214 L11.2491719,3.15514286 L12.3456582,3.15514286 L12.3456582,1.09173214 C12.3456582,0.489857143 11.8535954,0 11.2491719,0 L11.2491719,0 Z" id="Shape"></path>
                        <path d="M1.09648627,8.25 L0,8.25 L0,10.31325 C0,10.9154464 0.492062745,11.4053036 1.09648627,11.4053036 L3.16951046,11.4053036 L3.16951046,10.31325 L1.09648627,10.31325 L1.09648627,8.25 L1.09648627,8.25 Z" id="Shape"></path>
                        <path d="M11.2491719,10.31325 L9.17647059,10.31325 L9.17647059,11.4053036 L11.2491719,11.4053036 C11.8535954,11.4053036 12.3456582,10.9154464 12.3456582,10.31325 L12.3456582,8.25 L11.2491719,8.25 L11.2491719,10.31325 L11.2491719,10.31325 Z" id="Shape"></path>
                    </g>
                </g>
            </g>
        </g>
    </g>
</svg>