<svg width="20" height="20" viewBox="0 0 20 20" fill="none" xmlns="http://www.w3.org/2000/svg">
<g clip-path="url(#clip0)">
<path d="M18.3388 2.87829H14.1776V2.19984C14.1776 0.986842 13.1908 0 11.9778 0H8.0222C6.8092 0 5.82236 0.986842 5.82236 2.19984V2.87829H1.66118C1.35279 2.87829 1.10608 3.125 1.10608 3.43339C1.10608 3.74178 1.35279 3.98849 1.66118 3.98849H2.66447V17.0312C2.66447 18.6678 3.9967 20 5.63322 20H14.3668C16.0033 20 17.3355 18.6678 17.3355 17.0312V3.98849H18.3388C18.6472 3.98849 18.8939 3.74178 18.8939 3.43339C18.8939 3.125 18.6472 2.87829 18.3388 2.87829ZM6.93256 2.19984C6.93256 1.59951 7.42187 1.1102 8.0222 1.1102H11.9778C12.5781 1.1102 13.0674 1.59951 13.0674 2.19984V2.87829H6.93256V2.19984ZM16.2253 17.0312C16.2253 18.0551 15.3906 18.8898 14.3668 18.8898H5.63322C4.60937 18.8898 3.77466 18.0551 3.77466 17.0312V3.98849H16.2294V17.0312H16.2253Z" fill="#F44336" stroke="#F44336" stroke-width="0.5"/>
<path d="M9.99991 16.8997C10.3083 16.8997 10.555 16.653 10.555 16.3446V6.53371C10.555 6.22532 10.3083 5.97861 9.99991 5.97861C9.69153 5.97861 9.44482 6.22532 9.44482 6.53371V16.3405C9.44482 16.6488 9.69153 16.8997 9.99991 16.8997Z" fill="#F44336" stroke="#F44336" stroke-width="0.5"/>
<path d="M6.37749 16.287C6.68588 16.287 6.93259 16.0403 6.93259 15.7319V7.14226C6.93259 6.83387 6.68588 6.58716 6.37749 6.58716C6.0691 6.58716 5.82239 6.83387 5.82239 7.14226V15.7319C5.82239 16.0403 6.07321 16.287 6.37749 16.287Z" fill="#F44336" stroke="#F44336" stroke-width="0.5"/>
<path d="M13.6225 16.287C13.9309 16.287 14.1776 16.0403 14.1776 15.7319V7.14226C14.1776 6.83387 13.9309 6.58716 13.6225 6.58716C13.3141 6.58716 13.0674 6.83387 13.0674 7.14226V15.7319C13.0674 16.0403 13.3141 16.287 13.6225 16.287Z" fill="#F44336" stroke="#F44336" stroke-width="0.5"/>
</g>
<defs>
<clipPath id="clip0">
<rect width="20" height="20" fill="white"/>
</clipPath>
</defs>
</svg>
