<?xml version="1.0" encoding="UTF-8"?>
<svg width="20px" height="20px" viewBox="0 0 20 20" version="1.1" xmlns="http://www.w3.org/2000/svg" xmlns:xlink="http://www.w3.org/1999/xlink">
    <!-- Generator: Sketch 40.3 (33839) - http://www.bohemiancoding.com/sketch -->
    <title>Shape</title>
    <desc>Created with Sketch.</desc>
    <defs></defs>
    <g id="Планшет" stroke="none" stroke-width="1" fill="none" fill-rule="evenodd">
        <g id="Таб-Посёлки" transform="translate(-55.000000, -303.000000)">
            <g id="Поиск" transform="translate(30.000000, 283.000000)">
                <g id="search" transform="translate(25.000000, 20.000000)">
                    <path d="M7.79487179,15.5042735 C9.67521368,15.5042735 11.3846154,14.8376068 12.7179487,13.7094017 L18.7008547,19.6923077 C18.8376068,19.8290598 19.008547,19.8974359 19.1965812,19.8974359 C19.3846154,19.8974359 19.5555556,19.8290598 19.6923077,19.6923077 C19.965812,19.4188034 19.965812,18.974359 19.6923077,18.7008547 L13.7094017,12.7179487 C14.8205128,11.3846154 15.5042735,9.65811966 15.5042735,7.79487179 C15.5042735,3.53846154 12.0512821,0.0854700855 7.79487179,0.0854700855 C3.55555556,0.0854700855 0.0854700855,3.55555556 0.0854700855,7.79487179 C0.0854700855,12.0512821 3.55555556,15.5042735 7.79487179,15.5042735 L7.79487179,15.5042735 Z M7.79487179,1.48717949 C11.2820513,1.48717949 14.1025641,4.32478632 14.1025641,7.79487179 C14.1025641,11.2820513 11.2820513,14.1025641 7.79487179,14.1025641 C4.30769231,14.1025641 1.48717949,11.2649573 1.48717949,7.79487179 C1.48717949,4.32478632 4.32478632,1.48717949 7.79487179,1.48717949 L7.79487179,1.48717949 Z" id="Shape"></path>
                </g>
            </g>
        </g>
    </g>
</svg>