<svg width="16" height="22" viewBox="0 0 16 22" fill="none" xmlns="http://www.w3.org/2000/svg">
<path fill-rule="evenodd" clip-rule="evenodd" d="M1 8.03125C1 4.15422 4.15422 1 8.03125 1C11.9083 1 15.0625 4.15422 15.0625 8.03125C15.0625 9.30231 14.7196 10.548 14.0707 11.6336L8.63156 20.7152C8.5266 20.8905 8.33785 20.9984 8.13352 21H8.12887C7.92629 21 7.73793 20.8953 7.63102 20.723L2.04957 11.7286C1.36285 10.6195 1 9.34117 1 8.03125ZM8.12 19.2885L13.0651 11.032C13.605 10.1284 13.8945 9.09066 13.8945 8.03125C13.8945 4.80039 11.2621 2.16406 8.03125 2.16406C4.80039 2.16406 2.16406 4.80039 2.16406 8.03125C2.16406 9.12305 2.47398 10.188 3.04559 11.1112L8.12 19.2885ZM4.51562 8.03125C4.51562 6.09273 6.09273 4.51562 8.03125 4.51562C9.96977 4.51562 11.5469 6.09273 11.5469 8.03125C11.5469 9.93621 10.0196 11.5469 8.03125 11.5469C6.06707 11.5469 4.51562 9.95738 4.51562 8.03125ZM5.67969 8.03125C5.67969 9.32684 6.73215 10.3828 8.03125 10.3828C9.35094 10.3828 10.3789 9.30793 10.3789 8.03125C10.3789 6.73891 9.32359 5.67969 8.03125 5.67969C6.73891 5.67969 5.67969 6.73891 5.67969 8.03125Z" fill="white"/>
<path d="M14.0707 11.6336L14.1565 11.685L14.1566 11.6849L14.0707 11.6336ZM8.63156 20.7152L8.54577 20.6638L8.54577 20.6638L8.63156 20.7152ZM8.13352 21V21.1L8.1343 21.1L8.13352 21ZM7.63102 20.723L7.71599 20.6703L7.71599 20.6703L7.63102 20.723ZM2.04957 11.7286L1.96455 11.7812L1.9646 11.7813L2.04957 11.7286ZM13.0651 11.032L13.1509 11.0833L13.1509 11.0833L13.0651 11.032ZM8.12 19.2885L8.03503 19.3412L8.12151 19.4806L8.20579 19.3399L8.12 19.2885ZM3.04559 11.1112L2.96057 11.1638L2.96062 11.1639L3.04559 11.1112ZM8.03125 0.9C4.09899 0.9 0.9 4.09899 0.9 8.03125H1.1C1.1 4.20945 4.20945 1.1 8.03125 1.1V0.9ZM15.1625 8.03125C15.1625 4.09899 11.9635 0.9 8.03125 0.9V1.1C11.8531 1.1 14.9625 4.20945 14.9625 8.03125H15.1625ZM14.1566 11.6849C14.8147 10.5837 15.1625 9.32027 15.1625 8.03125H14.9625C14.9625 9.28434 14.6244 10.5123 13.9849 11.5823L14.1566 11.6849ZM8.71735 20.7665L14.1565 11.685L13.985 11.5822L8.54577 20.6638L8.71735 20.7665ZM8.1343 21.1C8.3735 21.0981 8.59448 20.9718 8.71736 20.7665L8.54577 20.6638C8.45873 20.8092 8.3022 20.8987 8.13273 20.9L8.1343 21.1ZM8.12887 21.1H8.13352V20.9H8.12887V21.1ZM7.54604 20.7757C7.67121 20.9774 7.89171 21.1 8.12887 21.1V20.9C7.96086 20.9 7.80465 20.8132 7.71599 20.6703L7.54604 20.7757ZM1.9646 11.7813L7.54605 20.7757L7.71599 20.6703L2.13454 11.6759L1.9646 11.7813ZM0.9 8.03125C0.9 9.35969 1.26799 10.6563 1.96455 11.7812L2.13459 11.676C1.45771 10.5828 1.1 9.32266 1.1 8.03125H0.9ZM12.9793 10.9806L8.03421 19.2371L8.20579 19.3399L13.1509 11.0833L12.9793 10.9806ZM13.7945 8.03125C13.7945 9.07247 13.51 10.0925 12.9792 10.9807L13.1509 11.0833C13.7001 10.1643 13.9945 9.10886 13.9945 8.03125H13.7945ZM8.03125 2.26406C11.2068 2.26406 13.7945 4.85553 13.7945 8.03125H13.9945C13.9945 4.74525 11.3174 2.06406 8.03125 2.06406V2.26406ZM2.26406 8.03125C2.26406 4.85562 4.85562 2.26406 8.03125 2.26406V2.06406C4.74516 2.06406 2.06406 4.74516 2.06406 8.03125H2.26406ZM3.13061 11.0585C2.5686 10.1509 2.26406 9.10408 2.26406 8.03125H2.06406C2.06406 9.14202 2.37937 10.2252 2.96057 11.1638L3.13061 11.0585ZM8.20497 19.2358L3.13056 11.0584L2.96062 11.1639L8.03503 19.3412L8.20497 19.2358ZM8.03125 4.41563C6.03751 4.41563 4.41563 6.03751 4.41563 8.03125H4.61562C4.61562 6.14796 6.14796 4.61562 8.03125 4.61562V4.41563ZM11.6469 8.03125C11.6469 6.03751 10.025 4.41563 8.03125 4.41563V4.61562C9.91454 4.61562 11.4469 6.14796 11.4469 8.03125H11.6469ZM8.03125 11.6469C10.0764 11.6469 11.6469 9.98989 11.6469 8.03125H11.4469C11.4469 9.88254 9.96288 11.4469 8.03125 11.4469V11.6469ZM4.41563 8.03125C4.41563 10.0119 6.01114 11.6469 8.03125 11.6469V11.4469C6.123 11.4469 4.61562 9.90286 4.61562 8.03125H4.41563ZM8.03125 10.2828C6.78747 10.2828 5.77969 9.2717 5.77969 8.03125H5.57969C5.57969 9.38197 6.67682 10.4828 8.03125 10.4828V10.2828ZM10.2789 8.03125C10.2789 9.25412 9.29431 10.2828 8.03125 10.2828V10.4828C9.40757 10.4828 10.4789 9.36174 10.4789 8.03125H10.2789ZM8.03125 5.77969C9.26815 5.77969 10.2789 6.79392 10.2789 8.03125H10.4789C10.4789 6.68389 9.37904 5.57969 8.03125 5.57969V5.77969ZM5.77969 8.03125C5.77969 6.79414 6.79414 5.77969 8.03125 5.77969V5.57969C6.68368 5.57969 5.57969 6.68368 5.57969 8.03125H5.77969Z" fill="white"/>
</svg>
