<svg xmlns="http://www.w3.org/2000/svg" data-name="Layer 1" width="448" height="67" viewBox="0 0 448 67"><path d="M97.09 40.44c0 3.53-.63 16.65-14.92 16.65S67.09 43.98 67.09 40.44V4.64h-8.76v35.8c0 9.5 3.95 23.87 23.84 23.87s23.68-14.37 23.68-23.87V4.64h-8.76zM182.74 4.64h-8.76v58.89h38.59v-7.22h-29.83V4.64zM236.05 34.92h25.02v-7.3h-25.02V11.87h30.63V4.64h-39.39v58.89h40.89v-7.22h-32.13V34.92zM43.88 25.52A20.72 20.72 0 0 0 22.96 4.63h-23v58.89h8.76V11.84h14.13c6.71 0 12.23 5.73 12.23 13.66s-5.52 13.66-12.23 13.66h-5.13L34.14 63.5h9.71L31.17 44.84a20.61 20.61 0 0 0 12.71-19.32zM154.03 30.47a15.45 15.45 0 0 0 4.5-10.91c0-8.16-6.39-14.92-14.36-14.92h-23.44v58.89h23.44a17.84 17.84 0 0 0 17.6-18.06 18.16 18.16 0 0 0-7.74-15zm-9.86 25.84h-14.68V11.84h14.68c3.08 0 5.6 3.53 5.6 7.69s-3.21 7.62-6.21 7.85h-4.79v7.23h4.94c4.66.23 9.28 5 9.28 10.84.02 5.99-3.9 10.85-8.82 10.85zM375.37 4.64l-24.01 31.31V4.64h-8.75v58.89h8.75V41.54l23.17 21.99h11.39l-26.34-25.07 26.34-33.82h-10.55zM394.32 63.08h9.39l6.45-16.86h20.93l7.78 16.86h9.39L418.77-.01zm33.38-24.24h-14.71l6.67-17.43zM303.65 46.02L287.7 4.36h-9.39l24.46 63.08 29.49-63.08h-9.39l-19.22 41.66z"/></svg>