<svg width="16" height="16" viewBox="0 0 16 16" fill="none" xmlns="http://www.w3.org/2000/svg">
<path d="M15.2611 0H9.42055C9.12137 0.00107309 8.8521 0.180743 8.738 0.455382C8.62443 0.732775 8.6872 1.04948 8.89803 1.2603L10.1741 2.53642L2.53699 10.1741L1.26088 8.89803C1.04951 8.68667 0.732238 8.62443 0.455954 8.73796C0.180171 8.8521 0.000500773 9.12138 0.000500773 9.42055L0 15.2617C0.000500773 15.6696 0.330904 16 0.738283 16H6.57991C6.87916 15.9995 7.1484 15.8199 7.2625 15.5452C7.37664 15.2683 7.31333 14.9511 7.10251 14.7397L5.82639 13.463L13.463 5.82586L14.7396 7.10204C14.9509 7.31333 15.2682 7.37672 15.545 7.26311C15.8198 7.1479 15.9999 6.87923 15.9999 6.57999V0.73882C16 0.33094 15.6696 0 15.2611 0Z" fill="white"/>
</svg>