<?xml version="1.0" encoding="UTF-8" standalone="no"?>
<svg width="33px" height="25px" viewBox="0 0 33 25" version="1.1" xmlns="http://www.w3.org/2000/svg" xmlns:xlink="http://www.w3.org/1999/xlink">
    <!-- Generator: Sketch 3.8.3 (29802) - http://www.bohemiancoding.com/sketch -->
    <title>Group</title>
    <desc>Created with Sketch.</desc>
    <defs></defs>
    <g id="Page-1" stroke="none" stroke-width="1" fill="none" fill-rule="evenodd">
        <g id="web/open/objec/ver2/country" transform="translate(-513.000000, -680.000000)" fill="#000000">
            <g id="noun_149318_cc" transform="translate(513.000000, 680.000000)">
                <g id="Group">
                    <path d="M32.2142857,10.7356071 L30.0453214,10.7356071 L7.29732143,10.7356071 L7.29732143,3.78321429 C7.29732143,2.52960714 8.31757143,1.50935714 9.57117857,1.50935714 C10.8251786,1.50935714 11.8454286,2.52960714 11.8454286,3.78321429 C11.8454286,4.10889286 12.1090357,4.3725 12.4347143,4.3725 C12.7603929,4.3725 13.024,4.10889286 13.024,3.78321429 C13.024,1.87942857 11.4753571,0.330785714 9.57117857,0.330785714 C7.66739286,0.330785714 6.11875,1.87942857 6.11875,3.78321429 L6.11875,10.7356071 L2.95507143,10.7356071 L0.785714286,10.7356071 C0.460035714,10.7356071 0.196428571,10.9992143 0.196428571,11.3248929 C0.196428571,11.6505714 0.460035714,11.9141786 0.785714286,11.9141786 L2.36539286,11.9141786 L2.36539286,18.5181071 C2.36539286,20.1362857 3.68225,21.4531429 5.30042857,21.4531429 L6.11875,21.4531429 L6.11875,24.2231786 C6.11875,24.5488571 6.38235714,24.8124643 6.70803571,24.8124643 C7.03371429,24.8124643 7.29732143,24.5488571 7.29732143,24.2231786 L7.29732143,21.4531429 L25.7030714,21.4531429 L25.7030714,24.2231786 C25.7030714,24.5488571 25.9666786,24.8124643 26.2923571,24.8124643 C26.6180357,24.8124643 26.8816429,24.5488571 26.8816429,24.2231786 L26.8816429,21.4531429 L27.6999643,21.4531429 C29.3181429,21.4531429 30.635,20.1362857 30.635,18.5181071 L30.635,11.9141786 L32.2142857,11.9141786 C32.5399643,11.9141786 32.8035714,11.6505714 32.8035714,11.3248929 C32.8035714,10.9992143 32.5399643,10.7356071 32.2142857,10.7356071 L32.2142857,10.7356071 Z M29.4560357,18.5181071 C29.4560357,19.4865 28.6683571,20.2745714 27.6995714,20.2745714 L5.30042857,20.2745714 C4.33203571,20.2745714 3.54396429,19.4868929 3.54396429,18.5181071 L3.54396429,11.9141786 L29.4556429,11.9141786 L29.4556429,18.5181071 L29.4560357,18.5181071 Z" id="Shape"></path>
                </g>
            </g>
        </g>
    </g>
</svg>
