<?xml version="1.0" encoding="UTF-8" standalone="no"?>
<svg width="20px" height="20px" viewBox="0 0 20 20" version="1.1" xmlns="http://www.w3.org/2000/svg" xmlns:xlink="http://www.w3.org/1999/xlink">
    <!-- Generator: Sketch 3.7 (28169) - http://www.bohemiancoding.com/sketch -->
    <title>bell_icon</title>
    <desc>Created with Sketch.</desc>
    <defs></defs>
    <g id="Page-1" stroke="none" stroke-width="1" fill="none" fill-rule="evenodd">
        <g id="mobile/city/search/filter" transform="translate(-62.000000, -1428.000000)" fill="#000000">
            <g id="Group-2" transform="translate(33.000000, 1414.000000)">
                <path d="M46.3013465,22.8601322 C45.8086748,19.6743106 45.2531331,16.0938319 40.300696,15.6252748 L40.300696,15.0482262 C40.300696,14.4693433 39.7888775,14 39.1576061,14 C38.5263347,14 38.0145162,14.4693433 38.0145162,15.0482262 L38.0145162,15.6260609 C33.1029446,16.0977627 32.5519752,19.6769312 32.06359,22.8611804 C31.7338086,25.0113544 31.392882,27.2346422 29.8288493,28.7375366 C29.5130707,29.0409981 29.424767,29.4878045 29.6048036,29.8735518 C29.7848403,30.2595611 30.1983531,30.509563 30.6558748,30.509563 L35.2846107,30.509563 L35.44485,30.509563 C35.4705695,32.3678061 37.1249064,33.8727969 39.1576061,33.8727969 C41.1903057,33.8727969 42.8443568,32.3678061 42.8703621,30.509563 L47.7307805,30.509563 C48.1891595,30.509563 48.6032439,30.2585128 48.782709,29.8714553 C48.9621741,29.4849219 48.8721558,29.0373293 48.5543768,28.7343919 C46.9771984,27.2322837 46.6336999,25.00952 46.3013465,22.8601322 Z M39.1733511,33.2030338 C37.5176084,33.2030338 36.2684242,32.1893039 36.213846,30.5172555 L42.1400319,30.5172555 C42.0854537,32.1893039 40.6568546,33.2030338 39.3920323,33.2030338 L39.1733511,33.2030338 Z M30.4324448,29.8963009 C30.4324448,29.8963009 30.0280987,29.53363 30.4324448,29.1785275 C31.9268645,27.5789792 32.435804,25.179192 32.7324632,23.2466671 C33.4328928,18.6794784 34.5042888,16.2998339 39.2158851,16.2998339 C43.9782423,16.2998339 45.0490513,18.8255795 45.6360681,23.2466671 C45.9078465,25.2935526 46.5986087,28.1431881 48.0720856,29.3220822 C48.3149291,29.6611328 47.8997286,29.8319256 47.9633016,29.8963009 L30.4324448,29.8963009 Z" id="bell_icon"></path>
            </g>
        </g>
    </g>
</svg>