<?xml version="1.0" encoding="UTF-8"?>
<svg width="14px" height="13px" viewBox="0 0 14 13" version="1.1" xmlns="http://www.w3.org/2000/svg" xmlns:xlink="http://www.w3.org/1999/xlink">
    <!-- Generator: Sketch 40.3 (33839) - http://www.bohemiancoding.com/sketch -->
    <title>Shape</title>
    <desc>Created with Sketch.</desc>
    <defs></defs>
    <g id="mobile" stroke="none" stroke-width="1" fill="none" fill-rule="evenodd">
        <g id="Mob-Property-Card" transform="translate(-57.000000, -2166.000000)">
            <g id="Карточка-поселка" transform="translate(0.000000, 2097.000000)">
                <path d="M63.1246111,81.9707865 C63.0886566,81.9707865 63.0522778,81.9647247 63.0167828,81.9520534 C62.8720455,81.900382 62.7806566,81.7527809 62.796,81.5953933 L63.4352273,75.0269607 L57.3068333,74.1511404 C57.1542828,74.1293399 57.0365202,74.0015674 57.0230152,73.8430843 C57.0095101,73.6846376 57.1037626,73.5375478 57.250303,73.4885056 L70.5553586,69.035823 C70.6877929,68.9916011 70.8329192,69.0377219 70.9182626,69.1513624 C71.0035707,69.2650028 71.0107121,69.4217331 70.9361869,69.5431517 L63.4036919,81.8122669 C63.3417879,81.9131264 63.2353384,81.9707865 63.1246111,81.9707865 L63.1246111,81.9707865 Z M58.8244192,73.6791236 L63.8409798,74.396059 C64.0169697,74.4211826 64.1421919,74.5855815 64.1244091,74.7681657 L63.5929394,80.2296994 L69.8876364,69.9766798 L58.8244192,73.6791236 L58.8244192,73.6791236 Z" id="Shape"></path>
            </g>
        </g>
    </g>
</svg>