<?xml version="1.0" encoding="UTF-8" standalone="no"?>
<svg width="11px" height="16px" viewBox="0 0 11 16" version="1.1" xmlns="http://www.w3.org/2000/svg" xmlns:xlink="http://www.w3.org/1999/xlink">
    <!-- Generator: Sketch 39.1 (31720) - http://www.bohemiancoding.com/sketch -->
    <title>noun_480134_cc copy</title>
    <desc>Created with Sketch.</desc>
    <defs></defs>
    <g id="Page-1" stroke="none" stroke-width="1" fill="none" fill-rule="evenodd">
        <g id="websettlements_search" transform="translate(-1196.000000, -592.000000)" fill="#000000">
            <g id="noun_480134_cc-copy" transform="translate(1196.000000, 592.000000)">
                <g id="Group">
                    <g id="Shape">
                        <path d="M5.49025714,15.803102 L5.18822857,15.4027755 C4.98017143,15.1271837 0.0939714286,8.61877551 0.0939714286,5.63918367 C0.0939714286,2.54759184 2.51491429,0.0326530612 5.49025714,0.0326530612 C8.46622857,0.0326530612 10.8871714,2.54759184 10.8871714,5.63918367 C10.8871714,8.61877551 6.00034286,15.1271837 5.79228571,15.4027755 L5.49025714,15.803102 L5.49025714,15.803102 Z M5.49025714,0.830367347 C2.93794286,0.830367347 0.861771429,2.9877551 0.861771429,5.6395102 C0.861771429,7.95004082 4.4176,13.0230204 5.49025714,14.5002449 C6.5626,13.0233469 10.1193714,7.94938776 10.1193714,5.6395102 C10.1190571,2.9877551 8.04257143,0.830367347 5.49025714,0.830367347 L5.49025714,0.830367347 Z"></path>
                        <path d="M5.49088571,3.92163265 L5.49088571,3.92163265 C5.98242857,3.92163265 6.44474286,4.12081633 6.79297143,4.48163265 C7.51048571,5.2277551 7.51048571,6.44179592 6.79297143,7.18759184 C6.44568571,7.54873469 5.98274286,7.74791837 5.49151429,7.74791837 C4.99934286,7.74791837 4.5364,7.54873469 4.18848571,7.18759184 C3.47097143,6.44146939 3.47097143,5.2277551 4.18848571,4.48195918 C4.5364,4.12081633 4.9984,3.92163265 5.49088571,3.92163265 L5.49088571,3.92163265 Z M5.49025714,3.12391837 C4.82302857,3.12391837 4.15517143,3.38840816 3.64571429,3.91771429 C2.6268,4.97665306 2.6268,6.69257143 3.64571429,7.7515102 C4.15517143,8.28081633 4.82365714,8.54563265 5.49151429,8.54563265 C6.15874286,8.54563265 6.82597143,8.28114286 7.33605714,7.7515102 C8.35434286,6.69257143 8.35371429,4.976 7.33605714,3.91771429 C6.82597143,3.38873469 6.15811429,3.12391837 5.49025714,3.12391837 L5.49025714,3.12391837 L5.49025714,3.12391837 Z"></path>
                    </g>
                </g>
            </g>
        </g>
    </g>
</svg>
