<?xml version="1.0" encoding="UTF-8" standalone="no"?>
<svg width="14px" height="22px" viewBox="0 0 14 22" version="1.1" xmlns="http://www.w3.org/2000/svg" xmlns:xlink="http://www.w3.org/1999/xlink" xmlns:sketch="http://www.bohemiancoding.com/sketch/ns">
    <!-- Generator: Sketch 3.5.2 (25235) - http://www.bohemiancoding.com/sketch -->
    <title>Shape</title>
    <desc>Created with Sketch.</desc>
    <defs></defs>
    <g id="Page-1" stroke="none" stroke-width="1" fill="none" fill-rule="evenodd" sketch:type="MSPage">
        <g id="all" sketch:type="MSLayerGroup" transform="translate(-662.000000, -6.000000)" fill="#000000">
            <g id="Group" transform="translate(632.000000, 4.000000)" sketch:type="MSShapeGroup">
                <path d="M39.046,2.627 C37.836,2.47 32.407,2.616 31.785,2.633 L30.875,2.66 L30.875,19.169 L30.875,21.169 L30.875,23.708 L32.875,23.708 L32.875,20.708 L38.875,20.708 L38.875,18.708 L32.875,18.708 L32.875,14.804 C33.875,14.792 36.104,14.778 38.05,14.804 C41.629,14.81 43.569,10.658 43.615,8.398 C43.668,5.838 41.347,2.926 39.046,2.627 L39.046,2.627 Z M38.043,12.708 L38.014,12.708 C37.207,12.708 36.426,12.741 35.633,12.741 C34.506,12.741 32.875,12.797 32.875,12.804 L32.875,4.608 C34.875,4.555 38.153,4.611 38.851,4.701 C40.035,4.855 41.65,6.68 41.616,8.309 C41.583,9.844 40.149,12.708 38.043,12.708 L38.043,12.708 Z" id="Shape"></path>
            </g>
        </g>
    </g>
</svg>