<?xml version="1.0" encoding="UTF-8"?>
<svg width="23px" height="23px" viewBox="0 0 23 23" version="1.1" xmlns="http://www.w3.org/2000/svg" xmlns:xlink="http://www.w3.org/1999/xlink">
    <!-- Generator: Sketch 40.3 (33839) - http://www.bohemiancoding.com/sketch -->
    <title>Shape</title>
    <desc>Created with Sketch.</desc>
    <defs></defs>
    <g id="mobile" stroke="none" stroke-width="1" fill="none" fill-rule="evenodd">
        <g id="Моб-Фильтр-–-Открыли" transform="translate(-32.000000, -282.000000)">
            <g id="Направление" transform="translate(1.000000, 253.000000)">
                <g id="icon" transform="translate(20.000000, 18.000000)">
                    <path d="M14.3429098,30.6299981 C16.5913812,32.8753705 19.5212074,33.9980567 22.4851014,33.9980567 C25.4149277,33.9980567 28.3788217,32.8753705 30.627293,30.6299981 C32.8076288,28.4526673 34,25.5608998 34,22.4990284 C34,19.4371569 32.8076288,16.5453894 30.627293,14.3680586 C26.1303504,9.8773138 18.8398525,9.8773138 14.3769776,14.3680586 C9.88003495,18.8588034 9.88003495,26.1392533 14.3429098,30.6299981 L14.3429098,30.6299981 Z M32.8416966,21.9206749 L31.7174609,21.9206749 L31.7174609,23.0433611 L32.8416966,23.0433611 C32.7054256,25.3907958 31.7855964,27.6361682 30.2184801,29.3712287 L29.4349219,28.5887505 L28.6172959,29.4052495 L29.4008541,30.1877278 C27.5952635,31.8207259 25.3467922,32.6712457 23.0642531,32.8073289 L23.0642531,31.6846427 L21.9400175,31.6846427 L21.9400175,32.8073289 C19.6574784,32.6712457 17.4090071,31.8207259 15.6034165,30.1877278 L16.3869747,29.4052495 L15.5693487,28.5887505 L14.7857906,29.3712287 C13.1505387,27.5681267 12.298845,25.3227543 12.162574,23.0433611 L13.2868097,23.0433611 L13.2868097,21.9206749 L12.162574,21.9206749 C12.298845,19.6412817 13.1505387,17.3959093 14.7857906,15.5928072 L15.5693487,16.3752854 L16.3869747,15.5587864 L15.6034165,14.7763081 C17.4090071,13.14331 19.6574784,12.2927902 21.9400175,12.156707 L21.9400175,13.2793932 L23.0642531,13.2793932 L23.0642531,12.156707 C25.3467922,12.2927902 27.5952635,13.14331 29.4008541,14.7763081 L28.6172959,15.5587864 L29.4349219,16.3752854 L30.2184801,15.5928072 C31.7855964,17.3618885 32.7054256,19.5732401 32.8416966,21.9206749 L32.8416966,21.9206749 Z M17.0342619,17.0557013 L20.3729011,24.6423384 L27.9700087,27.9763762 L24.6313695,20.3897391 L17.0342619,17.0557013 L17.0342619,17.0557013 Z M21.2245948,23.7577977 L19.2486654,19.2330321 L23.7796758,21.2062382 L25.7556052,25.7310038 L21.2245948,23.7577977 L21.2245948,23.7577977 Z" id="Shape"></path>
                </g>
            </g>
        </g>
    </g>
</svg>