<?xml version="1.0" encoding="UTF-8" standalone="no"?>
<svg width="20px" height="20px" viewBox="0 0 20 20" version="1.1" xmlns="http://www.w3.org/2000/svg" xmlns:xlink="http://www.w3.org/1999/xlink">
    <!-- Generator: Sketch 3.8.3 (29802) - http://www.bohemiancoding.com/sketch -->
    <title>noun_70961_cc copy 3</title>
    <desc>Created with Sketch.</desc>
    <defs></defs>
    <g id="Page-1" stroke="none" stroke-width="1" fill="none" fill-rule="evenodd">
        <g id="complexes/object" transform="translate(-1045.000000, -2293.000000)" fill="#9B9B9B">
            <g id="noun_70961_cc-copy-3" transform="translate(1045.000000, 2293.000000)">
                <g id="Group">
                    <path d="M10.4761905,9.61928571 L10.4761905,6.34809524 C11.4888095,6.50071429 12.1459524,7.10809524 12.1602381,7.12142857 C12.3495238,7.30261905 12.65,7.29690476 12.8321429,7.10785714 C13.0147619,6.91857143 13.0092857,6.61714286 12.82,6.43452381 C12.7788095,6.3947619 11.8833333,5.55047619 10.4764286,5.3897619 L10.4764286,4.52380952 C10.4764286,4.26095238 10.2630952,4.04761905 10.0002381,4.04761905 C9.73738095,4.04761905 9.52404762,4.26095238 9.52404762,4.52380952 L9.52404762,5.39071429 C7.8947619,5.56904762 6.75666667,6.62238095 6.75666667,8.0302381 C6.75666667,9.59333333 8.55547619,10.1011905 9.52404762,10.3452381 L9.52404762,13.9640476 C8.78857143,13.805 7.75357143,13.3778571 7.36071429,12.985 C7.1747619,12.7992857 6.87333333,12.7990476 6.68714286,12.985 C6.50119048,13.1709524 6.50119048,13.472381 6.68714286,13.6585714 C7.25761905,14.2288095 8.59,14.7695238 9.52380952,14.9314286 L9.52380952,15.7142857 C9.52380952,15.9771429 9.73714286,16.1904762 10,16.1904762 C10.2628571,16.1904762 10.4761905,15.9771429 10.4761905,15.7142857 L10.4761905,14.952619 C11.6969048,14.8085714 13.2440476,14.0940476 13.2440476,12.4861905 C13.2440476,11.1971429 12.2642857,10.187619 10.4761905,9.61928571 L10.4761905,9.61928571 Z M7.70880952,8.0302381 C7.70880952,7.0247619 8.57857143,6.48761905 9.52380952,6.3502381 L9.52380952,9.36119048 C8.75261905,9.15428571 7.70880952,8.7897619 7.70880952,8.0302381 L7.70880952,8.0302381 Z M10.4761905,13.9811905 L10.4761905,10.6264286 C11.3221429,10.9407143 12.2916667,11.5128571 12.2916667,12.4861905 C12.2916667,13.5438095 11.14,13.8766667 10.4761905,13.9811905 L10.4761905,13.9811905 Z" id="Shape"></path>
                    <path d="M10,0 C4.57952381,0 0,4.57952381 0,10 C0,15.4204762 4.57952381,20 10,20 C15.4204762,20 20,15.4204762 20,10 C20,4.57952381 15.4204762,0 10,0 L10,0 Z M10,19.047619 C5.09571429,19.047619 0.952380952,14.9042857 0.952380952,10 C0.952380952,5.09571429 5.09571429,0.952380952 10,0.952380952 C14.9042857,0.952380952 19.047619,5.09571429 19.047619,10 C19.047619,14.9042857 14.9042857,19.047619 10,19.047619 L10,19.047619 Z" id="Shape"></path>
                </g>
            </g>
        </g>
    </g>
</svg>