<?xml version="1.0" encoding="UTF-8" standalone="no"?>
<svg width="20px" height="22px" viewBox="0 0 20 22" version="1.1" xmlns="http://www.w3.org/2000/svg" xmlns:xlink="http://www.w3.org/1999/xlink" xmlns:sketch="http://www.bohemiancoding.com/sketch/ns">
    <!-- Generator: Sketch 3.5.2 (25235) - http://www.bohemiancoding.com/sketch -->
    <title>Shape</title>
    <desc>Created with Sketch.</desc>
    <defs></defs>
    <g id="Page-1" stroke="none" stroke-width="1" fill="none" fill-rule="evenodd" sketch:type="MSPage">
        <g id="all" sketch:type="MSLayerGroup" transform="translate(-632.000000, -6.000000)" fill="#000000">
            <g id="Group" transform="translate(632.000000, 4.000000)" sketch:type="MSShapeGroup">
                <path d="M10.781,4.678 C14.567,3.07 19.157,4.929 19.203,4.949 L19.971,3.102 C19.751,3.011 14.56,0.893 9.998,2.838 C7.911,3.728 4.625,6.304 3.961,10.708 L0.875,10.708 L0.875,12.708 L3.85,12.708 C3.852,12.754 3.848,12.796 3.85,12.842 C3.912,14.212 4.167,15.514 4.588,16.708 L0.875,16.708 L0.875,18.708 L5.511,18.708 C6.972,21.249 9.283,23.038 12.039,23.517 C13.041,23.691 13.931,23.763 14.723,23.763 C17.108,23.763 18.621,23.113 19.716,22.642 L19.969,22.534 L19.192,20.692 L18.926,20.805 C17.612,21.37 15.814,22.142 12.382,21.546 C10.598,21.236 9.045,20.207 7.899,18.708 L10.876,18.708 L10.876,16.708 L6.734,16.708 C6.224,15.524 5.876,14.185 5.876,12.752 L5.876,12.708 L10.876,12.708 L10.876,10.708 L5.997,10.708 C6.634,7.345 9.157,5.371 10.781,4.678 L10.781,4.678 Z" id="Shape"></path>
            </g>
        </g>
    </g>
</svg>