<?xml version="1.0" encoding="UTF-8" standalone="no"?>
<svg width="18px" height="17px" viewBox="0 0 18 17" version="1.1" xmlns="http://www.w3.org/2000/svg" xmlns:xlink="http://www.w3.org/1999/xlink">
    <!-- Generator: Sketch 3.6.1 (26313) - http://www.bohemiancoding.com/sketch -->
    <title>Group</title>
    <desc>Created with Sketch.</desc>
    <defs></defs>
    <g id="Page-1" stroke="none" stroke-width="1" fill="none" fill-rule="evenodd">
        <g id="search/filter" transform="translate(-694.000000, -124.000000)" fill="#000">
            <g id="Filter_1200" transform="translate(0.000000, 79.000000)">
                <g id="eye-fill-28" transform="translate(694.000000, 45.000000)">
                    <g id="Group">
                        <path d="M13.5488793,13.7433409 C13.2870259,14.7807273 12.3501724,15.5538409 11.2282759,15.5538409 C10.1063793,15.5538409 9.16952586,14.7807273 8.90767241,13.7433409 C8.8599569,13.5567273 8.82737069,13.3643182 8.82737069,13.1637955 C8.82737069,12.9632727 8.8599569,12.7708636 8.90767241,12.58425 C9.16952586,11.5468636 10.1063793,10.7725909 11.2282759,10.7725909 C12.3501724,10.7725909 13.2870259,11.5468636 13.5488793,12.58425 C13.595431,12.7708636 13.6280172,12.9632727 13.6280172,13.1637955 C13.6280172,13.3643182 13.595431,13.5567273 13.5488793,13.7433409 M17.375431,12.58425 L14.7336207,12.58425 C14.4531466,10.9035682 12.99375,9.6135 11.2282759,9.6135 C9.46280172,9.6135 8.00340517,10.9035682 7.72293103,12.58425 L0.581896552,12.58425 C0.260689655,12.58425 0,12.8438864 0,13.1637955 C0,13.4837045 0.260689655,13.7433409 0.581896552,13.7433409 L7.72293103,13.7433409 C8.00340517,15.4240227 9.46280172,16.7140909 11.2282759,16.7140909 C12.99375,16.7140909 14.4531466,15.4240227 14.7336207,13.7433409 L17.375431,13.7433409 C17.6966379,13.7433409 17.9573276,13.4837045 17.9573276,13.1637955 C17.9573276,12.8438864 17.6966379,12.58425 17.375431,12.58425 M4.40844828,2.96959091 C4.66913793,1.93220455 5.60715517,1.15909091 6.72905172,1.15909091 C7.85094828,1.15909091 8.78780172,1.93220455 9.04965517,2.96959091 C9.0962069,3.15620455 9.1287931,3.34861364 9.1287931,3.54913636 C9.1287931,3.74965909 9.0962069,3.94206818 9.04965517,4.12868182 C8.78780172,5.16606818 7.85094828,5.94034091 6.72905172,5.94034091 C5.60715517,5.94034091 4.66913793,5.16606818 4.40844828,4.12868182 C4.36073276,3.94206818 4.32814655,3.74965909 4.32814655,3.54913636 C4.32814655,3.34861364 4.36073276,3.15620455 4.40844828,2.96959091 M0.581896552,4.12868182 L3.2237069,4.12868182 C3.50301724,5.80936364 4.96241379,7.09943182 6.72905172,7.09943182 C8.49452586,7.09943182 9.95392241,5.80936364 10.2343966,4.12868182 L17.375431,4.12868182 C17.6966379,4.12868182 17.9573276,3.86904545 17.9573276,3.54913636 C17.9573276,3.22922727 17.6966379,2.96959091 17.375431,2.96959091 L10.2343966,2.96959091 C9.95392241,1.28890909 8.49452586,0 6.72905172,0 C4.96241379,0 3.50301724,1.28890909 3.2237069,2.96959091 L0.581896552,2.96959091 C0.260689655,2.96959091 0,3.22922727 0,3.54913636 C0,3.86904545 0.260689655,4.12868182 0.581896552,4.12868182" id="Shape"></path>
                    </g>
                </g>
            </g>
        </g>
    </g>
</svg>
