<svg width="14" height="14" viewBox="0 0 14 14" fill="none" xmlns="http://www.w3.org/2000/svg">
<path d="M13.1923 2.96155H0.80768C0.376941 2.96155 0 2.58466 0 2.15387C0 1.72308 0.376941 1.34619 0.80768 1.34619H13.1923C13.6231 1.34619 13.9999 1.72313 13.9999 2.15387C13.9999 2.58461 13.6231 2.96155 13.1923 2.96155Z" fill="#F44336"/>
<path d="M13.1923 7.80779H0.80768C0.376941 7.80779 0 7.43085 0 7.00006C0 6.56927 0.376941 6.19238 0.80768 6.19238H13.1923C13.6231 6.19238 13.9999 6.56932 13.9999 7.00006C14 7.43085 13.6231 7.80779 13.1923 7.80779Z" fill="#F44336"/>
<path d="M13.1923 12.6539H0.80768C0.376941 12.6539 0 12.277 0 11.8463C0 11.4155 0.376941 11.0386 0.80768 11.0386H13.1923C13.6231 11.0386 13.9999 11.4155 13.9999 11.8463C13.9999 12.277 13.6231 12.6539 13.1923 12.6539Z" fill="#F44336"/>
<path d="M4.09223 3.98475C5.10333 3.98475 5.92298 3.16509 5.92298 2.154C5.92298 1.1429 5.10333 0.323242 4.09223 0.323242C3.08113 0.323242 2.26147 1.1429 2.26147 2.154C2.26147 3.16509 3.08113 3.98475 4.09223 3.98475Z" fill="#F44336"/>
<path d="M9.90766 8.83094C10.9188 8.83094 11.7384 8.01128 11.7384 7.00018C11.7384 5.98909 10.9188 5.16943 9.90766 5.16943C8.89656 5.16943 8.0769 5.98909 8.0769 7.00018C8.0769 8.01128 8.89656 8.83094 9.90766 8.83094Z" fill="#F44336"/>
<path d="M4.09223 13.6771C5.10333 13.6771 5.92298 12.8575 5.92298 11.8464C5.92298 10.8353 5.10333 10.0156 4.09223 10.0156C3.08113 10.0156 2.26147 10.8353 2.26147 11.8464C2.26147 12.8575 3.08113 13.6771 4.09223 13.6771Z" fill="#F44336"/>
</svg>
