<?xml version="1.0" encoding="UTF-8" standalone="no"?>
<svg width="21px" height="19px" viewBox="0 0 21 19" version="1.1" xmlns="http://www.w3.org/2000/svg" xmlns:xlink="http://www.w3.org/1999/xlink">
    <!-- Generator: Sketch 3.7.1 (28215) - http://www.bohemiancoding.com/sketch -->
    <title>Page 1</title>
    <desc>Created with Sketch.</desc>
    <defs></defs>
    <g id="Page-1" stroke="none" stroke-width="1" fill="none" fill-rule="evenodd">
        <g id="village/open/object-" transform="translate(-340.000000, -596.000000)" stroke-width="0.8" stroke="#000000" fill="#000000">
            <g id="Планировка" transform="translate(341.000000, 596.000000)">
                <g id="Page-1">
                    <path d="M0.391227273,13.2158717 L0.391227273,6.67499465 L4.72927273,6.67499465 L4.72927273,6.30678075 L0.391227273,6.30678075 L0.391227273,0.944025668 L18.3211818,0.944025668 L18.3211818,6.64166845 L10.7272273,6.64166845 L10.7272273,5.07736898 L10.336,5.07736898 L10.336,9.41709091 L10.7272273,9.41709091 L10.7272273,7.00988235 L18.3211818,7.00988235 L18.3211818,17.819277 L10.7548636,17.819277 L10.7548636,11.8030845 L10.3636364,11.8030845 L10.3636364,17.819277 L9.73922727,17.819277 L9.73922727,18.1874909 L18.7124091,18.1874909 L18.7124091,0.575811765 L0,0.575811765 L0,18.1874909 L7.06713636,18.1874909 L7.06713636,17.819277 L0.391227273,17.819277 L0.391227273,13.5840856 L4.72927273,13.5840856 L4.72927273,13.2158717 L0.391227273,13.2158717 Z" id="Fill-1"></path>
                </g>
            </g>
        </g>
    </g>
</svg>