<?xml version="1.0" encoding="UTF-8" standalone="no"?>
<svg width="27px" height="24px" viewBox="0 0 27 24" version="1.1" xmlns="http://www.w3.org/2000/svg" xmlns:xlink="http://www.w3.org/1999/xlink" xmlns:sketch="http://www.bohemiancoding.com/sketch/ns">
    <!-- Generator: Sketch 3.4.4 (17249) - http://www.bohemiancoding.com/sketch -->
    <title>logo</title>
    <desc>Created with Sketch.</desc>
    <defs></defs>
    <g id="Page-1" stroke="none" stroke-width="1" fill="none" fill-rule="evenodd" sketch:type="MSPage">
        <g id="logotype" sketch:type="MSLayerGroup" fill="#BA2B31">
            <path d="M25.701,6.768 L13.94,0.524 C13.547,0.314 12.904,0.314 12.51,0.524 L0.886,6.667 C0.493,6.875 0.492,7.217 0.884,7.427 L3.82,9 C4.212,9.21 4.857,9.215 5.252,9.01 L13.219,4.888 L22.025,9.394 L22.025,19.33 C22.025,19.333 4.375,19.335 4.375,19.335 L4.375,15.05 C4.375,14.605 4.055,14.07 3.665,13.858 L0.825,12.403 C0.435,12.193 0.115,12.383 0.117,12.829 L0.117,22.553 C0.117,22.999 0.52,23.363 0.965,23.363 L25.627,23.373 C26.072,23.373 26.437,23.009 26.435,22.565 L26.417,7.955 C26.416,7.511 26.094,6.976 25.701,6.768 Z" id="logo" sketch:type="MSShapeGroup"></path>
        </g>
    </g>
</svg>