<?xml version="1.0" encoding="UTF-8" standalone="no"?>
<svg width="176px" height="25px" viewBox="0 0 176 25" version="1.1" xmlns="http://www.w3.org/2000/svg" xmlns:xlink="http://www.w3.org/1999/xlink">
    <!-- Generator: Sketch 3.6.1 (26313) - http://www.bohemiancoding.com/sketch -->
    <title>Shape</title>
    <desc>Created with Sketch.</desc>
    <defs></defs>
    <g id="Page-1" stroke="none" stroke-width="1" fill="none" fill-rule="evenodd">
        <g id="Group" transform="translate(-53.000000, -10.000000)" fill="#000000">
            <g id="Shape">
                <path d="M185.955075,21.791875 L175.207019,21.791875 L173.544948,24.85875 L187.91311,24.85875 L185.955075,21.791875 L185.955075,21.791875 L185.955075,21.791875 Z M211.182098,10.1908333 L211.182098,29.771875 L228.983748,29.771875 L228.983748,26.705 L214.764297,26.705 L214.764297,21.3470833 L226.471689,21.3470833 L226.471689,18.2802083 L214.764297,18.2802083 L214.764297,13.25625 L228.614885,13.25625 L228.614885,10.19375 L211.182098,10.19375 L211.182098,10.1908333 L211.182098,10.1908333 Z M148.427272,18.2845833 L135.942789,18.2845833 L135.942789,13.25625 L147.650181,13.25625 L147.650181,15.3635417 L151.236754,15.3635417 L151.236754,13.3320833 C151.236754,11.52375 149.758386,10.0070833 147.947604,10.0070833 L135.686189,10.0070833 C133.8375,10.0070833 132.362048,11.52375 132.362048,13.3320833 L132.362048,18.134375 C132.362048,19.9427083 133.875407,21.3485417 135.686189,21.3485417 L148.167755,21.3485417 L148.167755,26.705 L135.941331,26.705 L135.941331,24.0479167 L132.359132,24.0479167 L132.359132,26.4483333 C132.359132,28.2960417 133.836042,29.7733333 135.683273,29.7733333 L148.463721,29.7733333 C150.274503,29.7733333 151.752871,28.2960417 151.752871,26.4483333 L151.752871,21.4608333 C151.752871,19.6379167 150.309494,18.2816667 148.42873,18.2816667 L148.427272,18.2845833 L148.427272,18.2845833 Z M190.719677,10.1908333 L190.719677,13.25625 L197.553119,13.25625 L197.553119,29.7733333 L201.136777,29.7733333 L201.136777,13.25625 L207.970219,13.25625 L207.970219,10.19375 L190.719677,10.19375 L190.719677,10.1908333 L190.719677,10.1908333 Z M153.375576,10.1908333 L153.375576,13.25625 L160.207561,13.25625 L160.207561,29.7733333 L163.78976,29.7733333 L163.78976,13.25625 L170.623203,13.25625 L170.623203,10.19375 L153.377034,10.19375 L153.375576,10.1908333 L153.375576,10.1908333 Z M90.9181736,34.059375 L95.2016501,34.059375 L90.7315552,29.5152083 L86.6682301,29.5152083 L90.9167156,34.0579167 L90.9181736,34.059375 L90.9181736,34.059375 Z M92.3936257,26.7064583 L77.6566004,26.7064583 L77.6566004,13.25625 L92.3965416,13.25625 L92.3965416,26.7064583 L92.3936257,26.7064583 L92.3936257,26.7064583 Z M92.8747514,10.1908333 L77.1740167,10.1908333 C75.4754973,10.1908333 74.0714851,11.445 74.0714851,13.1833333 L74.0714851,26.6320833 C74.0714851,28.3675 75.4754973,29.771875 77.1740167,29.771875 L92.8718354,29.771875 C94.5718128,29.771875 95.977283,28.3675 95.977283,26.6320833 L95.977283,13.1833333 C95.977283,11.4479167 94.5732708,10.1908333 92.8718354,10.1908333 L92.8747514,10.1908333 L92.8747514,10.1908333 Z M66.6111212,10.1908333 L66.6111212,26.7064583 L57.0440099,26.7064583 L57.0440099,23.4179167 L53.4603526,23.4179167 L53.4603526,26.6320833 C53.4603526,28.3675 54.8643648,29.771875 56.5628843,29.771875 L67.052882,29.771875 C68.7907663,29.771875 70.1933205,28.3675 70.1933205,26.6320833 L70.1933205,10.1908333 L66.6125791,10.1908333 L66.6111212,10.1908333 L66.6111212,10.1908333 Z M110.899469,10.1908333 L110.899469,29.771875 L128.701119,29.771875 L128.701119,26.705 L114.481668,26.705 L114.481668,21.3470833 L126.18906,21.3470833 L126.18906,18.2802083 L114.481668,18.2802083 L114.481668,13.25625 L128.332256,13.25625 L128.332256,10.19375 L110.899469,10.19375 L110.899469,10.1908333 L110.899469,10.1908333 Z M180.672898,13.22125 L189.056148,29.7733333 L192.639806,29.7733333 L182.407866,10.0070833 L179.010827,10.0070833 L168.703074,29.7733333 L172.362545,29.7733333 L180.672898,13.22125 L180.672898,13.22125 L180.672898,13.22125 Z"></path>
            </g>
        </g>
    </g>
</svg>