<?xml version="1.0" encoding="UTF-8" standalone="no"?>
<svg width="268px" height="35px" viewBox="0 0 268 35" version="1.1" xmlns="http://www.w3.org/2000/svg" xmlns:xlink="http://www.w3.org/1999/xlink">
    <defs></defs>
    <g stroke="none" stroke-width="1" fill="none" fill-rule="evenodd">
        <g transform="translate(-1.000000, 0.000000)">
            <path d="M233.316,32.982 C232.063,32.509 230.918,31.714 229.87,30.578 C228.82,29.438 227.347,27.364 225.485,24.375 C223.823,21.687 222.385,19.741 221.152,18.52 C220.229,17.61 219.152,16.844 217.932,16.227 C220.092,15.915 221.815,15.269 223.072,14.247 C224.595,13.01 225.362,11.239 225.357,9.067 C225.357,7.76 225.074,6.561 224.5,5.489 C223.93,4.422 223.12,3.521 222.087,2.794 C221.052,2.064 219.794,1.514 218.322,1.137 C216.847,0.757 215.182,0.567 213.334,0.567 C212.331,0.567 211.316,0.614 210.286,0.707 L210.288,0.707 L207.038,0.987 L207.035,0.987 C205.66,1.124 204.119,1.192 202.413,1.192 C201.336,1.192 200.393,1.17 199.583,1.124 L197.531,1.008 L197.521,1.008 C197.363,1.008 197.178,0.998 196.969,0.985 L196.559,0.955 L196.559,2.405 L196.871,2.465 C198.364,2.748 199.421,3.277 200.089,4.015 L200.091,4.015 L200.093,4.018 C200.463,4.418 200.716,4.893 200.858,5.47 C201,6.044 201.081,7.048 201.078,8.44 L201.078,25.942 C201.088,28.122 200.766,29.544 200.282,30.134 L200.278,30.136 L200.276,30.14 C199.591,31.046 198.49,31.647 196.88,31.918 L196.56,31.972 L196.56,33.4 L212.072,33.4 L212.072,31.97 L211.747,31.92 C210.18,31.68 209.047,31.157 208.307,30.39 C207.887,29.923 207.607,29.408 207.459,28.82 C207.311,28.228 207.227,27.26 207.229,25.944 L207.229,16.8 L210.879,16.8 C211.921,16.8 212.731,16.9 213.285,17.082 C213.833,17.262 214.299,17.586 214.707,18.084 C215.122,18.592 215.632,19.45 216.214,20.644 L217.439,23.212 L217.441,23.214 C218.427,25.234 219.581,27.032 220.899,28.604 C222.221,30.174 223.633,31.432 225.139,32.37 L225.142,32.372 L225.145,32.372 C226.351,33.102 227.567,33.612 228.793,33.902 C230.011,34.186 231.471,34.342 233.176,34.375 L233.566,34.385 L233.566,33.076 L233.319,32.982 L233.316,32.982 Z M205.826,2.917 L205.669,3.027 L205.664,3.031 L205.66,3.036 C205.19,3.393 204.872,3.691 204.687,4.011 C204.507,4.333 204.44,4.725 204.44,5.196 C204.44,5.422 204.436,5.582 204.43,5.654 L204.43,5.65 C204.42,5.753 204.416,5.856 204.416,5.96 L204.416,28.427 C204.416,28.529 204.42,28.63 204.43,28.725 C204.434,28.785 204.44,28.952 204.44,29.195 C204.442,29.695 204.515,30.109 204.72,30.441 C204.924,30.755 205.272,31.061 205.796,31.451 L201.35,31.451 C201.886,31.063 202.24,30.765 202.44,30.451 C202.635,30.127 202.7,29.721 202.704,29.216 L202.706,29.216 C202.722,28.946 202.729,28.686 202.729,28.429 L202.729,5.96 C202.729,5.703 202.719,5.442 202.705,5.172 L202.703,5.172 C202.699,4.677 202.621,4.258 202.417,3.917 C202.205,3.574 201.841,3.267 201.317,2.912 L201.117,2.769 C201.74,2.785 202.281,2.795 202.715,2.795 C203.738,2.795 204.89,2.753 206.135,2.677 L205.825,2.917 L205.826,2.917 Z M220.499,4.835 C221.641,6.027 222.199,7.382 222.201,8.975 C222.201,9.697 222.059,10.385 221.777,11.051 C221.497,11.718 221.097,12.307 220.573,12.831 C220.053,13.353 219.38,13.826 218.55,14.244 L218.53,14.252 C218.856,13.926 219.154,13.582 219.388,13.202 C220.1,12.05 220.443,10.595 220.443,8.862 C220.443,7.847 220.281,6.892 219.955,6.005 C219.629,5.115 219.145,4.318 218.512,3.619 C218.37,3.462 218.195,3.329 218.035,3.181 C218.985,3.588 219.817,4.127 220.499,4.836 L220.499,4.835 Z M215.989,14.335 L215.986,14.335 C215.042,14.828 213.359,15.108 210.992,15.105 L207.226,15.105 L207.226,7.445 C207.222,5.852 207.439,4.713 207.803,4.059 C208.138,3.464 208.611,3.029 209.263,2.725 C209.915,2.422 210.753,2.261 211.781,2.262 C213.164,2.262 214.377,2.548 215.437,3.109 C216.497,3.675 217.31,4.459 217.903,5.479 C218.493,6.499 218.791,7.649 218.793,8.949 C218.791,10.211 218.536,11.309 218.036,12.259 C217.533,13.212 216.856,13.891 215.988,14.333 L215.989,14.335 Z M224.092,29.495 C222.24,27.865 220.485,25.448 218.847,22.245 C218.692,21.905 218.533,21.58 218.37,21.27 C218.21,20.96 218.042,20.643 217.872,20.318 C217.312,19.218 216.929,18.502 216.697,18.135 L216.694,18.131 C216.604,17.986 216.484,17.845 216.381,17.701 C216.686,17.891 216.993,18.078 217.277,18.298 C218.047,18.892 218.827,19.688 219.607,20.688 C220.387,21.688 221.274,23.016 222.257,24.66 L222.259,24.66 C223.312,26.396 224.069,27.58 224.534,28.234 C225.006,28.886 225.644,29.644 226.454,30.519 L226.464,30.524 L226.469,30.53 C227.029,31.08 227.522,31.507 227.977,31.865 C226.561,31.295 225.259,30.521 224.094,29.495 L224.092,29.495 Z M257.19,0.985 L257.19,2.418 L257.515,2.468 C258.965,2.69 260.142,3.25 261.087,4.151 C262.183,5.187 262.777,6.956 262.777,9.531 L262.777,20.311 C262.777,22.847 262.484,24.817 261.923,26.197 C261.203,27.96 260.153,29.305 258.757,30.267 C257.363,31.223 255.717,31.703 253.771,31.704 C252.443,31.704 251.174,31.456 249.954,30.954 C248.73,30.457 247.741,29.777 246.964,28.91 C245.53,27.314 244.782,25.05 244.767,22.048 L244.767,8.44 C244.765,7.266 244.833,6.363 244.955,5.757 C245.075,5.161 245.305,4.657 245.635,4.227 C246.357,3.339 247.552,2.737 249.287,2.467 L249.613,2.417 L249.613,0.985 L234.096,0.985 L234.096,2.415 L234.419,2.468 C235.876,2.706 236.927,3.231 237.626,4.013 L237.628,4.015 C238.014,4.445 238.273,4.948 238.406,5.545 C238.544,6.15 238.616,7.125 238.616,8.44 L238.616,19.59 C238.616,23.008 239.049,25.653 239.954,27.547 L239.954,27.549 C240.624,28.936 241.531,30.129 242.669,31.113 C243.804,32.096 245.129,32.849 246.633,33.365 C248.138,33.885 249.785,34.139 251.567,34.139 C253.241,34.139 254.813,33.909 256.274,33.451 C257.737,32.989 259.038,32.311 260.164,31.414 C261.294,30.518 262.222,29.426 262.939,28.149 L262.941,28.146 C263.485,27.166 263.878,26.084 264.117,24.906 C264.357,23.721 264.474,22.186 264.474,20.286 L264.474,8.974 C264.474,7.624 264.612,6.516 264.874,5.654 C265.136,4.798 265.55,4.134 266.118,3.627 C266.688,3.121 267.462,2.727 268.455,2.46 L268.738,2.383 L268.738,0.984 L257.19,0.984 L257.19,0.985 Z M243.95,30.13 C242.025,28.462 240.892,26.207 240.543,23.28 C240.359,21.713 240.27,20.39 240.27,19.315 L240.27,5.92 L240.26,5.887 C240.255,5.849 240.245,5.587 240.245,5.192 C240.245,4.682 240.155,4.242 239.931,3.886 C239.709,3.536 239.349,3.229 238.851,2.904 L238.454,2.63 L243.772,2.63 L243.377,2.903 C242.862,3.243 242.501,3.553 242.281,3.899 C242.071,4.245 241.975,4.672 241.961,5.179 L241.961,20.679 C241.961,22.707 242.101,24.356 242.398,25.645 C242.695,26.935 243.222,28.09 243.983,29.09 C244.913,30.344 246.119,31.34 247.568,32.1 C246.203,31.68 244.995,31.027 243.951,30.125 L243.95,30.13 Z M263.1,3.97 C262.882,3.622 262.654,3.302 262.405,3.048 C262.263,2.904 262.093,2.771 261.923,2.634 L263.933,2.634 C263.623,3.044 263.346,3.487 263.1,3.97 L263.1,3.97 Z M191.102,15.237 C190.806,14.735 190.402,14.325 189.898,14.032 C189.388,13.732 188.812,13.586 188.195,13.586 C187.578,13.586 187.003,13.733 186.495,14.032 C185.992,14.325 185.585,14.734 185.291,15.237 C184.994,15.744 184.843,16.322 184.845,16.939 C184.843,17.553 184.995,18.129 185.292,18.639 C185.586,19.139 185.994,19.549 186.496,19.841 C187.006,20.141 187.58,20.289 188.196,20.289 C188.814,20.289 189.392,20.139 189.9,19.841 C190.403,19.548 190.808,19.141 191.104,18.638 C191.401,18.128 191.549,17.552 191.549,16.938 C191.549,16.32 191.401,15.744 191.104,15.235 L191.102,15.237 Z M188.229,18.654 C188.226,18.79 188.196,18.821 188.196,18.821 C188.196,18.821 188.18,18.847 188.056,18.849 C187.646,18.845 187.289,18.684 186.913,18.277 C186.546,17.874 186.38,17.45 186.375,16.94 C186.38,16.423 186.545,16 186.905,15.595 C187.271,15.193 187.627,15.031 188.055,15.027 C188.179,15.029 188.193,15.053 188.195,15.052 C188.195,15.052 188.225,15.086 188.227,15.222 L188.227,18.654 L188.229,18.654 Z M50.977,1.705 L50.977,2.032 L51.3,2.085 C52.758,2.325 53.807,2.848 54.508,3.631 L54.511,3.635 L54.514,3.638 C54.886,4.038 55.139,4.513 55.281,5.09 C55.421,5.663 55.501,6.668 55.501,8.058 L55.501,25.563 C55.509,27.74 55.187,29.163 54.703,29.753 L54.699,29.756 L54.697,29.759 C54.014,30.664 52.909,31.265 51.301,31.535 L50.979,31.59 L50.979,33.017 L66.19,33.017 L66.19,31.59 L65.868,31.537 C64.411,31.297 63.362,30.774 62.661,29.992 L62.648,29.972 L62.662,29.99 C62.292,29.574 62.032,29.07 61.882,28.452 C61.732,27.834 61.649,26.86 61.649,25.562 L61.649,8.06 C61.649,6.87 61.719,5.95 61.849,5.32 C61.979,4.688 62.189,4.208 62.449,3.866 C63.149,2.958 64.263,2.356 65.873,2.086 L66.193,2.034 L66.193,0.603 L50.978,0.603 L50.978,1.705 L50.977,1.705 Z M55.36,2.251 L60.626,2.251 L60.246,2.533 C59.704,2.935 59.346,3.247 59.141,3.563 L59.141,3.566 C58.936,3.896 58.863,4.31 58.861,4.813 C58.861,5.039 58.857,5.2 58.851,5.273 C58.843,5.373 58.839,5.476 58.839,5.58 L58.839,28.042 C58.839,28.145 58.843,28.245 58.852,28.342 C58.858,28.4 58.862,28.567 58.862,28.807 C58.864,29.311 58.937,29.724 59.142,30.057 C59.345,30.367 59.696,30.674 60.22,31.067 L55.77,31.067 C56.306,30.677 56.66,30.379 56.86,30.067 C57.057,29.74 57.12,29.333 57.125,28.829 C57.141,28.562 57.149,28.299 57.149,28.042 L57.149,5.578 C57.149,5.322 57.139,5.06 57.124,4.79 C57.118,4.272 57.058,3.864 56.856,3.54 C56.651,3.23 56.294,2.934 55.74,2.532 L55.36,2.252 L55.36,2.251 Z M142.64,30.895 C141.968,30.535 141.25,29.91 140.5,29.011 L138.724,26.547 C138.648,26.425 138.574,26.314 138.501,26.217 L138.501,26.214 C138.431,26.124 138.355,26.019 138.265,25.899 L128.915,11.839 L130.243,10.512 L130.749,10.03 L132.997,7.875 C136.34,4.683 139.309,2.743 141.857,2.032 L142.137,1.952 L142.137,0.604 L128.545,0.604 L128.545,2.057 L128.895,2.089 C129.887,2.176 130.643,2.475 131.203,2.969 C131.757,3.459 132.017,4.046 132.023,4.834 C132.023,5.414 131.833,6.019 131.421,6.669 C131.014,7.319 130.244,8.194 129.127,9.263 L129.12,9.271 L120.665,17.511 L120.665,8.057 C120.665,6.867 120.735,5.947 120.865,5.317 C120.997,4.685 121.203,4.205 121.465,3.863 C122.165,2.955 123.279,2.353 124.889,2.083 L125.209,2.031 L125.209,0.603 L109.996,0.603 L109.996,2.032 L110.316,2.085 C111.776,2.325 112.824,2.848 113.524,3.631 L113.527,3.635 L113.529,3.638 C113.899,4.038 114.154,4.513 114.296,5.09 C114.438,5.663 114.516,6.668 114.516,8.058 L114.516,25.563 C114.526,27.74 114.202,29.163 113.718,29.753 L113.713,29.756 L113.711,29.759 C113.028,30.664 111.923,31.265 110.314,31.535 L109.994,31.59 L109.994,33.017 L125.509,33.017 L125.509,31.585 L125.184,31.535 C123.617,31.295 122.487,30.773 121.744,30.007 C121.324,29.54 121.044,29.025 120.896,28.437 C120.746,27.845 120.664,26.874 120.664,25.563 L120.664,19.837 L124.387,16.237 L131.53,26.981 L131.533,26.989 C132.067,27.765 132.421,28.367 132.586,28.761 C132.754,29.161 132.834,29.539 132.834,29.901 C132.826,30.514 132.652,30.835 132.308,31.056 C131.953,31.286 131.145,31.476 129.953,31.534 L129.589,31.552 L129.589,33.02 L145.426,33.02 L145.426,31.556 L145.066,31.533 C144.122,31.473 143.316,31.257 142.64,30.895 L142.64,30.895 Z M134.236,28.28 C133.988,27.778 133.499,26.97 132.753,25.818 L125.6,15.065 L126.85,13.83 L135.687,27.175 L136.397,28.12 L137.761,29.88 C138.077,30.287 138.469,30.682 138.919,31.068 L134.165,31.068 C134.452,30.644 134.625,30.191 134.625,29.713 C134.623,29.261 134.483,28.786 134.238,28.28 L134.236,28.28 Z M136.251,2.228 C135.336,2.93 134.441,3.688 133.561,4.503 C133.525,3.668 133.206,2.896 132.621,2.228 L136.251,2.228 L136.251,2.228 Z M114.381,2.251 L119.648,2.251 L119.268,2.533 C118.758,2.887 118.402,3.195 118.186,3.528 C117.966,3.876 117.884,4.306 117.882,4.813 C117.882,5.039 117.879,5.2 117.872,5.273 C117.864,5.373 117.86,5.476 117.86,5.58 L117.86,28.042 C117.86,28.145 117.864,28.245 117.874,28.342 C117.879,28.4 117.884,28.567 117.884,28.807 C117.884,29.311 117.956,29.724 118.164,30.057 C118.364,30.367 118.716,30.674 119.24,31.067 L114.79,31.067 C115.328,30.677 115.68,30.379 115.88,30.067 C116.08,29.74 116.142,29.333 116.148,28.829 C116.164,28.562 116.171,28.299 116.171,28.042 L116.171,5.578 C116.171,5.322 116.161,5.06 116.147,4.79 C116.141,4.272 116.081,3.864 115.877,3.54 C115.673,3.23 115.315,2.934 114.761,2.532 L114.381,2.252 L114.381,2.251 Z M119.268,31.091 L119.266,31.091 L119.268,31.091 L119.268,31.091 Z M181.716,30.41 C181.066,29.888 180.459,29.084 179.92,27.99 L179.922,27.992 L178.902,25.879 L178.899,25.876 L178.777,25.633 L178.687,25.427 L178.677,25.397 L178.592,25.262 L167.35,0 L166.247,0 L155.9,23.414 C154.75,26.006 153.657,27.904 152.653,29.094 C151.649,30.284 150.465,31.104 149.08,31.574 L148.82,31.664 L148.82,33.018 L161.62,33.018 L161.62,31.6 L161.31,31.54 C160.16,31.312 159.246,31.015 158.575,30.66 C157.903,30.305 157.421,29.872 157.098,29.36 C156.778,28.846 156.611,28.234 156.611,27.488 C156.611,26.63 156.901,25.468 157.511,24.046 L158.706,21.31 L170.144,21.31 L172.614,26.945 C173.104,28.079 173.331,28.903 173.324,29.295 C173.324,29.745 173.21,30.092 172.986,30.385 C172.766,30.677 172.416,30.925 171.906,31.117 C171.436,31.293 170.556,31.443 169.322,31.534 L168.969,31.559 L168.969,33.017 L184.529,33.017 L184.529,31.606 L184.225,31.541 C183.205,31.319 182.375,30.941 181.718,30.411 L181.716,30.41 Z M174.129,26.31 L165.27,6.364 L166.173,4.284 L175.771,25.868 L175.769,25.858 C176.454,27.368 177.053,28.548 177.576,29.411 C177.942,30.015 178.372,30.556 178.834,31.066 L174.414,31.066 C174.861,30.453 175.109,29.853 175.114,29.246 C175.107,28.648 174.844,27.876 174.359,26.812 L174.361,26.816 L174.128,26.306 L174.129,26.31 Z M169.359,19.568 L159.459,19.568 L164.369,8.318 L169.359,19.568 L169.359,19.568 Z M155.269,29.898 C155.429,30.265 155.679,30.66 155.969,31.068 L153.115,31.068 C153.537,30.698 153.905,30.335 154.205,29.968 C154.467,29.651 154.727,29.278 154.985,28.861 C155.045,29.221 155.128,29.571 155.269,29.901 L155.269,29.898 Z" fill="#040D0B"></path>
            <path d="M45.986,31.628 C44.598,31.39 43.62,30.926 43.012,30.282 C42.4,29.64 41.957,28.604 41.732,27.15 C41.609,26.347 41.536,25.86 41.512,25.694 L41.432,25.101 L39.488,7.9 L39.488,7.897 L39.418,7.317 C39.373,6.962 39.351,6.583 39.351,6.18 C39.354,4.913 39.678,4.024 40.281,3.428 C40.885,2.828 41.924,2.388 43.426,2.178 L43.756,2.133 L43.756,0.695 L31.564,0.695 L31.886,1.268 C32.486,2.334 32.766,3.204 32.763,3.838 C32.766,4.466 32.493,5.498 31.913,6.865 L24.818,23.423 L16.218,6.355 C15.438,4.805 15.07,3.662 15.078,3.05 C15.075,2.738 15.203,2.212 15.488,1.527 L15.493,1.515 L15.499,1.499 C15.506,1.476 15.546,1.371 15.606,1.221 L15.818,0.693 L3.643,0.693 L3.643,2.167 L4.013,2.181 C5.123,2.226 6.011,2.477 6.696,2.911 C7.358,3.328 7.973,4.035 8.526,5.041 L7.076,21.63 C6.848,24.205 6.483,26.074 6.016,27.194 C5.571,28.228 4.94,29.128 4.112,29.904 C3.284,30.679 2.335,31.257 1.255,31.642 L1,31.732 L1,33.106 L14.427,33.106 L14.427,31.695 L14.127,31.628 C12.127,31.176 10.735,30.371 9.887,29.245 C9.037,28.119 8.585,26.467 8.585,24.26 C8.585,23.5 8.623,22.69 8.699,21.836 L9.95,7.494 L22.105,31.694 L23.153,31.694 L23.253,31.46 L33.255,7.724 L35.361,26.068 C35.468,26.945 35.521,27.573 35.521,27.926 C35.515,28.833 35.195,29.529 34.507,30.126 C33.817,30.723 32.673,31.24 31.083,31.633 L30.791,31.705 L30.791,33.108 L46.305,33.108 L46.305,31.68 L45.985,31.628 L45.986,31.628 Z M35.922,30.972 C36.448,30.587 36.795,30.29 37,29.996 C37.206,29.689 37.286,29.31 37.287,28.876 C37.287,28.669 37.27,28.386 37.239,28.009 L37.237,27.989 L37.144,27.473 L34.272,2.343 L38.112,2.343 L37.66,2.701 L37.658,2.703 C37.162,3.105 36.821,3.436 36.618,3.765 C36.423,4.089 36.332,4.47 36.332,4.88 C36.332,5.058 36.348,5.338 36.379,5.745 L36.379,5.749 L38.93,27.9 L38.93,27.903 C39.112,29.331 39.446,30.323 40.115,30.87 L40.473,31.16 L35.656,31.16 L35.916,30.976 L35.92,30.972 L35.922,30.972 Z M9.684,3.724 L9.679,3.717 L9.677,3.717 C9.377,3.235 8.974,2.779 8.493,2.344 L12.171,2.344 C12.063,2.664 11.988,2.989 11.989,3.328 C11.996,3.95 12.283,4.758 12.815,5.882 L12.818,5.89 L23.402,26.967 L22.522,29.047 L11.21,6.38 C10.787,5.5 10.28,4.616 9.686,3.727 C9.686,3.727 9.686,3.725 9.684,3.724 L9.684,3.724 Z M5.134,31.16 C5.576,30.784 5.954,30.413 6.25,30.045 C6.54,29.683 6.81,29.248 7.062,28.755 C7.172,29.118 7.302,29.447 7.452,29.738 C7.67,30.152 8.008,30.622 8.462,31.158 L5.134,31.158 L5.134,31.16 Z M94.9,0.387 L94.9,1.788 L95.22,1.836 C96.59,2.041 97.667,2.416 98.458,2.934 C99.246,3.452 99.818,4.169 100.196,5.126 C100.572,6.086 100.771,7.343 100.771,8.899 L100.771,23.54 L82.271,3.77 L81.895,3.348 C81.823,3.263 81.668,3.075 81.435,2.788 C81.217,2.523 81.072,2.358 80.947,2.243 C80.537,1.749 80.157,1.191 79.804,0.573 L79.694,0.385 L70.308,0.385 L70.308,1.743 L70.578,1.823 C71.358,2.053 72.043,2.383 72.641,2.811 C73.221,3.223 74.088,4.015 75.204,5.154 L75.204,21.23 C75.204,22.505 75.158,23.555 75.07,24.374 C74.98,25.189 74.82,25.928 74.59,26.592 L74.587,26.599 C73.931,28.604 72.677,29.919 70.734,30.646 L70.489,30.736 L70.489,32.077 L83.094,32.077 L83.094,30.686 L82.786,30.63 C80.55,30.22 79,29.24 78.032,27.68 C77.622,26.985 77.317,26.143 77.127,25.15 C76.937,24.16 76.839,22.82 76.839,21.142 L76.816,6.88 L101.163,32.802 L102.381,32.802 L102.381,8.9 C102.377,6.435 102.666,4.72 103.163,3.82 C103.647,2.93 104.621,2.252 106.183,1.828 L106.461,1.753 L106.461,0.387 L94.9,0.387 L94.9,0.387 Z M101.938,2 C101.76,2.23 101.61,2.446 101.498,2.64 C101.374,2.857 101.238,3.152 101.088,3.513 C100.836,3.097 100.576,2.743 100.301,2.469 C100.141,2.307 99.947,2.151 99.737,1.999 L101.939,1.999 L101.938,2 Z M74.23,30.17 C74.57,29.806 74.875,29.45 75.1,29.108 C75.318,28.776 75.52,28.378 75.714,27.95 C75.891,28.34 76.074,28.702 76.27,29.012 C76.49,29.36 76.796,29.754 77.144,30.17 L74.23,30.17 L74.23,30.17 Z M74.14,2 L77.34,2 C77.93,3.02 78.685,4.016 79.61,4.986 L100.77,27.588 L100.77,30.048 L76.578,4.223 L76.58,4.223 C75.76,3.34 74.948,2.603 74.14,1.999 L74.14,2 Z" fill="#000000"></path>
        </g>
    </g>
</svg>