<?xml version="1.0" encoding="utf-8"?>
<!-- Generator: Adobe Illustrator 15.0.0, SVG Export Plug-In . SVG Version: 6.00 Build 0)  -->
<!DOCTYPE svg PUBLIC "-//W3C//DTD SVG 1.1//EN" "http://www.w3.org/Graphics/SVG/1.1/DTD/svg11.dtd">
<svg version="1.1" id="Слой_1" xmlns="http://www.w3.org/2000/svg" xmlns:xlink="http://www.w3.org/1999/xlink" x="0px" y="0px"
	 width="29.375px" height="26.292px" viewBox="0 0 29.375 26.292" enable-background="new 0 0 29.375 26.292" xml:space="preserve">
<g>
	<path d="M14.725,4.889H3.041c-1.104,0-2-0.896-2-2s0.896-2,2-2h11.684c1.104,0,2,0.896,2,2S15.829,4.889,14.725,4.889z"/>
</g>
<g>
	<path d="M19.829,15.135H3.041c-1.104,0-2-0.896-2-2s0.896-2,2-2h16.788c1.104,0,2,0.896,2,2S20.934,15.135,19.829,15.135z"/>
</g>
<g>
	<path d="M26.514,25.361H3.041c-1.104,0-2-0.896-2-2s0.896-2,2-2h23.473c1.104,0,2,0.896,2,2S27.618,25.361,26.514,25.361z"/>
</g>
</svg>
