<?xml version="1.0" encoding="UTF-8"?>
<svg width="26px" height="20px" viewBox="0 0 26 20" version="1.1" xmlns="http://www.w3.org/2000/svg" xmlns:xlink="http://www.w3.org/1999/xlink">
    <!-- Generator: Sketch 45.2 (43514) - http://www.bohemiancoding.com/sketch -->
    <title>noun_927420_cc</title>
    <desc>Created with Sketch.</desc>
    <defs></defs>
    <g id="Page-1" stroke="none" stroke-width="1" fill="none" fill-rule="evenodd">
        <g id="04-Карточка-объекта" transform="translate(-1099.000000, -458.000000)" stroke="#4A4A4A" fill-rule="nonzero" fill="#4A4A4A">
            <g id="Group-7" transform="translate(1080.000000, 448.000000)">
                <g id="noun_927420_cc" transform="translate(20.000000, 10.000000)">
                    <g id="Group" transform="translate(0.000000, 0.510256)">
                        <path d="M8.8,0.0966133333 C8.67413333,0.09608 8.59917333,0.173965333 8.55834667,0.23828 L7.3,2.76328 L2.13333333,2.76328 C0.95608,2.76328 0,3.71935733 0,4.89661333 L0,16.6299467 C0,17.8072 0.95608,18.76328 2.13333333,18.76328 L21.8666667,18.76328 C23.04392,18.76328 24,17.8072 24,16.6299467 L24,4.89661333 C24,3.71935733 23.04392,2.76328 21.8666667,2.76328 L16.7,2.76328 L15.4416533,0.23828 C15.3956,0.151432 15.2982933,0.094384 15.2,0.0966133333 L8.8,0.0966133333 Z M8.96666667,0.629946667 L15.0333333,0.629946667 L16.29168,3.14661333 C16.3354133,3.23653067 16.4333333,3.297304 16.5333333,3.29661333 L21.8666667,3.29661333 C22.75768,3.29661333 23.4666667,4.00559733 23.4666667,4.89661333 L23.4666667,16.6299467 C23.4666667,17.52096 22.75768,18.2299467 21.8666667,18.2299467 L2.13333333,18.2299467 C1.24232003,18.2299467 0.533333307,17.52096 0.533333307,16.6299467 L0.533333307,4.89661333 C0.533333307,4.00559733 1.24232003,3.29661333 2.13333333,3.29661333 L7.46666667,3.29661333 C7.56666667,3.29741333 7.66458667,3.23653067 7.70832,3.14661333 L8.96666667,0.629946667 Z M12,5.69661333 C9.20496,5.69661333 6.93333333,7.96820267 6.93333333,10.76328 C6.93333333,13.5583733 9.20493333,15.8299467 12,15.8299467 C14.7950933,15.8299467 17.0666667,13.5583733 17.0666667,10.76328 C17.0666667,7.96820533 14.7950933,5.69661333 12,5.69661333 Z M12,6.22994667 C14.50688,6.22994667 16.5333333,8.25644 16.5333333,10.76328 C16.5333333,13.2701333 14.50688,15.2966133 12,15.2966133 C9.4932,15.2966133 7.46666667,13.2701333 7.46666667,10.76328 C7.46666667,8.25644267 9.49317333,6.22994667 12,6.22994667 Z" id="Shape"></path>
                    </g>
                </g>
            </g>
        </g>
    </g>
</svg>