<?xml version="1.0" encoding="UTF-8"?>
<svg width="127px" height="100px" viewBox="0 0 127 100" version="1.1" xmlns="http://www.w3.org/2000/svg" xmlns:xlink="http://www.w3.org/1999/xlink">
    <!-- Generator: Sketch 46.2 (44496) - http://www.bohemiancoding.com/sketch -->
    <title>Shape</title>
    <desc>Created with Sketch.</desc>
    <defs></defs>
    <g id="Десктоп" stroke="none" stroke-width="1" fill="none" fill-rule="evenodd" opacity="0.200000003">
        <g id="1200-Выдача" transform="translate(-138.000000, -1169.000000)" fill-rule="nonzero" fill="#000000">
            <g id="2-объект" transform="translate(1.000000, 1093.000000)">
                <g id="фото" transform="translate(25.000000, 25.000000)">
                    <g id="photo-camera" transform="translate(112.000000, 51.000000)">
                        <path d="M112.209063,99.8670455 L14.6624162,99.8670455 C6.57624251,99.8670455 0,93.3159091 0,85.2606061 L0,26.0238636 C0,17.9685606 6.57624251,11.4174242 14.6624162,11.4174242 L34.5668144,11.4174242 L36.3090719,5.5625 C37.0201198,2.35871212 39.9601317,0.0071969697 43.4180299,0.0071969697 L83.4561108,0.0071969697 C86.8162874,0.0071969697 89.7901407,2.34659091 90.5772365,5.59166667 L90.6236257,5.79128788 L92.2118862,11.4170455 L112.211344,11.4170455 C120.297518,11.4170455 126.87376,17.9681818 126.87376,26.0234848 L126.87376,85.2598485 C126.871479,93.3159091 120.292955,99.8670455 112.209063,99.8670455 Z M14.6624162,16.2863636 C9.27138024,16.2863636 4.8875988,20.6537879 4.8875988,26.0238636 L4.8875988,85.2602273 C4.8875988,90.6306818 9.27176048,94.9977273 14.6624162,94.9977273 L112.209063,94.9977273 C117.600099,94.9977273 121.98388,90.630303 121.98388,85.2602273 L121.98388,26.0238636 C121.98388,20.6534091 117.599719,16.2863636 112.209063,16.2863636 L88.5098743,16.2863636 L85.8341287,6.77992424 C85.5873533,5.67462121 84.5877036,4.87386364 83.4538293,4.87386364 L43.4153683,4.87386364 C42.2643832,4.87386364 41.2867874,5.65757576 41.0350689,6.78257576 L38.2102695,16.2863636 L14.6624162,16.2863636 Z M63.4395419,85.1507576 C46.335988,85.1507576 32.4211228,71.2916667 32.4211228,54.2556818 C32.4211228,37.2174242 46.3356078,23.3583333 63.4395419,23.3583333 C80.5385329,23.3583333 94.4507365,37.219697 94.4507365,54.2556818 C94.4503563,71.2893939 80.5381527,85.1507576 63.4395419,85.1507576 Z M63.4395419,28.2246212 C49.0311257,28.2246212 37.3087216,39.9 37.3087216,54.2534091 C37.3087216,68.6068182 49.031506,80.2795455 63.4395419,80.2795455 C77.8452964,80.2795455 89.5631377,68.6041667 89.5631377,54.2534091 C89.5627575,39.9 77.8426347,28.2246212 63.4395419,28.2246212 Z M109.054216,25.3227273 C106.561746,25.3227273 104.545335,27.3359848 104.545335,29.8143939 C104.545335,32.2950758 106.561365,34.3056818 109.054216,34.3056818 C111.544404,34.3056818 113.560434,32.294697 113.560434,29.8143939 C113.558153,27.3359848 111.541743,25.3227273 109.054216,25.3227273 Z" id="Shape"></path>
                    </g>
                </g>
            </g>
        </g>
    </g>
</svg>