<?xml version="1.0" encoding="UTF-8" standalone="no"?>
<svg width="21px" height="21px" viewBox="0 0 21 21" version="1.1" xmlns="http://www.w3.org/2000/svg" xmlns:xlink="http://www.w3.org/1999/xlink">
    <!-- Generator: Sketch 39.1 (31720) - http://www.bohemiancoding.com/sketch -->
    <title>noun_393950_cc</title>
    <desc>Created with Sketch.</desc>
    <defs></defs>
    <g id="Page-1" stroke="none" stroke-width="1" fill="none" fill-rule="evenodd">
        <g id="-rublevka/search-copy-16" transform="translate(-761.000000, -263.000000)" fill="#000000">
            <g id="noun_393950_cc" transform="translate(761.000000, 263.000000)">
                <g id="Group">
                    <path d="M18.8125,3.5 L18.375,3.5 L18.375,2.1875 C18.375,0.98175 17.394125,0 16.1875,0 L2.1875,0 C0.980875,0 0,0.98175 0,2.1875 L0,5.6875 C0,6.89325 0.980875,7.875 2.1875,7.875 L16.1875,7.875 C17.394125,7.875 18.375,6.89325 18.375,5.6875 L18.375,4.375 L18.8125,4.375 C19.536125,4.375 20.125,4.963875 20.125,5.6875 L20.125,8.3125 C20.125,9.036125 19.536125,9.625 18.8125,9.625 L10.9375,9.625 C9.8805,9.625 8.997625,10.378375 8.794625,11.375 L8.3125,11.375 C7.588875,11.375 7,11.963875 7,12.6875 L7,19.6875 C7,20.411125 7.588875,21 8.3125,21 L10.0625,21 C10.786125,21 11.375,20.411125 11.375,19.6875 L11.375,12.6875 C11.375,11.963875 10.786125,11.375 10.0625,11.375 L9.7055,11.375 C9.886625,10.866625 10.367875,10.5 10.9375,10.5 L18.8125,10.5 C20.019125,10.5 21,9.51825 21,8.3125 L21,5.6875 C21,4.48175 20.019125,3.5 18.8125,3.5 L18.8125,3.5 Z M17.5,5.6875 C17.5,6.411125 16.911125,7 16.1875,7 L2.1875,7 C1.463875,7 0.875,6.411125 0.875,5.6875 L0.875,2.1875 C0.875,1.463875 1.463875,0.875 2.1875,0.875 L16.1875,0.875 C16.911125,0.875 17.5,1.463875 17.5,2.1875 L17.5,5.6875 L17.5,5.6875 Z M10.5,12.6875 L10.5,19.6875 C10.5,19.929 10.303125,20.125 10.0625,20.125 L8.3125,20.125 C8.071875,20.125 7.875,19.929 7.875,19.6875 L7.875,12.6875 C7.875,12.446 8.071875,12.25 8.3125,12.25 L10.0625,12.25 C10.303125,12.25 10.5,12.446 10.5,12.6875 L10.5,12.6875 Z" id="Shape"></path>
                </g>
            </g>
        </g>
    </g>
</svg>
