<?xml version="1.0" encoding="UTF-8" standalone="no"?>
<svg width="14px" height="13px" viewBox="0 0 14 13" version="1.1" xmlns="http://www.w3.org/2000/svg" xmlns:xlink="http://www.w3.org/1999/xlink">
    <!-- Generator: Sketch 39.1 (31720) - http://www.bohemiancoding.com/sketch -->
    <title>noun_40971_cc copy 5</title>
    <desc>Created with Sketch.</desc>
    <defs></defs>
    <g id="Page-1" stroke="none" stroke-width="1" fill="none" fill-rule="evenodd">
        <g id="websettlements_search" transform="translate(-1031.000000, -840.000000)" fill="#000000">
            <g id="noun_40971_cc-copy-5" transform="translate(1031.000000, 840.000000)">
                <g id="Group">
                    <path d="M6.12461111,12.9707865 C6.08865657,12.9707865 6.05227778,12.9647247 6.01678283,12.9520534 C5.87204545,12.900382 5.78065657,12.7527809 5.796,12.5953933 L6.43522727,6.02696067 L0.306833333,5.15114045 C0.154282828,5.12933989 0.036520202,5.00156742 0.0230151515,4.84308427 C0.009510101,4.68463764 0.103762626,4.53754775 0.25030303,4.48850562 L13.5553586,0.0358230337 C13.6877929,-0.0083988764 13.8329192,0.0377219101 13.9182626,0.15136236 C14.0035707,0.265002809 14.0107121,0.421733146 13.9361869,0.543151685 L6.40369192,12.8122669 C6.34178788,12.9131264 6.23533838,12.9707865 6.12461111,12.9707865 L6.12461111,12.9707865 Z M1.82441919,4.6791236 L6.8409798,5.39605899 C7.0169697,5.42118258 7.14219192,5.58558146 7.12440909,5.76816573 L6.59293939,11.2296994 L12.8876364,0.976679775 L1.82441919,4.6791236 L1.82441919,4.6791236 Z" id="Shape"></path>
                </g>
            </g>
        </g>
    </g>
</svg>
