<svg id="Layer_1" data-name="Layer 1" xmlns="http://www.w3.org/2000/svg" viewBox="0 0 473.72 67.44"><title>logo_rublevka</title><path d="M288,310.6c0,3.53-.63,16.65-14.92,16.65S258,314.14,258,310.6V274.8h-8.76V310.6c0,9.5,3.95,23.87,23.84,23.87s23.68-14.37,23.68-23.87V274.8H288Z" transform="translate(-190.91 -270.16)"/><polygon points="182.74 4.64 173.98 4.64 173.98 63.53 212.57 63.53 212.57 56.31 182.74 56.31 182.74 4.64"/><polygon points="236.05 34.92 261.07 34.92 261.07 27.62 236.05 27.62 236.05 11.87 266.68 11.87 266.68 4.64 227.29 4.64 227.29 63.53 268.18 63.53 268.18 56.31 236.05 56.31 236.05 34.92"/><path d="M649,280.17a5.65,5.65,0,0,0-5.47-5.57h-4.86l0,15.91H642v-4.76h1.5l.21,0h0l2.48,4.76,3.77,0-3-6A5.55,5.55,0,0,0,649,280.17Zm-5.6,2.25H642v-4.47h1.42a2.23,2.23,0,1,1,0,4.47Z" transform="translate(-190.91 -270.16)"/><path d="M661.23,274.58v10a2.53,2.53,0,0,1-5.05,0v-10h-3.38v10.14a6,6,0,0,0,1,3.14,5.94,5.94,0,0,0,10.87-3.14V274.58Z" transform="translate(-190.91 -270.16)"/><path d="M234.79,295.68a20.72,20.72,0,0,0-20.92-20.89h-23v58.89h8.76V282h14.13c6.71,0,12.23,5.73,12.23,13.66s-5.52,13.66-12.23,13.66h-5.13l16.42,24.34h9.71L222.08,315A20.61,20.61,0,0,0,234.79,295.68Z" transform="translate(-190.91 -270.16)"/><path d="M344.94,300.63a15.45,15.45,0,0,0,4.5-10.91c0-8.16-6.39-14.92-14.36-14.92H311.64v58.89h23.44a17.84,17.84,0,0,0,17.6-18.06A18.16,18.16,0,0,0,344.94,300.63Zm-9.86,25.84H320.4V282h14.68c3.08,0,5.6,3.53,5.6,7.69s-3.21,7.62-6.21,7.85h-4.79v7.23h4.94c4.66.23,9.28,5,9.28,10.84C343.92,321.6,340,326.46,335.08,326.46Z" transform="translate(-190.91 -270.16)"/><polygon points="375.37 4.64 351.36 35.95 351.36 4.64 342.61 4.64 342.61 63.53 351.36 63.53 351.36 41.54 374.53 63.53 385.92 63.53 359.58 38.46 385.92 4.64 375.37 4.64"/><path d="M585.23,333.24h9.39l6.45-16.86H622l7.78,16.86h9.39l-29.49-63.09ZM618.61,309H603.9l6.67-17.43Z" transform="translate(-190.91 -270.16)"/><polygon points="303.65 46.02 287.7 4.36 278.31 4.36 302.77 67.44 332.26 4.36 322.87 4.36 303.65 46.02"/></svg>
