<?xml version="1.0" encoding="UTF-8" standalone="no"?>
<svg width="28px" height="28px" viewBox="0 0 28 28" version="1.1" xmlns="http://www.w3.org/2000/svg" xmlns:xlink="http://www.w3.org/1999/xlink">
    <!-- Generator: Sketch 3.8.3 (29802) - http://www.bohemiancoding.com/sketch -->
    <title>noun_331972_cc</title>
    <desc>Created with Sketch.</desc>
    <defs></defs>
    <g id="Page-1" stroke="none" stroke-width="1" fill="none" fill-rule="evenodd">
        <g id="web/open/objec/ver2/country" transform="translate(-679.000000, -678.000000)" stroke-width="0.3" stroke="#000000" fill="#000000">
            <g id="noun_331972_cc" transform="translate(680.000000, 678.000000)">
                <g id="Group">
                    <path d="M15.66,21.7246154 L6.10615385,12.1707692 C5.98153846,12.0461538 5.81538462,12.0046154 5.64923077,12.0876923 C5.48307692,12.1292308 5.4,12.2953846 5.4,12.4615385 L5.4,22.0153846 C5.4,22.2646154 5.56615385,22.4307692 5.81538462,22.4307692 L15.3692308,22.4307692 C15.5353846,22.4307692 15.7015385,22.3476923 15.7430769,22.1815385 C15.8261538,22.0153846 15.7846154,21.8492308 15.66,21.7246154 L15.66,21.7246154 Z M6.23076923,21.6 L6.23076923,13.4584615 L14.3723077,21.6 L6.23076923,21.6 L6.23076923,21.6 Z" id="Shape"></path>
                    <path d="M0.415384615,27 L26.1692308,27 C26.3353846,27 26.5015385,26.9169231 26.5430769,26.7507692 C26.6261538,26.5846154 26.5846154,26.4184615 26.46,26.2938462 L0.706153846,0.54 C0.581538462,0.415384615 0.415384615,0.373846154 0.249230769,0.456923077 C0.0830769231,0.498461538 0,0.664615385 0,0.830769231 L0,26.5846154 C0,26.8338462 0.166153846,27 0.415384615,27 L0.415384615,27 Z M0.830769231,24.5076923 L2.49230769,24.5076923 C2.74153846,24.5076923 2.90769231,24.3415385 2.90769231,24.0923077 C2.90769231,23.8430769 2.74153846,23.6769231 2.49230769,23.6769231 L0.830769231,23.6769231 L0.830769231,22.0153846 L1.66153846,22.0153846 C1.91076923,22.0153846 2.07692308,21.8492308 2.07692308,21.6 C2.07692308,21.3507692 1.91076923,21.1846154 1.66153846,21.1846154 L0.830769231,21.1846154 L0.830769231,19.5230769 L2.49230769,19.5230769 C2.74153846,19.5230769 2.90769231,19.3569231 2.90769231,19.1076923 C2.90769231,18.8584615 2.74153846,18.6923077 2.49230769,18.6923077 L0.830769231,18.6923077 L0.830769231,17.0307692 L1.66153846,17.0307692 C1.91076923,17.0307692 2.07692308,16.8646154 2.07692308,16.6153846 C2.07692308,16.3661538 1.91076923,16.2 1.66153846,16.2 L0.830769231,16.2 L0.830769231,14.5384615 L2.49230769,14.5384615 C2.74153846,14.5384615 2.90769231,14.3723077 2.90769231,14.1230769 C2.90769231,13.8738462 2.74153846,13.7076923 2.49230769,13.7076923 L0.830769231,13.7076923 L0.830769231,12.0461538 L1.66153846,12.0461538 C1.91076923,12.0461538 2.07692308,11.88 2.07692308,11.6307692 C2.07692308,11.3815385 1.91076923,11.2153846 1.66153846,11.2153846 L0.830769231,11.2153846 L0.830769231,9.55384615 L2.49230769,9.55384615 C2.74153846,9.55384615 2.90769231,9.38769231 2.90769231,9.13846154 C2.90769231,8.88923077 2.74153846,8.72307692 2.49230769,8.72307692 L0.830769231,8.72307692 L0.830769231,7.06153846 L1.66153846,7.06153846 C1.91076923,7.06153846 2.07692308,6.89538462 2.07692308,6.64615385 C2.07692308,6.39692308 1.91076923,6.23076923 1.66153846,6.23076923 L0.830769231,6.23076923 L0.830769231,1.82769231 L25.1723077,26.1692308 L0.830769231,26.1692308 L0.830769231,24.5076923 L0.830769231,24.5076923 Z" id="Shape"></path>
                </g>
            </g>
        </g>
    </g>
</svg>
