<?xml version="1.0"?>
<svg xmlns="http://www.w3.org/2000/svg" xmlns:xlink="http://www.w3.org/1999/xlink" version="1.1" viewBox="0 0 224 224" width="64px" height="64px"><g fill="none" fill-rule="nonzero" stroke="none" stroke-width="1" stroke-linecap="butt" stroke-linejoin="miter" stroke-miterlimit="10" stroke-dasharray="" stroke-dashoffset="0" font-family="none" font-weight="none" font-size="none" text-anchor="none" style="mix-blend-mode: normal"><path d="M0,224v-224h224v224z" fill="none"/><g fill="#e43f53"><g id="surface1"><path d="M105,28c-3.66406,0 -7.41016,1.28516 -10.0625,3.9375c-2.65234,2.65234 -3.9375,6.39844 -3.9375,10.0625v7h-42v14h7v112c0,11.51172 9.48828,21 21,21h84c11.51172,0 21,-9.48828 21,-21v-112h7v-14h-42v-7c0,-3.66406 -1.28516,-7.41016 -3.9375,-10.0625c-2.65234,-2.65234 -6.39843,-3.9375 -10.0625,-3.9375zM105,42h28v7h-28zM70,63h98v112c0,3.88282 -3.11718,7 -7,7h-84c-3.88281,0 -7,-3.11718 -7,-7zM84,84v77h14v-77zM112,84v77h14v-77zM140,84v77h14v-77z"/></g></g></g></svg>
