<?xml version="1.0"?>
<svg xmlns="http://www.w3.org/2000/svg" xmlns:xlink="http://www.w3.org/1999/xlink" version="1.1" viewBox="0 0 224 224" width="64px" height="64px"><g fill="none" fill-rule="nonzero" stroke="none" stroke-width="1" stroke-linecap="butt" stroke-linejoin="miter" stroke-miterlimit="10" stroke-dasharray="" stroke-dashoffset="0" font-family="none" font-weight="none" font-size="none" text-anchor="none" style="mix-blend-mode: normal"><path d="M0,224v-224h224v224z" fill="none"/><g fill="#e73d50"><g id="surface1"><path d="M112,21c-50.17578,0 -91,40.82422 -91,91c0,50.17578 40.82422,91 91,91c50.17578,0 91,-40.82422 91,-91c0,-50.17578 -40.82422,-91 -91,-91zM112,35c42.60157,0 77,34.39844 77,77c0,42.60157 -34.39843,77 -77,77c-42.60156,0 -77,-34.39843 -77,-77c0,-42.60156 34.39844,-77 77,-77zM85.53125,75.46875l-10.0625,10.0625l26.46875,26.46875l-26.46875,26.46875l10.0625,10.0625l26.46875,-26.46875l26.46875,26.46875l10.0625,-10.0625l-26.46875,-26.46875l26.46875,-26.46875l-10.0625,-10.0625l-26.46875,26.46875z"/></g></g></g></svg>
