<?xml version="1.0" encoding="UTF-8"?>
<svg width="13px" height="8px" viewBox="0 0 13 8" version="1.1" xmlns="http://www.w3.org/2000/svg" xmlns:xlink="http://www.w3.org/1999/xlink">
    <!-- Generator: Sketch 46.2 (44496) - http://www.bohemiancoding.com/sketch -->
    <title>Shape</title>
    <desc>Created with Sketch.</desc>
    <defs>
        <path d="M6.58659963,5.58696296 L0.612413767,0.096947191 C0.471751016,-0.0323157303 0.246159813,-0.0323157303 0.105497063,0.096947191 C-0.0351656876,0.226210112 -0.0351656876,0.433518571 0.105497063,0.562781492 L5.82489757,5.81866065 L0.105497063,11.0745398 C-0.0351656876,11.2038027 -0.0351656876,11.4111112 0.105497063,11.5403741 C0.174501431,11.6037861 0.267391926,11.637931 0.357628408,11.637931 C0.447864889,11.637931 0.540755385,11.606225 0.609759753,11.5403741 L6.58394562,6.05035834 C6.72460837,5.92353434 6.72460837,5.71378696 6.58659963,5.58696296 L6.58659963,5.58696296 Z" id="path-1"></path>
    </defs>
    <g id="Десктоп" stroke="none" stroke-width="1" fill="none" fill-rule="evenodd">
        <g id="02.1-Выдача-Мобильная" transform="translate(-275.000000, -102.000000)">
            <g id="Group" transform="translate(15.000000, 75.000000)">
                <g id="Сортировать" transform="translate(242.000000, 0.000000)">
                    <g id="prew-copy" transform="translate(24.000000, 31.500000) rotate(90.000000) translate(-24.000000, -31.500000) translate(20.500000, 25.500000)">
                        <g id="Capa_1">
                            <g id="Shape">
                                <use fill="#232323" fill-rule="evenodd" xlink:href="#path-1"></use>
                                <path stroke="#232323" stroke-width="0.3" d="M5.60321403,5.81866065 L0.0040010306,0.673228563 C-0.201333677,0.484534939 -0.201333677,0.175193744 0.0040010306,-0.0134998799 C0.202051971,-0.19550004 0.515858859,-0.19550004 0.713909799,-0.0134998799 L6.68809567,5.47651589 C6.89156436,5.66349473 6.89033192,5.97608184 6.68544165,6.16080541 L0.713317221,11.6488907 C0.618157596,11.7397016 0.489426132,11.787931 0.357628408,11.787931 C0.228443698,11.787931 0.0997420578,11.738803 0.0040010306,11.6508212 C-0.201333677,11.4621276 -0.201333677,11.1527864 0.0040010306,10.9640927 L5.60321403,5.81866065 Z"></path>
                            </g>
                        </g>
                    </g>
                </g>
            </g>
        </g>
    </g>
</svg>