<?xml version="1.0" encoding="UTF-8" standalone="no"?>
<svg width="93px" height="93px" viewBox="0 0 93 93" version="1.1" xmlns="http://www.w3.org/2000/svg" xmlns:xlink="http://www.w3.org/1999/xlink" xmlns:sketch="http://www.bohemiancoding.com/sketch/ns">
    <!-- Generator: Sketch 3.4.3 (16618) - http://www.bohemiancoding.com/sketch -->
    <title>Shape + Oval 1</title>
    <desc>Created with Sketch.</desc>
    <defs></defs>
    <g id="Page-1" stroke="none" stroke-width="1" fill="none" fill-rule="evenodd" sketch:type="MSPage">
        <g id="Shape-+-Oval-1" sketch:type="MSLayerGroup" transform="translate(1.000000, 0.000000)">
            <path d="M16.166724,81.0262796 C17.7905051,80.5925434 19.5175095,80.2104189 21.3695728,79.8868537 C25.0369757,79.1990296 26.9475984,78.816905 27.1004482,78.7404801 C28.3619554,78.0913647 29.1837713,77.211982 29.5639107,76.1033246 C29.8706029,74.6532365 30.17531,73.4105873 30.4820021,72.3783549 C30.9028354,71.080124 31.6085251,70.3337405 32.6020489,70.144167 C33.6719976,69.953601 34.4451794,69.4275595 34.9235794,68.5670349 C33.9191378,68.0965751 32.9732556,66.7397849 32.0869252,64.4976568 C31.193647,62.2575138 30.5236885,58.7608262 30.0810195,54.0095792 C28.7847737,55.4467644 27.8210259,55.3415561 27.1867984,53.6949467 C26.5366904,51.9987109 25.7734339,50.0394542 24.8940512,47.8191618 C24.0047433,45.5919217 23.5759698,43.5959414 23.6047532,41.8312208 C23.6384992,40.1121567 24.4404645,39.376691 26.0116414,39.6238313 C26.2796249,37.9246178 26.412624,37.0353098 26.412624,36.9598775 C26.412624,36.5430143 26.2498489,35.8353396 25.9272763,34.8398307 C25.6037111,33.8343966 25.5650024,32.3346819 25.8111501,30.3396941 C26.0572979,28.3447063 26.0195817,26.5670828 25.6960165,25.0088088 C25.3724513,23.458475 25.648375,21.9587603 26.5277577,20.5106572 C27.5967138,19.0198753 28.3421048,17.7970768 28.762938,16.8412692 C29.5639107,15.0834964 31.9340753,13.4607078 35.8684692,11.9699259 C39.7651468,10.4721962 43.6449515,9.70893968 47.5039129,9.67717868 C47.5039129,9.29703922 48.3445869,9.25733797 50.0269274,9.56303759 C51.9365575,9.98387084 53.9623137,10.8056867 56.1012186,12.0274927 C56.828744,12.4642064 58.0029084,13.5242298 59.6266895,15.2095478 C60.0137767,14.8691096 60.5775345,14.6110515 61.3159777,14.4353735 C61.8519446,14.3212324 62.310494,14.262673 62.6926185,14.262673 C64.5278088,14.262673 65.8061891,15.8110218 66.5327219,18.9057342 C67.0299801,21.1220564 67.2771204,24.523461 67.2771204,29.1079628 C67.2771204,33.1197741 67.2572697,35.2973876 67.2195535,35.641796 C67.1580166,36.0536964 66.9376747,37.295353 66.5605128,39.3667657 C67.2225311,38.9647906 67.7684233,39.0213649 68.1942192,39.5394662 C68.6289479,40.05856 68.8860135,40.4704605 68.9683936,40.7702049 C69.0468036,41.0699493 69.0001546,42.4178068 68.8244766,44.8107996 C68.6458209,47.2087551 68.330196,49.3020035 67.8785943,51.0865746 C67.4309627,52.8701533 66.026531,54.4671361 63.6672842,55.8725603 C63.6672842,59.19754 63.2087348,61.9855602 62.2906434,64.2405912 C61.531357,66.1998479 60.4633934,67.6529136 59.0827824,68.5968108 C59.195931,68.7873768 59.3686314,69.0166515 59.5979061,69.284635 C59.7884721,69.6290433 59.8460389,70.0866002 59.769614,70.6592907 C61.1462549,69.9724591 62.2340691,70.2205919 63.0360344,71.4056742 C63.5332925,72.1292295 64.2032511,73.5634372 65.04194,75.7033345 C65.8061891,77.3082575 67.201688,78.3970643 69.2254592,78.9687623 C70.3718328,79.276447 71.9777483,79.5424454 74.0412208,79.7727126 C74.618874,79.8908238 75.2570715,80.1052106 75.9468808,80.4039625 C85.3084354,72.0686851 91.2100262,59.930028 91.2100262,46.4087749 C91.2100262,21.2739137 70.8343523,0.897247312 45.6975061,0.897247312 C20.5616524,0.897247312 0.185978496,21.2739137 0.185978496,46.4087749 C0.183993434,60.2714588 6.38929876,72.6780993 16.166724,81.0262796 L16.166724,81.0262796 Z" id="Shape" fill="#E1E1E1" sketch:type="MSShapeGroup"></path>
            <circle id="Oval-1" stroke="#E1E1E1" sketch:type="MSShapeGroup" cx="45.5053763" cy="46.4946237" r="45.5053763"></circle>
        </g>
    </g>
</svg>