<?xml version="1.0" encoding="UTF-8" standalone="no"?>
<svg width="1032px" height="145px" viewBox="0 0 1032 145" version="1.1" xmlns="http://www.w3.org/2000/svg" xmlns:xlink="http://www.w3.org/1999/xlink">
    <!-- Generator: Sketch 3.8.3 (29802) - http://www.bohemiancoding.com/sketch -->
    <title>Path 2733</title>
    <desc>Created with Sketch.</desc>
    <defs></defs>
    <g id="Page-1" stroke="none" stroke-width="1" fill="none" fill-rule="evenodd">
        <g id="complexes/search/ver2" transform="translate(-219.000000, -249.000000)" fill="#F5F5F5">
            <polyline id="Path-2733" points="219 393.28456 219 380.79908 243.299494 380.79908 243.299494 335.190844 250.438712 335.190844 250.438712 327.224609 264.6411 327.224609 264.6411 270.722684 300.199999 270.722684 300.199999 365.351602 318.074304 365.351602 318.074304 378.640321 327.809357 378.640321 327.809357 344.43877 331.84211 344.43877 331.84211 325.96229 344.226178 325.96229 344.226178 330.62176 355.834755 330.62176 355.834755 351.128844 367.219299 351.128844 367.219299 363.947436 395.407369 363.947436 395.407369 339.985186 446.187708 339.985186 446.187708 379.940411 487.33114 379.940411 487.33114 331.245314 518.01951 331.245314 518.01951 357.461819 532.093505 357.461819 532.093505 323.272718 543.108617 323.272718 543.108617 296.717481 569.275396 296.717481 569.275396 334.978481 576.215534 334.978481 576.215534 363.165966 608.584723 363.165966 608.584723 349.553068 621.699124 338.887029 635.514207 350.122939 635.514207 378.373305 658.608111 378.373305 658.608111 373.687387 673.442178 373.687387 673.442178 315.972815 711.497079 315.972815 711.497079 338.19388 724.893417 338.19388 724.893417 319.753811 736.270231 319.753811 736.270231 292.801121 739.842544 292.801121 739.842544 285.208767 757.03982 285.208767 757.03982 334.190979 761.584371 334.190979 761.584371 346.822755 781.086889 346.822755 781.086889 332.10068 793.155415 332.10068 793.155415 327.700304 799.642722 327.700304 799.642722 321.050071 816.288751 321.050071 816.288751 328.482269 827.530017 328.482269 827.530017 254.635023 834.009049 254.635023 834.009049 249 862.012881 249 862.012881 259.028707 867.479395 259.028707 867.479395 312.125704 880.732235 312.125704 880.732235 280.709467 919.471143 280.709467 919.471143 327.406667 931.090125 327.406667 931.090125 349.665222 944.399353 349.665222 944.399353 315.12964 950.296071 315.12964 950.296071 280.831022 963.608908 280.831022 963.608908 276.500372 982.677422 276.500372 982.677422 281.853688 992.415343 281.853688 992.415343 308.533167 1019.54972 308.533167 1019.54972 292.551794 1034.9139 280.055998 1051.52678 293.567376 1051.52678 344.330671 1068.72449 344.330671 1068.72449 337.403712 1080.65081 337.403712 1080.65081 332.964945 1111.2929 332.964945 1111.2929 347.972497 1120.37931 347.972497 1120.37931 360.949593 1136.79614 360.949593 1136.79614 285.558625 1141.73765 285.558625 1141.73765 281.396506 1162.71233 281.396506 1162.71233 285.623876 1169.24923 285.623876 1169.24923 361.144037 1186.54128 361.144037 1186.54128 328.86605 1223.16992 328.86605 1223.16992 385.596211 1237.75808 385.596211 1237.75808 379.344394 1251 379.344394 1251 393.559556"></polyline>
        </g>
    </g>
</svg>