<svg xmlns="http://www.w3.org/2000/svg" viewBox="0 0 1024 768"><path fill="#F5F5F5" d="M765.125 316.512v192.773c0 39.844-31.934 72.95-71.19 72.95h-72.95c16.7-9.376 31.055-28.126 42.188-46.876h30.762c13.477 0 24.316-12.013 24.316-26.075V316.512c0-14.062-10.84-24.902-24.315-24.902h-69.727l-32.52-56.25H434.07l-33.105 56.25h-70.898c-13.477 0-24.316 10.84-24.316 24.902v192.773c0 14.062 10.84 26.074 24.317 26.074h30.762c11.13 18.75 25.487 37.5 42.186 46.874h-72.95c-39.257 0-71.19-33.105-71.19-72.95V316.513c0-39.844 31.934-71.777 71.19-71.777h44.24l33.104-56.25h210.938l32.812 56.25h42.773c39.258 0 71.192 31.933 71.192 71.777zm-112.5 125.097c0-77.638-62.988-140.626-140.625-140.626S371.375 363.972 371.375 441.61 434.363 582.233 512 582.233s140.625-62.988 140.625-140.625zm-45.117 0c0 52.733-42.773 95.507-95.508 95.507-52.734 0-95.508-42.773-95.508-95.508S459.265 346.1 512 346.1c52.734.002 95.508 42.775 95.508 95.51z"/></svg>