<?xml version="1.0" encoding="utf-8"?>
<!-- Generator: Adobe Illustrator 15.0.0, SVG Export Plug-In . SVG Version: 6.00 Build 0)  -->
<!DOCTYPE svg PUBLIC "-//W3C//DTD SVG 1.1//EN" "http://www.w3.org/Graphics/SVG/1.1/DTD/svg11.dtd">
<svg version="1.1" id="Слой_1" xmlns="http://www.w3.org/2000/svg" xmlns:xlink="http://www.w3.org/1999/xlink" x="0px" y="0px"
	 width="28.875px" height="23.583px" viewBox="0 0 28.875 23.583" enable-background="new 0 0 28.875 23.583" xml:space="preserve">
<g>
	<path d="M14.608,21.372l-0.072-7.456c-1.764,0.019-3.423,0.15-6.021,1.257C6.1,16.202,2.21,20.087,2.171,20.126l-1.135,1.138
		l0.288-1.581c0.505-2.762,2.717-6.292,5.505-8.786c1.94-1.735,4.115-2.425,7.909-2.478l0.013-7.63l6.805,4.778l6.48,5.123
		l-6.594,5.086L14.608,21.372z M15.521,12.958l-0.004,6.378l5.304-4.341l5.591-4.313l-5.453-4.312l-5.211-3.658l-0.011,6.705h-0.499
		c-3.88,0-5.903,0.583-7.742,2.226c-2.276,2.037-3.851,4.494-4.65,6.464c1.408-1.285,3.613-3.145,5.278-3.854
		c2.954-1.258,4.517-1.27,6.495-1.286L15.521,12.958z"/>
</g>
</svg>
