<?xml version="1.0" encoding="UTF-8" standalone="no"?>
<svg width="15px" height="24px" viewBox="0 0 15 24" version="1.1" xmlns="http://www.w3.org/2000/svg" xmlns:xlink="http://www.w3.org/1999/xlink" xmlns:sketch="http://www.bohemiancoding.com/sketch/ns">
    <!-- Generator: Sketch 3.5.2 (25235) - http://www.bohemiancoding.com/sketch -->
    <title>Shape</title>
    <desc>Created with Sketch.</desc>
    <defs></defs>
    <g id="Page-1" stroke="none" stroke-width="1" fill="none" fill-rule="evenodd" sketch:type="MSPage">
        <g id="all" sketch:type="MSLayerGroup" transform="translate(-682.000000, -4.000000)" fill="#000000">
            <g id="Group" transform="translate(632.000000, 4.000000)" sketch:type="MSShapeGroup">
                <path d="M64.932,16.186 C64.931,12.074 60.16,11.36 58.591,11.123 C58.176,11.06 57.749,11.028 57.322,10.981 C54.819,10.71 53.507,10.497 53.379,8.349 C53.316,7.281 53.568,6.515 54.153,5.894 C55.336,4.636 57.48,4.708 57.72,4.708 L57.725,4.708 C59.708,4.708 60.742,5.181 61.63,5.773 C62.482,6.341 62.55,7.283 62.547,8.22 C62.546,8.402 62.547,8.558 62.556,8.666 L64.55,8.518 C64.544,8.451 64.546,8.386 64.547,8.275 C64.55,7.374 64.557,5.317 62.739,4.106 C61.766,3.457 60.616,2.929 58.874,2.765 L58.874,0.708 L56.874,0.708 L56.874,2.744 C55.78,2.837 53.96,3.186 52.696,4.529 C51.726,5.559 51.284,6.803 51.382,8.428 C51.616,12.363 54.789,12.722 57.107,12.973 C57.505,13.016 57.904,13.089 58.292,13.148 C62.403,13.769 62.932,15.188 62.932,16.301 C62.932,17.695 62.664,18.746 62.09,19.348 C61.383,20.086 60.06,20.707 58.155,20.707 L58.146,20.707 C53.016,20.707 52.975,18.556 52.943,16.93 L50.943,16.848 C50.992,19.269 51.749,22.237 56.875,22.654 L56.875,23.708 L58.875,23.708 L58.875,22.679 C60.999,22.538 62.531,21.783 63.535,20.735 C64.788,19.425 64.932,17.407 64.932,16.186 L64.932,16.186 Z" id="Shape"></path>
            </g>
        </g>
    </g>
</svg>