<svg width="59" height="51" viewBox="0 0 59 51" fill="none" xmlns="http://www.w3.org/2000/svg">
    <path d="M55.4768 9.92952L44.7221 9.40808L44.0964 2.39469C43.966 0.921619 42.6494 -0.108229 41.1111 0.00909572L2.5375 3.17685C0.999253 3.30721 -0.10881 4.54564 0.00851422 6.00567L2.77215 36.7446C2.90251 38.2177 4.23219 39.2476 5.7574 39.1302L7.71281 38.9738L7.39995 44.9443C7.32173 46.5868 8.59926 47.9165 10.32 48.0078L53.352 50.0544C55.0727 50.1326 56.4936 48.9333 56.5849 47.2908L58.3969 12.9669C58.4751 11.3374 57.1846 10.0077 55.4768 9.92952ZM9.21195 10.6204L8.2864 28.193L6.00509 31.4129L3.90629 8.20876V8.14358V8.0784C4.03665 7.4266 4.47987 6.90516 5.15775 6.85301L39.1818 4.0633C39.8597 4.01116 40.4463 4.45438 40.5506 5.09315C40.5506 5.11922 40.5897 5.11922 40.5897 5.14529C40.5897 5.15833 40.6288 5.17137 40.6288 5.19744L40.9808 9.21253L12.4319 7.84375C10.7111 7.79161 9.29017 8.99092 9.21195 10.6204ZM52.7523 41.5028L41.6977 28.5319L36.8223 33.0033L27.8013 22.4702L11.8061 39.5083L13.1619 13.5535V13.5014C13.2922 12.7974 13.9701 12.289 14.7132 12.3281L52.6741 14.1532C53.4302 14.1923 54.0168 14.7659 54.0298 15.4829C54.0298 15.5089 54.0689 15.522 54.0689 15.548L52.7523 41.5028Z" fill="#3174F6"/>
    <path d="M45.8822 25.0252C48.1766 25.0252 50.0538 23.148 50.0538 20.8537C50.0538 18.5593 48.1896 16.6821 45.8822 16.6821C43.5879 16.6821 41.7107 18.5463 41.7107 20.8537C41.7107 23.161 43.5748 25.0252 45.8822 25.0252Z" fill="#3174F6"/>
</svg>
