<svg width="13" height="17" viewBox="0 0 13 17" fill="none" xmlns="http://www.w3.org/2000/svg">
    <path d="M6.5 0C2.90817 0 0 2.85593 0 6.375C0 8.73631 0.812195 9.47422 5.12115 16.2504C5.7571 17.2505 7.24361 17.2493 7.87881 16.2504C12.19 9.47066 13 8.73585 13 6.375C13 2.85225 10.0881 0 6.5 0ZM6.5 15.4063C2.18617 8.62239 1.625 8.19414 1.625 6.375C1.625 3.73439 3.80761 1.59375 6.5 1.59375C9.19239 1.59375 11.375 3.73439 11.375 6.375C11.375 8.18633 10.8616 8.54732 6.5 15.4063Z" fill="#BDBDBD"/>
</svg>
