<?xml version="1.0" encoding="UTF-8" standalone="no"?>
<svg width="27px" height="29px" viewBox="0 0 27 29" version="1.1" xmlns="http://www.w3.org/2000/svg" xmlns:xlink="http://www.w3.org/1999/xlink" xmlns:sketch="http://www.bohemiancoding.com/sketch/ns">
    <!-- Generator: Sketch 3.5.2 (25235) - http://www.bohemiancoding.com/sketch -->
    <title>Shape</title>
    <desc>Created with Sketch.</desc>
    <defs></defs>
    <g id="Page-1" stroke="none" stroke-width="1" fill="none" fill-rule="evenodd" sketch:type="MSPage">
        <g id="all" sketch:type="MSLayerGroup" fill="#000000">
            <g id="Group" sketch:type="MSShapeGroup">
                <path d="M24.404,0.708 L3.345,0.708 C1.983,0.708 0.874,1.85 0.874,3.253 L0.874,26.163 C0.874,27.566 1.982,28.708 3.345,28.708 L24.404,28.708 C25.766,28.708 26.875,27.566 26.875,26.163 L26.875,3.253 C26.875,1.85 25.767,0.708 24.404,0.708 L24.404,0.708 Z M3.346,27.708 C2.535,27.708 1.875,27.015 1.875,26.163 L1.875,3.253 C1.875,2.401 2.535,1.708 3.346,1.708 L19.875,1.708 L19.875,9.796 L18.091,9.774 C17.849,9.747 17.588,9.973 17.585,10.25 C17.582,10.527 17.804,10.717 18.079,10.721 L19.875,10.717 L19.875,21.656 L18.091,21.709 L18.085,21.709 C17.812,21.709 17.588,21.804 17.585,22.078 C17.582,22.354 17.804,22.456 18.079,22.459 L19.875,22.542 L19.875,27.709 L3.346,27.709 L3.346,27.708 Z M25.875,26.164 C25.875,27.016 25.215,27.709 24.404,27.709 L20.875,27.709 L20.875,22.588 L23.516,22.709 L23.522,22.709 C23.795,22.709 24.019,22.41 24.022,22.135 C24.025,21.86 23.803,21.553 23.528,21.55 L20.876,21.627 L20.876,10.714 L23.517,10.708 L23.523,10.708 C23.796,10.708 24.02,10.556 24.023,10.281 C24.026,10.005 23.804,9.845 23.529,9.843 L20.877,9.809 L20.877,1.708 L24.406,1.708 C25.217,1.708 25.877,2.401 25.877,3.253 L25.877,26.164 L25.875,26.164 Z" id="Shape"></path>
            </g>
        </g>
    </g>
</svg>