<?xml version="1.0" encoding="UTF-8" standalone="no"?>
<svg width="68px" height="50px" viewBox="0 0 68 50" version="1.1" xmlns="http://www.w3.org/2000/svg" xmlns:xlink="http://www.w3.org/1999/xlink">
    <!-- Generator: Sketch 3.6.1 (26313) - http://www.bohemiancoding.com/sketch -->
    <title>archivebox</title>
    <desc>Created with Sketch.</desc>
    <defs></defs>
    <g id="Page-1" stroke="none" stroke-width="1" fill="none" fill-rule="evenodd">
        <g id="noun_303390_cc" fill="#000000">
            <g id="archivebox">
                <path d="M50.512,12.268 L17.488,12.268 L17.488,9.768 L50.512,9.768 L50.512,12.268 L50.512,12.268 Z M53.895,16.021 L14.105,16.021 L14.105,18.521 L53.894,18.521 L53.894,16.021 L53.895,16.021 Z M67.25,25.432 L67.25,47.87 C67.25,48.837 66.467,49.62 65.5,49.62 L2.5,49.62 C1.534,49.62 0.75,48.837 0.75,47.87 L0.75,25.432 L0.761,25.438 C0.76,25.195 0.799,24.95 0.901,24.721 L11.257,1.419 C11.538,0.787 12.165,0.38 12.856,0.38 L55.143,0.38 C55.834,0.38 56.461,0.787 56.743,1.419 L67.1,24.721 C67.202,24.95 67.24,25.194 67.239,25.438 L67.25,25.432 L67.25,25.432 Z M5.193,23.682 L22.824,23.682 C23.74,23.682 24.501,24.389 24.569,25.302 C24.934,30.2 29.076,34.038 34,34.038 C38.921,34.038 43.067,30.199 43.439,25.299 C43.508,24.387 44.269,23.682 45.184,23.682 L62.807,23.682 L54.006,3.88 L13.994,3.88 L5.193,23.682 L5.193,23.682 Z M63.75,27.182 L46.702,27.182 C45.482,33.104 40.188,37.538 34,37.538 C27.808,37.538 22.517,33.104 21.304,27.182 L4.25,27.182 L4.25,46.12 L63.75,46.12 L63.75,27.182 L63.75,27.182 Z" id="Shape"></path>
            </g>
        </g>
    </g>
</svg>