<?xml version="1.0" encoding="UTF-8" standalone="no"?>
<svg width="20px" height="20px" viewBox="0 0 20 20" version="1.1" xmlns="http://www.w3.org/2000/svg" xmlns:xlink="http://www.w3.org/1999/xlink" xmlns:sketch="http://www.bohemiancoding.com/sketch/ns">
    <!-- Generator: Sketch 3.4.4 (17249) - http://www.bohemiancoding.com/sketch -->
    <title>Arrow</title>
    <desc>Created with Sketch.</desc>
    <defs></defs>
    <g id="Welcome" stroke="none" stroke-width="1" fill="none" fill-rule="evenodd" sketch:type="MSPage">
        <g id="Task-(Home-View)" sketch:type="MSArtboardGroup" transform="translate(-246.000000, -320.000000)" fill="#757575">
            <g id="Arrow" sketch:type="MSLayerGroup" transform="translate(246.000000, 320.000000)">
                <path d="M10,19.9636957 C4.50608696,19.9636957 0.0363043478,15.4941304 0.0363043478,10 C0.0363043478,4.50586957 4.50608696,0.0363043478 10,0.0363043478 C15.493913,0.0363043478 19.9636957,4.50586957 19.9636957,10 C19.9636957,15.4941304 15.493913,19.9636957 10,19.9636957 L10,19.9636957 Z M10,0.797173913 C4.92565217,0.797173913 0.797173913,4.92543478 0.797173913,10 C0.797173913,15.0745652 4.92565217,19.2028261 10,19.2028261 C15.0745652,19.2028261 19.2028261,15.0743478 19.2028261,10 C19.2028261,4.92565217 15.0745652,0.797173913 10,0.797173913 L10,0.797173913 Z" id="Shape" sketch:type="MSShapeGroup"></path>
                <path d="M8.53565217,14.6923913 C8.43326087,14.6923913 8.33108696,14.6513043 8.25608696,14.5702174 C8.11347826,14.4158696 8.12304348,14.1752174 8.2776087,14.0323913 L12.6443478,10 L8.2776087,5.9673913 C8.12326087,5.82478261 8.11369565,5.58413043 8.25608696,5.42978261 C8.39869565,5.27565217 8.63934783,5.26608696 8.79369565,5.40826087 L13.4630435,9.72043478 C13.541087,9.7923913 13.5854348,9.89369565 13.5854348,10 C13.5854348,10.1063043 13.541087,10.2076087 13.4630435,10.2795652 L8.79369565,14.5915217 C8.72043478,14.6591304 8.62782609,14.6923913 8.53565217,14.6923913 L8.53565217,14.6923913 Z" id="Shape" sketch:type="MSShapeGroup"></path>
            </g>
        </g>
    </g>
</svg>