<?xml version="1.0" encoding="UTF-8" standalone="no"?>
<svg width="27px" height="20px" viewBox="0 0 27 20" version="1.1" xmlns="http://www.w3.org/2000/svg" xmlns:xlink="http://www.w3.org/1999/xlink" xmlns:sketch="http://www.bohemiancoding.com/sketch/ns">
    <!-- Generator: Sketch 3.4 (15588) - http://www.bohemiancoding.com/sketch -->
    <title>Back</title>
    <desc>Created with Sketch.</desc>
    <defs></defs>
    <g id="Welcome" stroke="none" stroke-width="1" fill="none" fill-rule="evenodd" sketch:type="MSPage">
        <g id="Object-(Information)" sketch:type="MSArtboardGroup" transform="translate(-75.000000, -19.000000)" fill="#757575">
            <path d="M100.91266,27.8481805 L78.995288,27.8481805 L85.5497048,20.868559 C85.9797061,20.4413792 85.9797061,19.7486933 85.5497048,19.3203849 C85.1182927,18.893205 84.420528,18.893205 83.9905267,19.3203849 L75,28.9660711 L83.8525538,38.6789098 C84.0681188,38.8927818 84.3497076,39 84.6321429,39 C84.9137317,39 85.1961669,38.8927818 85.4117319,38.6789098 C85.8417333,38.2508835 85.8417333,37.5590441 85.4117319,37.1310178 L78.9244676,30.0371243 L100.91266,30.0371243 C101.520699,30.0371243 102.01475,29.5470243 102.01475,28.9426524 C102.01475,28.3382804 101.520699,27.8481805 100.91266,27.8481805 L100.91266,27.8481805 Z" id="Back" sketch:type="MSShapeGroup"></path>
        </g>
    </g>
</svg>