<?xml version="1.0" encoding="UTF-8" standalone="no"?>
<svg width="34px" height="30px" viewBox="0 0 34 30" version="1.1" xmlns="http://www.w3.org/2000/svg" xmlns:xlink="http://www.w3.org/1999/xlink" xmlns:sketch="http://www.bohemiancoding.com/sketch/ns">
    <!-- Generator: Sketch 3.5.2 (25235) - http://www.bohemiancoding.com/sketch -->
    <title>calendar</title>
    <desc>Created with Sketch.</desc>
    <defs></defs>
    <g id="Page-1" stroke="none" stroke-width="1" fill="none" fill-rule="evenodd" sketch:type="MSPage">
        <g id="all" sketch:type="MSLayerGroup" transform="translate(0.000000, -3.000000)" fill="#000000">
            <g id="Group" sketch:type="MSShapeGroup">
                <g id="calendar" transform="translate(0.000000, 3.000000)">
                    <g transform="translate(0.000000, 3.000000)">
                        <path d="M31.828,0.708 L29.875,0.708 C29.599,0.708 29.375,0.932 29.375,1.208 C29.375,1.484 29.599,1.708 29.875,1.708 L31.828,1.708 C32.626,1.708 32.875,1.84 32.875,2.667 L32.875,6.712 C32.834,6.701 32.795,6.687 32.75,6.687 L1.875,6.708 L1.875,2.709 C1.875,2.011 3.193,1.708 3.865,1.708 L5.875,1.708 C6.151,1.708 6.375,1.484 6.375,1.208 C6.375,0.932 6.151,0.708 5.875,0.708 L3.865,0.708 C2.709,0.708 0.875,1.251 0.875,2.709 L0.875,23.388 C0.875,24.515 1.931,26.708 3.865,26.708 L26.875,26.708 L31.132,26.708 C32.156,26.708 33.875,26.27 33.875,23.344 L33.875,18.708 L33.875,2.667 C33.875,0.708 32.388,0.708 31.828,0.708 L31.828,0.708 Z M32.875,23.344 C32.875,25.463 31.88,25.708 31.132,25.708 L26.875,25.708 L3.865,25.708 C2.581,25.708 1.875,23.965 1.875,23.388 L1.875,7.708 L32.75,7.687 C32.795,7.687 32.834,7.672 32.875,7.662 L32.875,18.709 L32.875,23.344 L32.875,23.344 Z"></path>
                        <path d="M13.875,1.708 L21.875,1.708 C22.151,1.708 22.375,1.484 22.375,1.208 C22.375,0.932 22.151,0.708 21.875,0.708 L13.875,0.708 C13.599,0.708 13.375,0.932 13.375,1.208 C13.375,1.484 13.599,1.708 13.875,1.708 L13.875,1.708 Z" id="Shape"></path>
                    </g>
                    <path d="M10.106,5.708 L10.11,5.708 C10.385,5.708 10.608,5.438 10.606,5.162 L10.579,1.366 C10.577,1.092 10.353,0.708 10.079,0.708 L10.075,0.708 C9.8,0.708 9.577,1.078 9.579,1.354 L9.606,5.25 C9.608,5.526 9.832,5.708 10.106,5.708 L10.106,5.708 Z" id="Shape"></path>
                    <path d="M26.106,5.708 L26.11,5.708 C26.385,5.708 26.608,5.438 26.606,5.162 L26.579,1.366 C26.577,1.092 26.353,0.708 26.079,0.708 L26.075,0.708 C25.8,0.708 25.577,1.078 25.579,1.354 L25.606,5.25 C25.608,5.526 25.832,5.708 26.106,5.708 L26.106,5.708 Z" id="Shape"></path>
                </g>
            </g>
        </g>
    </g>
</svg>