<?xml version="1.0" encoding="UTF-8" standalone="no"?>
<svg width="33px" height="30px" viewBox="0 0 33 30" version="1.1" xmlns="http://www.w3.org/2000/svg" xmlns:xlink="http://www.w3.org/1999/xlink" xmlns:sketch="http://www.bohemiancoding.com/sketch/ns">
    <!-- Generator: Sketch 3.5.2 (25235) - http://www.bohemiancoding.com/sketch -->
    <title>cityProperties</title>
    <desc>Created with Sketch.</desc>
    <defs></defs>
    <g id="Page-1" stroke="none" stroke-width="1" fill="none" fill-rule="evenodd" sketch:type="MSPage">
        <g id="all" sketch:type="MSLayerGroup" transform="translate(-173.000000, -5.000000)" fill="#000000">
            <g id="Group" sketch:type="MSShapeGroup">
                <g id="cityProperties" transform="translate(173.000000, 5.000000)">
                    <path d="M23.375,0.708 L8.375,0.708 C8.099,0.708 7.875,0.932 7.875,1.208 L7.875,8.708 C7.875,8.984 8.099,9.208 8.375,9.208 C8.651,9.208 8.875,8.984 8.875,8.708 L8.875,1.708 L22.875,1.708 L22.875,28.708 C22.875,28.984 23.099,29.208 23.375,29.208 C23.651,29.208 23.875,28.984 23.875,28.708 L23.875,1.208 C23.875,0.932 23.651,0.708 23.375,0.708 L23.375,0.708 Z" id="Shape"></path>
                    <path d="M15.375,11.708 L1.375,11.708 C1.099,11.708 0.875,11.932 0.875,12.208 L0.875,28.708 C0.875,28.984 1.099,29.208 1.375,29.208 C1.651,29.208 1.875,28.984 1.875,28.708 L1.875,12.708 L14.875,12.708 L14.875,28.708 C14.875,28.984 15.099,29.208 15.375,29.208 C15.651,29.208 15.875,28.984 15.875,28.708 L15.875,12.208 C15.875,11.932 15.651,11.708 15.375,11.708 L15.375,11.708 Z" id="Shape"></path>
                    <path d="M32.312,8.708 L26.874,8.708 C26.598,8.708 26.374,8.932 26.374,9.208 C26.374,9.484 26.598,9.708 26.874,9.708 L31.874,9.708 L31.874,28.708 C31.874,28.984 32.098,29.208 32.374,29.208 C32.65,29.208 32.874,28.984 32.874,28.708 L32.874,9.708 C32.887,9.382 33,8.833 32.312,8.708 L32.312,8.708 Z" id="Shape"></path>
                </g>
            </g>
        </g>
    </g>
</svg>