<?xml version="1.0" encoding="UTF-8" standalone="no"?>
<svg width="37px" height="30px" viewBox="0 0 37 30" version="1.1" xmlns="http://www.w3.org/2000/svg" xmlns:xlink="http://www.w3.org/1999/xlink" xmlns:sketch="http://www.bohemiancoding.com/sketch/ns">
    <!-- Generator: Sketch 3.5.2 (25235) - http://www.bohemiancoding.com/sketch -->
    <title>contacts</title>
    <desc>Created with Sketch.</desc>
    <defs></defs>
    <g id="Page-1" stroke="none" stroke-width="1" fill="none" fill-rule="evenodd" sketch:type="MSPage">
        <g id="all" sketch:type="MSLayerGroup" transform="translate(-326.000000, 0.000000)" fill="#000000">
            <g id="Group" sketch:type="MSShapeGroup">
                <g id="contacts" transform="translate(326.000000, 0.000000)">
                    <path d="M10.434,25.072 C10.483,25.087 10.532,25.093 10.58,25.093 C10.794,25.093 10.992,24.954 11.059,24.739 C11.093,24.626 11.12,24.522 11.143,24.425 C11.206,24.171 11.236,24.055 11.38,23.912 C11.515,23.789 11.847,23.722 12.113,23.668 C12.269,23.637 12.419,23.605 12.557,23.564 C12.821,23.483 13.104,23.41 13.394,23.335 C14.416,23.07 15.576,22.77 16.373,22.007 C16.977,21.427 16.98,20.529 16.983,19.809 C16.984,19.664 16.984,19.527 16.99,19.403 C17.037,18.551 16.428,17.989 15.985,17.579 L15.898,17.499 C15.456,17.086 15.235,16.696 15.107,16.103 C15.004,15.647 14.978,15.166 14.95,14.659 L14.927,13.957 C14.893,13.405 14.875,12.852 14.875,12.3 L14.875,11.196 C14.875,11.066 14.852,10.935 14.847,10.804 C14.836,10.56 14.818,10.328 14.849,10.121 C14.885,9.869 15.022,9.655 15.243,9.32 C15.827,8.433 16.366,7.999 17.054,7.864 C17.497,7.776 18.006,7.76 18.462,7.76 C18.504,7.76 18.542,7.78 18.587,7.76 C18.608,7.76 18.626,7.724 18.647,7.722 C18.668,7.724 18.686,7.707 18.708,7.707 L18.711,7.707 C19.201,7.707 19.761,7.741 20.246,7.837 C20.93,7.971 21.471,8.42 22.096,9.365 C22.277,9.636 22.419,9.858 22.455,10.112 C22.485,10.319 22.686,10.555 22.677,10.8 C22.671,10.931 22.877,11.065 22.877,11.194 L22.877,12.298 C22.877,12.921 22.625,13.545 22.584,14.168 L22.453,14.605 C22.425,15.132 22.346,15.63 22.239,16.108 C22.116,16.684 21.86,17.087 21.42,17.498 L21.32,17.58 C20.879,17.989 20.267,18.551 20.309,19.403 C20.316,19.536 20.313,19.681 20.314,19.834 C20.318,20.546 20.322,21.432 20.918,22.009 C21.72,22.771 22.879,23.071 23.902,23.335 C24.192,23.41 24.475,23.483 24.745,23.566 C24.878,23.605 25.027,23.636 25.183,23.668 C25.451,23.722 25.783,23.788 25.903,23.899 C26.06,24.053 26.087,24.161 26.151,24.42 C26.175,24.519 26.202,24.624 26.238,24.74 C26.304,24.955 26.502,25.093 26.716,25.093 C26.765,25.093 26.815,25.086 26.863,25.071 C27.127,24.99 27.275,24.71 27.193,24.446 C27.164,24.349 27.142,24.262 27.122,24.18 C27.044,23.865 26.963,23.539 26.594,23.176 C26.256,22.863 25.791,22.771 25.381,22.688 C25.255,22.663 25.133,22.639 25.033,22.61 C24.755,22.524 24.457,22.447 24.151,22.368 C23.201,22.122 22.218,21.868 21.608,21.288 C21.316,21.006 21.313,20.381 21.31,19.83 C21.309,19.659 21.308,19.496 21.299,19.351 C21.282,18.994 21.56,18.708 21.986,18.313 L22.076,18.229 C22.67,17.673 22.996,17.102 23.163,16.322 C23.286,15.766 23.315,15.204 23.345,14.66 L23.58,14.235 C23.623,13.59 23.876,12.944 23.876,12.299 L23.876,11.195 C23.876,11.08 23.67,10.963 23.675,10.845 C23.687,10.565 23.593,10.276 23.55,9.977 C23.482,9.5 23.191,9.142 22.943,8.769 C22.447,8.017 21.693,7.123 20.465,6.883 C19.894,6.77 19.251,6.76 18.718,6.76 C18.697,6.76 18.673,6.77 18.654,6.772 C18.634,6.77 18.613,6.76 18.592,6.76 C18.061,6.762 17.43,6.77 16.861,6.883 C15.629,7.123 14.901,8.017 14.362,8.834 C14.156,9.148 13.922,9.504 13.853,9.974 C13.808,10.275 13.836,10.565 13.849,10.846 C13.854,10.962 13.876,11.079 13.876,11.195 L13.876,12.299 C13.876,12.871 13.894,13.445 13.93,14.019 L13.962,14.713 C13.991,15.24 14.017,15.785 14.136,16.317 C14.306,17.105 14.628,17.676 15.22,18.228 L15.308,18.312 C15.736,18.707 16.013,18.992 15.994,19.35 C15.988,19.49 15.986,19.644 15.985,19.804 C15.982,20.364 15.98,20.998 15.682,21.284 C15.075,21.866 14.093,22.12 13.145,22.366 C12.839,22.445 12.541,22.522 12.271,22.606 C12.165,22.637 12.043,22.661 11.917,22.686 C11.508,22.768 11.045,22.862 10.691,23.186 C10.334,23.54 10.252,23.867 10.173,24.182 C10.152,24.263 10.131,24.35 10.102,24.445 C10.021,24.71 10.17,24.991 10.434,25.072 L10.434,25.072 Z" id="Shape"></path>
                    <path d="M30.907,2.362 C30.631,2.362 30.407,2.586 30.407,2.862 C30.407,3.138 30.631,3.362 30.907,3.362 C34.116,3.362 34.435,3.841 35.113,4.861 C35.518,5.466 35.486,6.337 35.451,7.272 C35.422,8.212 35.332,24.262 35.433,25.566 C35.478,26.148 35.211,27.138 34.747,27.594 C33.775,28.545 33.777,28.545 32.375,28.556 C26.489,28.595 5.348,28.662 4.268,28.438 C3.754,28.328 3.074,28.069 2.695,27.74 C1.992,27.131 1.875,26.37 1.875,25.177 L1.875,23.742 C1.875,20.246 1.872,10.96 1.858,9.701 L1.836,9.291 C1.815,8.114 1.767,5.359 2.256,4.818 L2.358,4.707 C2.869,4.139 3.449,3.496 4.376,3.433 L6.05,3.36 C6.326,3.347 6.54,3.114 6.529,2.839 C6.516,2.564 6.275,2.365 6.008,2.36 L4.322,2.434 C2.979,2.526 2.193,3.4 1.618,4.038 L1.52,4.147 C0.823,4.918 0.805,7.029 0.845,9.309 L0.86,9.714 C0.874,10.965 0.877,20.247 0.877,23.741 L0.877,25.177 C0.877,26.338 0.951,27.55 2.041,28.495 C2.59,28.971 3.433,29.282 4.054,29.416 C4.725,29.56 11.447,29.597 18.18,29.597 C25.218,29.597 32.271,29.557 32.437,29.556 C34.123,29.542 34.235,29.496 35.502,28.255 C36.157,27.61 36.495,26.317 36.432,25.488 C36.342,24.332 36.407,8.779 36.455,7.216 C36.491,6.262 36.532,5.18 35.906,4.243 C35.081,3.007 34.485,2.362 30.907,2.362 L30.907,2.362 Z" id="Shape"></path>
                    <path d="M12.643,3.447 L13.031,3.531 C13.302,3.529 13.59,3.709 13.937,3.709 L14.168,3.709 C15.134,3.709 18.459,3.497 21.185,3.466 C22.825,3.447 24.156,3.258 24.389,3.258 C24.665,3.258 24.889,3.035 24.889,2.759 C24.889,2.483 24.665,2.259 24.389,2.259 C24.156,2.259 22.819,2.277 21.173,2.295 C18.308,2.329 14.39,2.379 13.959,2.366 C13.601,2.358 13.301,2.366 13.021,2.368 L12.643,2.382 C12.367,2.382 12.143,2.628 12.143,2.904 C12.143,3.18 12.366,3.447 12.643,3.447 L12.643,3.447 Z" id="Shape"></path>
                    <path d="M9.295,4.708 L9.3,4.708 C9.576,4.708 9.798,4.627 9.795,4.351 L9.759,0.967 C9.756,0.691 9.512,0.47 9.254,0.452 C8.978,0.455 8.756,0.641 8.759,0.917 L8.795,4.37 C8.798,4.645 9.021,4.708 9.295,4.708 L9.295,4.708 Z" id="Shape"></path>
                    <path d="M27.375,4.208 C27.651,4.208 27.875,3.984 27.875,3.708 L27.875,0.708 C27.875,0.432 27.651,0.208 27.375,0.208 C27.099,0.208 26.875,0.432 26.875,0.708 L26.875,3.708 C26.875,3.985 27.099,4.208 27.375,4.208 L27.375,4.208 Z" id="Shape"></path>
                </g>
            </g>
        </g>
    </g>
</svg>