<?xml version="1.0" encoding="UTF-8" standalone="no"?>
<svg width="30px" height="29px" viewBox="0 0 30 29" version="1.1" xmlns="http://www.w3.org/2000/svg" xmlns:xlink="http://www.w3.org/1999/xlink" xmlns:sketch="http://www.bohemiancoding.com/sketch/ns">
    <!-- Generator: Sketch 3.5.2 (25235) - http://www.bohemiancoding.com/sketch -->
    <title>countryProperties</title>
    <desc>Created with Sketch.</desc>
    <defs></defs>
    <g id="Page-1" stroke="none" stroke-width="1" fill="none" fill-rule="evenodd" sketch:type="MSPage">
        <g id="all" sketch:type="MSLayerGroup" transform="translate(-372.000000, -1.000000)" fill="#000000">
            <g id="Group" sketch:type="MSShapeGroup">
                <g id="countryProperties" transform="translate(372.000000, 0.000000)">
                    <path d="M28.662,12.552 C28.601,12.503 28.53,12.444 28.428,12.352 L16.261,1.487 C15.516,0.817 14.292,0.81 13.537,1.473 L8.419,5.968 C7.851,6.468 6.92,7.288 6.352,7.792 L1.223,12.355 C0.847,12.691 0.691,12.861 0.691,12.861 C0.504,13.064 0.517,13.38 0.719,13.567 C0.922,13.754 1.235,13.743 1.424,13.542 C1.435,13.53 1.573,13.384 1.888,13.102 L7.015,8.539 C7.582,8.038 8.511,7.218 9.079,6.72 L14.198,2.224 C14.578,1.889 15.216,1.893 15.594,2.232 L27.762,13.098 C27.877,13.201 27.957,13.267 28.025,13.323 C28.111,13.395 28.171,13.444 28.277,13.556 C28.376,13.66 28.508,13.713 28.641,13.713 C28.764,13.713 28.887,13.668 28.984,13.577 C29.185,13.388 29.195,13.071 29.005,12.87 C28.861,12.718 28.78,12.65 28.662,12.552 L28.662,12.552 Z" id="Shape"></path>
                    <path d="M24.375,15.208 C24.099,15.208 23.875,15.432 23.875,15.708 L23.875,27.193 C23.875,27.719 23.067,28.676 22.625,28.676 L8.062,28.63 C7.465,28.63 5.882,27.845 5.881,26.879 L5.359,15.45 C5.347,15.175 5.162,14.951 4.838,14.973 C4.562,14.985 4.349,15.219 4.361,15.494 L4.882,26.902 C4.882,28.572 7.117,29.631 8.06,29.631 L22.623,29.677 C23.688,29.677 24.875,28.197 24.875,27.194 L24.875,15.708 C24.875,15.432 24.651,15.208 24.375,15.208 L24.375,15.208 Z" id="Shape"></path>
                </g>
            </g>
        </g>
    </g>
</svg>