<?xml version="1.0" encoding="UTF-8" standalone="no"?>
<svg width="29px" height="29px" viewBox="0 0 29 29" version="1.1" xmlns="http://www.w3.org/2000/svg" xmlns:xlink="http://www.w3.org/1999/xlink" xmlns:sketch="http://www.bohemiancoding.com/sketch/ns">
    <!-- Generator: Sketch 3.5.2 (25235) - http://www.bohemiancoding.com/sketch -->
    <title>Shape</title>
    <desc>Created with Sketch.</desc>
    <defs></defs>
    <g id="Page-1" stroke="none" stroke-width="1" fill="none" fill-rule="evenodd" sketch:type="MSPage">
        <g id="all" sketch:type="MSLayerGroup" transform="translate(-35.000000, 0.000000)" fill="#000000">
            <g id="Group" sketch:type="MSShapeGroup">
                <path d="M56.11,1.992 C51.272,-0.476 45.568,0.014 41.215,3.266 C41.204,3.274 41.2,3.286 41.191,3.293 C41.181,3.302 41.168,3.306 41.158,3.315 C38.898,5.621 34.172,10.439 35.872,17.524 C36.275,19.43 37.062,21.2 38.163,22.753 C38.165,22.756 38.167,22.76 38.169,22.763 C38.172,22.767 38.176,22.769 38.178,22.773 C39.475,24.595 41.197,26.119 43.267,27.175 C45.319,28.221 47.506,28.716 49.665,28.716 C54.812,28.716 59.785,25.896 62.28,21.004 C65.821,14.063 63.053,5.534 56.11,1.992 L56.11,1.992 Z M41.465,4.433 L48.983,14.473 L38.738,21.78 C37.792,20.197 37.19,18.712 36.851,17.322 C36.746,16.827 36.661,16.324 36.612,15.811 C36.607,15.756 36.587,15.707 36.565,15.661 C36.027,10.368 39.32,6.642 41.465,4.433 L41.465,4.433 Z M61.39,20.55 C58.099,27.003 50.175,29.576 43.722,26.285 C41.956,25.384 40.475,24.11 39.308,22.6 L49.98,14.99 C50.09,14.912 50.164,14.793 50.184,14.66 C50.205,14.526 50.17,14.39 50.09,14.283 L42.227,3.78 C46.214,1.022 51.312,0.667 55.656,2.882 C62.107,6.173 64.68,14.1 61.39,20.55 L61.39,20.55 Z" id="Shape"></path>
            </g>
        </g>
    </g>
</svg>