<?xml version="1.0" encoding="UTF-8" standalone="no"?>
<svg width="53px" height="30px" viewBox="0 0 53 30" version="1.1" xmlns="http://www.w3.org/2000/svg" xmlns:xlink="http://www.w3.org/1999/xlink" xmlns:sketch="http://www.bohemiancoding.com/sketch/ns">
    <!-- Generator: Sketch 3.5.2 (25235) - http://www.bohemiancoding.com/sketch -->
    <title>Group 2</title>
    <desc>Created with Sketch.</desc>
    <defs></defs>
    <g id="Page-1" stroke="none" stroke-width="1" fill="none" fill-rule="evenodd" sketch:type="MSPage">
        <g id="all" sketch:type="MSLayerGroup" transform="translate(-111.000000, 0.000000)" fill="#000000">
            <g id="Group" sketch:type="MSShapeGroup">
                <g id="Group-2" transform="translate(111.000000, 0.000000)">
                    <path d="M51.875,4.25 C51.875,3.868 51.988,3.142 52.031,2.894 C52.073,2.655 51.937,2.42 51.71,2.337 C48.712,1.248 45.556,0.719 42.063,0.719 C37.155,0.719 32.187,1.782 27.382,2.809 C22.53,3.846 17.513,4.919 12.507,4.919 C8.872,4.919 5.577,4.36 2.43,3.21 C1.602,2.916 0.875,3.418 0.875,4.25 L0.875,26.423 C0.875,26.512 0.869,26.606 0.864,26.7 C0.837,27.177 0.792,27.973 1.552,28.254 C4.707,29.405 7.999,29.965 11.615,29.965 C16.751,29.965 21.868,28.762 26.817,27.654 C31.713,26.558 36.776,25.368 41.8,25.368 C45.301,25.368 48.482,25.795 51.527,26.907 C51.583,26.928 51.641,26.709 51.699,26.709 L51.719,26.709 C51.961,26.709 52.153,26.701 52.199,26.517 C52.197,22.863 52.116,19.094 52.037,15.447 C51.957,11.755 51.875,7.939 51.875,4.25 L51.875,4.25 Z M41.801,24.482 C36.666,24.482 31.548,25.628 26.6,26.735 C21.704,27.832 16.641,28.964 11.616,28.964 C8.119,28.964 4.939,28.424 1.887,27.312 C1.835,27.24 1.853,26.925 1.863,26.756 C1.87,26.642 1.876,26.529 1.876,26.422 L1.876,4.25 C1.876,4.169 1.894,4.131 1.94,4.12 C1.969,4.12 2.02,4.125 2.089,4.15 C5.346,5.34 8.753,5.919 12.507,5.919 C17.618,5.919 22.689,4.835 27.592,3.786 C32.345,2.769 37.26,1.719 42.063,1.719 C45.288,1.719 48.209,2.184 50.981,3.14 C50.932,3.471 50.876,3.929 50.876,4.25 C50.876,7.95 50.958,11.772 51.038,15.468 C51.112,18.925 51.189,22.491 51.199,25.96 C48.246,24.966 45.164,24.482 41.801,24.482 L41.801,24.482 Z" id="Shape"></path>
                    <path d="M27.815,14.903 C27.505,14.856 27.188,14.822 26.871,14.788 C24.955,14.581 23.774,14.361 23.664,12.541 C23.613,11.673 23.833,10.972 24.318,10.456 C25.052,9.677 26.328,9.399 27.196,9.398 C28.765,9.398 29.584,9.857 30.288,10.327 C31.036,10.825 31.097,11.692 31.096,12.466 C31.095,12.595 31.096,12.701 31.103,12.779 C31.125,13.054 31.362,13.247 31.643,13.235 C31.917,13.213 32.122,12.97 32.099,12.695 C32.094,12.639 32.096,12.561 32.096,12.468 C32.097,11.775 32.1,10.332 30.843,9.494 C30.152,9.033 29.301,8.544 27.875,8.425 L27.875,6.708 C27.875,6.432 27.651,6.208 27.375,6.208 C27.099,6.208 26.875,6.432 26.875,6.708 L26.875,8.41 C26.165,8.455 24.617,8.679 23.591,9.768 C22.909,10.492 22.598,11.443 22.666,12.597 C22.834,15.354 25.013,15.586 26.764,15.776 C27.068,15.809 27.371,15.838 27.666,15.881 C30.237,16.271 31.384,17.06 31.384,18.458 C31.386,19.601 31.153,20.35 30.649,20.854 C30.052,21.452 29.029,21.708 27.521,21.708 L27.517,21.708 C23.712,21.708 23.369,20.532 23.337,18.949 C23.331,18.677 23.108,18.708 22.837,18.708 L22.827,18.708 C22.551,18.708 22.331,18.693 22.337,18.969 C22.374,20.844 22.969,22.533 26.899,22.693 C26.861,22.762 26.835,22.839 26.836,22.926 L26.86,24.29 C26.865,24.563 27.088,24.708 27.36,24.708 L27.369,24.708 C27.645,24.708 27.865,24.544 27.86,24.268 L27.836,22.936 C27.834,22.847 27.805,22.768 27.764,22.695 C29.415,22.663 30.603,22.318 31.358,21.562 C32.061,20.857 32.388,19.9 32.385,18.476 C32.384,15.595 28.946,15.074 27.815,14.903 L27.815,14.903 Z" id="Shape"></path>
                </g>
            </g>
        </g>
    </g>
</svg>