<?xml version="1.0" encoding="utf-8"?>
<!-- Generator: Adobe Illustrator 15.0.0, SVG Export Plug-In . SVG Version: 6.00 Build 0)  -->
<!DOCTYPE svg PUBLIC "-//W3C//DTD SVG 1.1//EN" "http://www.w3.org/Graphics/SVG/1.1/DTD/svg11.dtd">
<svg version="1.1" id="Слой_1" xmlns="http://www.w3.org/2000/svg" xmlns:xlink="http://www.w3.org/1999/xlink" x="0px" y="0px"
	 width="17.333px" height="27.333px" viewBox="0 0 17.333 27.333" enable-background="new 0 0 17.333 27.333" xml:space="preserve">
<g>
	<g>
		<path d="M8.717,21.854c-0.261,0-0.524-0.051-0.774-0.156c-0.743-0.312-1.226-1.039-1.226-1.844V2.837c0-1.104,0.896-2,2-2
			s2,0.896,2,2v12.255l2.504-2.455c0.788-0.773,2.055-0.761,2.828,0.028c0.773,0.789,0.761,2.055-0.028,2.828l-5.904,5.788
			C9.736,21.656,9.231,21.854,8.717,21.854z"/>
	</g>
	<g>
		<path d="M13.349,26.832H4.088c-1.104,0-2-0.896-2-2s0.896-2,2-2h9.261c1.104,0,2,0.896,2,2S14.453,26.832,13.349,26.832z"/>
	</g>
	<g>
		<path d="M8.718,21.854c-0.529,0-1.048-0.21-1.432-0.604l-5.904-6.052c-0.771-0.791-0.756-2.057,0.035-2.828
			c0.79-0.771,2.056-0.756,2.828,0.035l2.473,2.534V2.573c0-1.104,0.896-2,2-2s2,0.896,2,2v17.28c0,0.813-0.493,1.546-1.246,1.853
			C9.228,21.805,8.972,21.854,8.718,21.854z"/>
	</g>
</g>
</svg>
