<?xml version="1.0" encoding="UTF-8" standalone="no"?>
<svg width="16px" height="15px" viewBox="0 0 16 15" version="1.1" xmlns="http://www.w3.org/2000/svg" xmlns:xlink="http://www.w3.org/1999/xlink" xmlns:sketch="http://www.bohemiancoding.com/sketch/ns">
    <!-- Generator: Sketch 3.5.2 (25235) - http://www.bohemiancoding.com/sketch -->
    <title>Shape</title>
    <desc>Created with Sketch.</desc>
    <defs></defs>
    <g id="Leads" stroke="none" stroke-width="1" fill="none" fill-rule="evenodd" sketch:type="MSPage">
        <g id="Duty-List" sketch:type="MSArtboardGroup" transform="translate(-995.000000, -118.000000)" fill="#757575">
            <g id="noun_111953_cc" sketch:type="MSLayerGroup" transform="translate(995.000000, 118.000000)">
                <g id="Group" sketch:type="MSShapeGroup">
                    <path d="M11.7055357,14.9632143 L2.37553571,14.9632143 C1.14982143,14.9632143 0.1525,13.9660714 0.1525,12.7403571 L0.1525,3.41017857 C0.1525,2.18446429 1.14964286,1.18714286 2.37553571,1.18714286 L11.7055357,1.18714286 C12.1526786,1.18714286 12.5835714,1.32017857 12.9485714,1.56660714 L14.1823214,0.332857143 C14.35875,0.156428571 14.5757143,0.0551785714 14.7776786,0.0551785714 C14.9219643,0.0551785714 15.0541071,0.107857143 15.1496429,0.203571429 C15.3883929,0.442321429 15.3325,0.858214286 15.02,1.17053571 L13.7205357,2.47 C13.8575,2.76285714 13.92875,3.08303571 13.92875,3.41017857 L13.92875,12.7403571 C13.92875,13.9660714 12.9314286,14.9632143 11.7055357,14.9632143 L11.7055357,14.9632143 Z M2.37553571,1.90142857 C1.54357143,1.90142857 0.866785714,2.57821429 0.866785714,3.41017857 L0.866785714,12.7403571 C0.866785714,13.5721429 1.54357143,14.2489286 2.37553571,14.2489286 L11.7055357,14.2489286 C12.5375,14.2489286 13.2144643,13.5721429 13.2144643,12.7403571 L13.2144643,3.41017857 C13.2144643,3.27946429 13.1976786,3.15035714 13.165,3.02571429 L7.79857143,8.39196429 C7.6225,8.56821429 7.40553571,8.66964286 7.20339286,8.66964286 L7.20339286,8.66964286 C7.05910714,8.66964286 6.92714286,8.61696429 6.83160714,8.52125 C6.69392857,8.38357143 6.64928571,8.18214286 6.70910714,7.96839286 C6.74982143,7.82303571 6.83928571,7.67589286 6.96089286,7.55428571 L12.4291071,2.08607143 C12.2092857,1.96571429 11.96125,1.90160714 11.7053571,1.90160714 L2.37553571,1.90160714 L2.37553571,1.90142857 Z" id="Shape"></path>
                </g>
            </g>
        </g>
    </g>
</svg>