<svg width="101" height="101" viewBox="0 0 101 101" xmlns="http://www.w3.org/2000/svg"><path d="M89.123 42.88h-8.69c.632 2.463 1.02 5.032 1.02 7.706 0 16.995-13.794 30.788-30.79 30.788-16.994 0-30.787-13.793-30.787-30.788 0-2.674.387-5.243 1.02-7.706h-8.69v42.33c0 2.11 1.723 3.835 3.835 3.835H85.29c2.11 0 3.835-1.724 3.835-3.836V42.88zm0-26.918c0-2.11-1.724-3.835-3.835-3.835H73.746c-2.11 0-3.835 1.724-3.835 3.835v11.542c0 2.11 1.725 3.835 3.836 3.835h11.542c2.11 0 3.835-1.725 3.835-3.836V15.962zM50.663 31.34c-10.625 0-19.246 8.62-19.246 19.246s8.62 19.247 19.247 19.247c10.626 0 19.247-8.62 19.247-19.247 0-10.626-8.62-19.247-19.246-19.247zm38.46 69.246H12.205c-6.37 0-11.54-5.172-11.54-11.54v-76.92c0-6.368 5.17-11.54 11.54-11.54h76.953c6.37 0 11.54 5.172 11.54 11.54V89.08c-.034 6.334-5.17 11.506-11.575 11.506z" fill="#000" fill-rule="evenodd"/></svg>