<?xml version="1.0" encoding="UTF-8" standalone="no"?>
<svg width="27px" height="33px" viewBox="0 0 27 33" version="1.1" xmlns="http://www.w3.org/2000/svg" xmlns:xlink="http://www.w3.org/1999/xlink" xmlns:sketch="http://www.bohemiancoding.com/sketch/ns">
    <!-- Generator: Sketch 3.5.2 (25235) - http://www.bohemiancoding.com/sketch -->
    <title>leads</title>
    <desc>Created with Sketch.</desc>
    <defs></defs>
    <g id="Page-1" stroke="none" stroke-width="1" fill="none" fill-rule="evenodd" sketch:type="MSPage">
        <g id="all" sketch:type="MSLayerGroup" transform="translate(-444.000000, 0.000000)" fill="#000000">
            <g id="Group" sketch:type="MSShapeGroup">
                <path d="M469.968,19.077 C469.977,19.052 469.991,19.029 469.997,19.002 C470.054,18.725 471.356,12.159 469.016,8.68 C468.276,7.579 467.25,6.901 465.968,6.66 C465.917,6.65 465.864,6.648 465.812,6.655 L463.414,6.968 L463.871,4.388 L465.334,4.674 C465.463,4.701 465.602,4.672 465.713,4.596 C465.823,4.521 465.899,4.404 465.922,4.271 L466.485,1.098 C466.508,0.968 466.478,0.833 466.403,0.725 C466.327,0.616 466.211,0.541 466.08,0.519 L464.109,0.17 C463.844,0.118 463.578,0.302 463.53,0.575 L462.374,7.101 L453.638,8.238 C453.497,8.257 453.38,8.333 453.302,8.438 C452.735,8.653 452.217,8.989 451.766,9.474 C449.217,12.216 449.393,18.497 449.464,19.873 C448.344,20.72 444.097,24.102 444.632,26.423 C444.844,27.343 445.703,27.944 447.22,28.216 C447.623,28.261 448.019,28.282 448.406,28.282 C453.891,28.282 457.589,24.098 458.446,23.027 C458.472,23.023 458.505,23.023 458.531,23.014 L461.876,21.923 L461.876,31.753 C461.876,32.029 462.1,32.253 462.376,32.253 C462.652,32.253 462.876,32.029 462.876,31.753 L462.876,21.82 C462.876,21.746 462.853,21.677 462.823,21.614 L469.666,19.378 C469.668,19.377 469.669,19.375 469.671,19.374 C469.73,19.354 469.782,19.324 469.829,19.284 C469.844,19.272 469.852,19.256 469.865,19.242 C469.894,19.212 469.921,19.18 469.942,19.143 C469.953,19.122 469.959,19.099 469.968,19.077 L469.968,19.077 Z M464.428,1.242 L465.411,1.416 L465.025,3.595 L464.045,3.404 L464.428,1.242 L464.428,1.242 Z M461.798,13.221 C461.827,13.227 461.857,13.229 461.886,13.229 C462.123,13.229 462.334,13.059 462.377,12.816 L463.231,7.999 L465.86,7.657 C466.846,7.86 467.607,8.378 468.186,9.237 C470.04,11.992 469.286,17.253 469.069,18.519 L458.985,21.813 C459.335,19.241 460.071,11.402 456.532,8.871 L462.192,8.135 L461.393,12.643 C461.345,12.914 461.525,13.173 461.798,13.221 L461.798,13.221 Z M452.498,10.156 C453.114,9.494 453.844,9.172 454.729,9.172 L454.812,9.165 C459.304,10.1 458.299,19.472 457.961,21.888 L450.458,19.734 C450.396,18.266 450.301,12.52 452.498,10.156 L452.498,10.156 Z M448.405,27.284 C448.054,27.284 447.696,27.264 447.364,27.228 C446.639,27.098 445.748,26.814 445.606,26.2 C445.29,24.829 448.103,22.146 450.078,20.664 L457.353,22.768 C456.174,24.1 452.887,27.284 448.405,27.284 L448.405,27.284 Z" id="leads"></path>
            </g>
        </g>
    </g>
</svg>