<?xml version="1.0" encoding="UTF-8" standalone="no"?>
<svg width="27px" height="29px" viewBox="0 0 27 29" version="1.1" xmlns="http://www.w3.org/2000/svg" xmlns:xlink="http://www.w3.org/1999/xlink" xmlns:sketch="http://www.bohemiancoding.com/sketch/ns">
    <!-- Generator: Sketch 3.5.2 (25235) - http://www.bohemiancoding.com/sketch -->
    <title>logout</title>
    <desc>Created with Sketch.</desc>
    <defs></defs>
    <g id="Page-1" stroke="none" stroke-width="1" fill="none" fill-rule="evenodd" sketch:type="MSPage">
        <g id="all" sketch:type="MSLayerGroup" transform="translate(-289.000000, -2.000000)" fill="#000000">
            <g id="Group" sketch:type="MSShapeGroup">
                <g id="logout" transform="translate(289.000000, 2.000000)">
                    <path d="M20.988,5.026 C20.759,4.871 20.449,4.931 20.294,5.16 C20.139,5.389 20.199,5.7 20.428,5.854 C23.698,8.064 25.65,11.734 25.65,15.672 C25.65,22.199 20.339,27.51 13.811,27.51 C7.284,27.51 1.974,22.199 1.974,15.672 C1.974,11.484 4.119,7.691 7.711,5.524 C7.948,5.381 8.024,5.075 7.881,4.838 C7.738,4.601 7.429,4.527 7.195,4.668 C3.299,7.017 0.973,11.131 0.973,15.672 C0.973,22.751 6.732,28.51 13.81,28.51 C20.889,28.51 26.649,22.751 26.649,15.672 C26.649,11.401 24.533,7.421 20.988,5.026 L20.988,5.026 Z" id="Shape"></path>
                    <path d="M14.375,11.208 C14.651,11.208 14.875,10.984 14.875,10.708 L14.875,0.708 C14.875,0.432 14.651,0.208 14.375,0.208 C14.099,0.208 13.875,0.432 13.875,0.708 L13.875,10.708 C13.875,10.985 14.099,11.208 14.375,11.208 L14.375,11.208 Z" id="Shape"></path>
                </g>
            </g>
        </g>
    </g>
</svg>