<?xml version="1.0" encoding="UTF-8" standalone="no"?>
<svg width="21px" height="21px" viewBox="0 0 21 21" version="1.1" xmlns="http://www.w3.org/2000/svg" xmlns:xlink="http://www.w3.org/1999/xlink" xmlns:sketch="http://www.bohemiancoding.com/sketch/ns">
    <!-- Generator: Sketch 3.5 (25232) - http://www.bohemiancoding.com/sketch -->
    <title>Shape + Line + Line</title>
    <desc>Created with Sketch.</desc>
    <defs></defs>
    <g id="Residential" stroke="none" stroke-width="1" fill="none" fill-rule="evenodd" sketch:type="MSPage">
        <g id="Residential-(Information)" sketch:type="MSArtboardGroup" transform="translate(-286.000000, -1646.000000)">
            <g id="Shape-+-Line-+-Line" sketch:type="MSLayerGroup" transform="translate(286.000000, 1646.000000)">
                <path d="M10.5,21 C4.71037244,21 0,16.2898567 0,10.5 C0,4.71014335 4.71037244,0 10.5,0 C16.2896276,0 21,4.71014335 21,10.5 C21,16.2898567 16.2896276,21 10.5,21 L10.5,21 Z M10.5,0.801824013 C5.15252111,0.801824013 0.801824013,5.15229202 0.801824013,10.5 C0.801824013,15.847708 5.15252111,20.198176 10.5,20.198176 C15.847708,20.198176 20.198176,15.8474789 20.198176,10.5 C20.198176,5.15252111 15.847708,0.801824013 10.5,0.801824013 L10.5,0.801824013 Z" id="Shape" fill="#757575" sketch:type="MSShapeGroup"></path>
                <g id="Line-+-Line" transform="translate(5.000000, 5.000000)" stroke="#757575" stroke-linecap="square" sketch:type="MSShapeGroup">
                    <path d="M0.5,5.5 L10.5,5.5" id="Line"></path>
                    <path d="M5.5,10.5 L5.5,0.5" id="Line"></path>
                </g>
            </g>
        </g>
    </g>
</svg>