<?xml version="1.0" encoding="utf-8"?>
<!-- Generator: Adobe Illustrator 15.0.0, SVG Export Plug-In . SVG Version: 6.00 Build 0)  -->
<!DOCTYPE svg PUBLIC "-//W3C//DTD SVG 1.1//EN" "http://www.w3.org/Graphics/SVG/1.1/DTD/svg11.dtd">
<svg version="1.1" id="Слой_1" xmlns="http://www.w3.org/2000/svg" xmlns:xlink="http://www.w3.org/1999/xlink" x="0px" y="0px"
	 width="25px" height="24.583px" viewBox="0 0 25 24.583" enable-background="new 0 0 25 24.583" xml:space="preserve">
<g>
	<g>
		<path d="M12.537,24.048c-1.101,0-1.996-0.891-2-1.992L10.463,2.543c-0.004-1.105,0.888-2.003,1.992-2.008c0.003,0,0.005,0,0.008,0
			c1.101,0,1.996,0.891,2,1.992l0.074,19.512c0.004,1.105-0.888,2.003-1.992,2.008C12.542,24.048,12.54,24.048,12.537,24.048z"/>
	</g>
	<g>
		<path d="M2.744,14.31c-1.103,0-1.998-0.893-2-1.997c-0.002-1.104,0.892-2.001,1.997-2.003l19.513-0.036c0.001,0,0.002,0,0.003,0
			c1.103,0,1.998,0.893,2,1.997c0.002,1.104-0.892,2.001-1.997,2.003L2.747,14.31C2.746,14.31,2.745,14.31,2.744,14.31z"/>
	</g>
</g>
</svg>
