<?xml version="1.0" encoding="UTF-8" standalone="no"?>
<svg width="19px" height="25px" viewBox="0 0 19 25" version="1.1" xmlns="http://www.w3.org/2000/svg" xmlns:xlink="http://www.w3.org/1999/xlink" xmlns:sketch="http://www.bohemiancoding.com/sketch/ns">
    <!-- Generator: Sketch 3.5.1 (25234) - http://www.bohemiancoding.com/sketch -->
    <title>noun_129027_cc</title>
    <desc>Created with Sketch.</desc>
    <defs></defs>
    <g id="City" stroke="none" stroke-width="1" fill="none" fill-rule="evenodd" sketch:type="MSPage">
        <g id="City-(Photos)" sketch:type="MSArtboardGroup" transform="translate(-16.000000, -476.000000)" fill="#FAFAFA">
            <g id="noun_129027_cc" sketch:type="MSLayerGroup" transform="translate(16.000000, 476.000000)">
                <g id="Group" sketch:type="MSShapeGroup">
                    <g id="Shape">
                        <path d="M15.7239796,2.55102041 L10.7142857,2.55102041 L10.7142857,7.56020408 L15.7239796,7.56020408 L15.7239796,2.55102041 L15.7239796,2.55102041 Z M14.9714286,6.80765306 L11.4663265,6.80765306 L11.4663265,3.30306122 L14.9714286,3.30306122 L14.9714286,6.80765306 L14.9714286,6.80765306 Z"></path>
                        <path d="M8.07040816,2.55102041 L3.06122449,2.55102041 L3.06122449,7.56020408 L8.07040816,7.56020408 L8.07040816,2.55102041 L8.07040816,2.55102041 Z M7.31836735,6.80765306 L3.81377551,6.80765306 L3.81377551,3.30306122 L7.31836735,3.30306122 L7.31836735,6.80765306 L7.31836735,6.80765306 Z"></path>
                        <path d="M15.7239796,9.18367347 L10.7142857,9.18367347 L10.7142857,14.1928571 L15.7239796,14.1928571 L15.7239796,9.18367347 L15.7239796,9.18367347 Z M14.9714286,13.4403061 L11.4663265,13.4403061 L11.4663265,9.93571429 L14.9714286,9.93571429 L14.9714286,13.4403061 L14.9714286,13.4403061 Z"></path>
                        <path d="M0,0 L0,24.5806122 L7.6122449,24.5806122 L7.6122449,17.3602041 L11.1923469,17.3602041 L11.1923469,24.5806122 L18.8040816,24.5806122 L18.8040816,0 L0,0 L0,0 Z M18.0515306,23.8280612 L11.9443878,23.8280612 L11.9443878,16.6076531 L6.85969388,16.6076531 L6.85969388,23.8280612 L0.75255102,23.8280612 L0.75255102,0.75255102 L18.0515306,0.75255102 L18.0515306,23.8280612 L18.0515306,23.8280612 Z"></path>
                        <path d="M8.07040816,9.18367347 L3.06122449,9.18367347 L3.06122449,14.1928571 L8.07040816,14.1928571 L8.07040816,9.18367347 L8.07040816,9.18367347 Z M7.31836735,13.4403061 L3.81377551,13.4403061 L3.81377551,9.93571429 L7.31836735,9.93571429 L7.31836735,13.4403061 L7.31836735,13.4403061 Z"></path>
                    </g>
                </g>
            </g>
        </g>
    </g>
</svg>