<?xml version="1.0" encoding="UTF-8" standalone="no"?>
<svg width="37px" height="30px" viewBox="0 0 37 30" version="1.1" xmlns="http://www.w3.org/2000/svg" xmlns:xlink="http://www.w3.org/1999/xlink" xmlns:sketch="http://www.bohemiancoding.com/sketch/ns">
    <!-- Generator: Sketch 3.5.2 (25235) - http://www.bohemiancoding.com/sketch -->
    <title>residentialComplexes</title>
    <desc>Created with Sketch.</desc>
    <defs></defs>
    <g id="Page-1" stroke="none" stroke-width="1" fill="none" fill-rule="evenodd" sketch:type="MSPage">
        <g id="all" sketch:type="MSLayerGroup" transform="translate(-70.000000, 0.000000)" fill="#000000">
            <g id="Group" sketch:type="MSShapeGroup">
                <g id="residentialComplexes" transform="translate(70.000000, 0.000000)">
                    <path d="M30.422,8.864 C29.888,8.864 29.371,8.937 28.875,9.061 L28.875,1.208 C28.875,0.932 28.651,0.708 28.375,0.708 L1.375,0.708 C1.099,0.708 0.875,0.932 0.875,1.208 L0.875,27.952 C0.875,29.168 3.055,29.708 3.884,29.708 L11.167,29.717 C11.443,29.717 11.875,29.315 11.875,28.708 L11.875,23.784 C11.875,22.627 13.066,21.572 14.375,21.572 C15.663,21.572 16.875,23.064 16.875,24.221 L16.875,28.707 C16.875,29.374 17.35,29.707 17.626,29.707 L26.335,29.707 C27.346,29.707 28.875,28.88 28.875,27.706 L28.922,20.304 C28.924,20.028 28.701,19.707 28.425,19.707 L28.422,19.707 C28.353,19.707 28.135,19.681 28.077,19.654 C26.428,18.896 25.033,16.881 25.033,15.251 C25.033,12.279 27.45,9.861 30.422,9.861 C33.394,9.861 35.812,12.278 35.812,15.25 C35.812,16.932 34.979,18.511 33.465,19.698 C33.113,19.974 32.084,20.353 31.518,20.527 C31.306,20.593 31.163,20.785 31.165,21.006 L31.284,29.235 C31.288,29.509 31.512,29.707 31.784,29.707 L31.791,29.707 C32.067,29.707 32.288,29.497 32.284,29.222 L32.17,21.372 C32.692,21.193 33.629,20.845 34.082,20.488 C35.842,19.106 36.811,17.246 36.811,15.251 C36.812,11.73 33.945,8.864 30.422,8.864 L30.422,8.864 Z M24.033,15.252 C24.033,17.264 25.66,19.647 27.661,20.564 C27.745,20.603 27.833,20.607 27.92,20.598 L27.875,27.751 C27.875,28.204 26.957,28.708 26.335,28.708 L17.875,28.708 L17.875,24.222 C17.875,22.579 16.26,20.573 14.375,20.573 C12.511,20.573 10.875,22.074 10.875,23.785 L10.875,28.709 L3.884,28.709 C3.112,28.709 1.923,28.219 1.875,27.953 L1.875,1.708 L27.875,1.708 L27.875,9.396 C25.617,10.383 24.033,12.635 24.033,15.252 L24.033,15.252 Z"></path>
                    <path d="M11.375,5.708 L7.375,5.708 C7.099,5.708 6.875,5.932 6.875,6.208 L6.875,10.208 C6.875,10.484 7.099,10.708 7.375,10.708 L11.375,10.708 C11.651,10.708 11.875,10.484 11.875,10.208 L11.875,6.208 C11.875,5.932 11.651,5.708 11.375,5.708 L11.375,5.708 Z M10.875,9.708 L7.875,9.708 L7.875,6.708 L10.875,6.708 L10.875,9.708 L10.875,9.708 Z" id="Shape"></path>
                    <path d="M21.375,5.708 L17.375,5.708 C17.099,5.708 16.875,5.932 16.875,6.208 L16.875,10.208 C16.875,10.484 17.099,10.708 17.375,10.708 L21.375,10.708 C21.651,10.708 21.875,10.484 21.875,10.208 L21.875,6.208 C21.875,5.932 21.651,5.708 21.375,5.708 L21.375,5.708 Z M20.875,9.708 L17.875,9.708 L17.875,6.708 L20.875,6.708 L20.875,9.708 L20.875,9.708 Z" id="Shape"></path>
                    <path d="M11.375,13.708 L7.375,13.708 C7.099,13.708 6.875,13.932 6.875,14.208 L6.875,18.208 C6.875,18.484 7.099,18.708 7.375,18.708 L11.375,18.708 C11.651,18.708 11.875,18.484 11.875,18.208 L11.875,14.208 C11.875,13.932 11.651,13.708 11.375,13.708 L11.375,13.708 Z M10.875,17.708 L7.875,17.708 L7.875,14.708 L10.875,14.708 L10.875,17.708 L10.875,17.708 Z" id="Shape"></path>
                    <path d="M21.375,13.708 L17.375,13.708 C17.099,13.708 16.875,13.932 16.875,14.208 L16.875,18.208 C16.875,18.484 17.099,18.708 17.375,18.708 L21.375,18.708 C21.651,18.708 21.875,18.484 21.875,18.208 L21.875,14.208 C21.875,13.932 21.651,13.708 21.375,13.708 L21.375,13.708 Z M20.875,17.708 L17.875,17.708 L17.875,14.708 L20.875,14.708 L20.875,17.708 L20.875,17.708 Z" id="Shape"></path>
                </g>
            </g>
        </g>
    </g>
</svg>