<?xml version="1.0" encoding="UTF-8" standalone="no"?>
<svg width="32px" height="30px" viewBox="0 0 32 30" version="1.1" xmlns="http://www.w3.org/2000/svg" xmlns:xlink="http://www.w3.org/1999/xlink" xmlns:sketch="http://www.bohemiancoding.com/sketch/ns">
    <!-- Generator: Sketch 3.5.2 (25235) - http://www.bohemiancoding.com/sketch -->
    <title>settings</title>
    <desc>Created with Sketch.</desc>
    <defs></defs>
    <g id="Page-1" stroke="none" stroke-width="1" fill="none" fill-rule="evenodd" sketch:type="MSPage">
        <g id="all" sketch:type="MSLayerGroup" transform="translate(-407.000000, -2.000000)" fill="#000000">
            <g id="Group" sketch:type="MSShapeGroup">
                <g id="settings" transform="translate(407.000000, 2.000000)">
                    <path d="M30.532,11.43 C30.518,11.43 30.497,11.432 30.474,11.434 C29.648,11.36 28.815,11.323 27.998,11.323 C27.729,10.369 27.352,9.456 26.874,8.602 C26.863,8.574 26.85,8.547 26.834,8.522 L26.768,8.41 C26.764,8.403 26.716,8.319 26.712,8.312 C26.695,8.285 26.677,8.26 26.655,8.237 C26.041,7.267 25.298,6.343 24.571,5.643 C24.948,4.912 25.291,4.165 25.592,3.417 C25.695,3.255 25.736,3.061 25.708,2.859 C25.663,2.531 25.441,2.202 25.099,1.959 C24.082,1.231 22.966,0.62 21.781,0.141 C21.155,-0.111 20.497,0.053 20.284,0.507 C20.067,0.805 19.775,1.114 19.467,1.442 C19.123,1.805 18.771,2.179 18.493,2.57 C17.482,2.306 16.252,2.1 14.344,2.221 C14.274,2.225 14.207,2.244 14.149,2.276 C14.062,2.295 13.918,2.318 13.737,2.35 C13.223,2.44 12.493,2.568 11.857,2.741 C11.753,2.557 11.657,2.376 11.561,2.195 C11.305,1.714 11.041,1.216 10.667,0.725 C10.447,0.273 9.911,0.128 9.275,0.415 C8.201,0.897 7.16,1.542 6.092,2.385 C5.773,2.636 5.572,2.969 5.543,3.297 C5.524,3.506 5.577,3.704 5.69,3.865 C6.006,4.55 6.383,5.269 6.836,6.053 C6.047,6.869 5.374,7.777 4.833,8.754 C4.295,9.719 3.889,10.764 3.625,11.867 C2.831,11.904 2.02,11.979 1.207,12.092 C1.195,12.091 1.186,12.09 1.179,12.09 C0.669,12.09 0.265,12.567 0.196,13.249 C0.073,14.502 0.102,15.778 0.284,17.039 C0.376,17.696 0.788,18.155 1.286,18.155 C1.299,18.155 1.321,18.153 1.345,18.151 C2.147,18.225 2.962,18.263 3.772,18.264 C4.081,19.331 4.524,20.348 5.091,21.29 C5.109,21.318 5.128,21.344 5.15,21.368 C5.718,22.305 6.421,23.17 7.246,23.944 C6.876,24.666 6.534,25.412 6.226,26.167 C6.123,26.329 6.081,26.523 6.109,26.725 C6.153,27.053 6.377,27.382 6.72,27.628 C7.741,28.357 8.857,28.968 10.036,29.445 C10.241,29.527 10.454,29.571 10.653,29.571 C11.061,29.571 11.389,29.423 11.533,29.117 C11.674,28.919 11.82,28.759 11.969,28.558 C12.317,28.085 12.675,27.675 12.985,27.176 C13.852,27.42 14.458,27.705 16.034,27.705 L16.235,27.705 C16.316,27.705 16.412,27.578 16.497,27.558 C16.542,27.551 16.63,27.387 16.749,27.372 C17.358,27.299 18.685,27.138 19.644,26.888 C20.054,27.543 20.479,28.218 20.978,28.865 C21.209,29.316 21.845,29.452 22.455,29.173 C23.584,28.665 24.671,28.004 25.684,27.206 C26.007,26.954 26.21,26.625 26.241,26.295 C26.261,26.088 26.21,25.896 26.097,25.734 C25.762,25.005 25.389,24.296 24.986,23.59 C25.739,22.805 26.379,21.967 26.89,21.043 C27.455,20.027 27.878,18.98 28.15,17.824 C28.961,17.787 29.786,17.705 30.61,17.705 L30.634,17.705 C31.15,17.705 31.556,17.122 31.621,16.438 C31.745,15.182 31.715,13.801 31.532,12.544 C31.441,11.89 31.03,11.43 30.532,11.43 L30.532,11.43 Z M30.625,16.24 C30.613,16.371 30.577,16.455 30.552,16.499 C30.543,16.499 30.533,16.5 30.524,16.502 C29.586,16.631 28.646,16.71 27.729,16.738 C27.498,16.746 27.301,16.911 27.254,17.138 C27.01,18.336 26.594,19.47 26.016,20.508 C25.49,21.458 24.815,22.341 24.01,23.131 C23.846,23.292 23.813,23.544 23.93,23.742 C24.401,24.537 24.832,25.361 25.211,26.191 C25.218,26.205 25.225,26.217 25.232,26.231 C25.211,26.272 25.164,26.342 25.067,26.418 C24.116,27.166 23.099,27.786 22.042,28.263 C21.945,28.307 21.875,28.321 21.822,28.325 C21.816,28.316 21.81,28.307 21.803,28.299 C21.299,27.653 20.883,26.986 20.442,26.28 L20.292,26.04 C20.17,25.846 19.934,25.758 19.712,25.831 C18.855,26.113 17.295,26.303 16.63,26.384 C16.569,26.391 16.508,26.399 16.449,26.407 C16.423,26.404 16.38,26.404 16.371,26.402 L16.035,26.404 C14.446,26.404 13.964,26.266 13.001,25.992 L12.889,25.961 C12.666,25.894 12.429,25.995 12.317,26.196 C11.999,26.761 11.576,27.336 11.166,27.891 C11.004,28.112 10.843,28.33 10.688,28.547 C10.682,28.556 10.676,28.565 10.67,28.573 C10.625,28.57 10.542,28.572 10.413,28.519 C9.307,28.072 8.26,27.498 7.304,26.815 C7.2,26.742 7.145,26.671 7.119,26.627 C7.124,26.617 7.129,26.613 7.134,26.603 C7.483,25.741 7.878,24.898 8.31,24.084 C8.418,23.88 8.373,23.643 8.2,23.489 C7.303,22.693 6.549,21.816 5.96,20.826 C5.943,20.798 5.923,20.827 5.901,20.804 C5.34,19.856 4.917,18.94 4.639,17.862 C4.582,17.639 4.382,17.708 4.155,17.708 L4.149,17.708 L3.82,17.487 C3.01,17.487 2.194,17.227 1.393,17.152 C1.381,17.151 1.371,17.15 1.359,17.15 C1.333,17.108 1.295,17.027 1.277,16.899 C1.106,15.716 1.079,14.521 1.194,13.348 C1.208,13.22 1.242,13.136 1.266,13.092 C1.276,13.092 1.287,13.091 1.296,13.089 C2.224,12.959 3.15,12.88 4.048,12.852 C4.279,12.844 4.475,12.68 4.522,12.454 C4.759,11.309 5.159,10.228 5.71,9.24 C6.267,8.235 6.975,7.31 7.814,6.492 C7.98,6.331 8.013,6.078 7.896,5.879 C7.36,4.973 6.928,4.16 6.578,3.397 C6.571,3.381 6.563,3.367 6.555,3.352 C6.576,3.311 6.621,3.244 6.714,3.17 C7.731,2.367 8.675,1.782 9.689,1.326 C9.75,1.299 9.796,1.283 9.831,1.274 C9.834,1.279 9.838,1.283 9.842,1.288 C10.183,1.727 10.425,2.183 10.68,2.663 C10.843,2.97 11.008,3.279 11.201,3.594 C11.322,3.791 11.565,3.878 11.784,3.806 C12.42,3.596 13.353,3.432 13.911,3.335 C14.147,3.293 14.337,3.26 14.484,3.214 C16.414,3.1 17.593,3.35 18.58,3.629 C18.8,3.691 19.036,3.594 19.15,3.395 C19.382,2.987 19.795,2.55 20.193,2.128 C20.527,1.774 20.872,1.409 21.132,1.04 C21.139,1.03 21.145,1.02 21.152,1.011 C21.158,1.032 21.272,1.014 21.406,1.069 C22.518,1.518 23.565,2.091 24.518,2.773 C24.621,2.846 24.675,2.917 24.701,2.96 C24.695,2.971 24.69,2.981 24.686,2.993 C24.346,3.841 23.95,4.69 23.51,5.514 C23.402,5.718 23.447,5.97 23.62,6.123 C24.374,6.791 25.21,7.808 25.855,8.841 C25.877,8.877 25.904,8.909 25.933,8.938 C25.934,8.94 25.935,8.943 25.936,8.946 L25.927,8.955 L25.955,9.002 C25.962,9.019 25.971,9.035 25.979,9.052 C26.489,9.952 26.875,10.926 27.128,11.947 C27.184,12.173 27.396,12.367 27.62,12.327 L27.997,12.324 C28.799,12.324 29.617,12.361 30.429,12.435 C30.441,12.436 30.45,12.437 30.458,12.438 C30.484,12.48 30.522,12.562 30.54,12.69 C30.714,13.869 30.742,15.063 30.625,16.24 L30.625,16.24 Z" id="Shape"></path>
                    <path d="M18.072,11.125 C17.409,10.755 16.659,10.709 15.836,10.709 L15.833,10.709 C15.078,10.709 14.284,10.815 13.596,11.229 C12.951,11.617 12.348,12.103 11.98,12.771 C11.615,13.436 11.419,14.232 11.431,14.994 C11.446,15.763 11.667,16.549 12.074,17.224 C12.093,17.253 12.113,17.328 12.137,17.354 C12.533,17.981 13.086,18.598 13.743,18.963 C14.412,19.333 15.137,19.709 15.897,19.709 L15.976,19.709 C16.778,19.709 17.544,19.308 18.191,18.918 C18.848,18.525 19.413,17.765 19.777,17.106 C20.15,16.438 20.367,15.611 20.355,14.862 C20.341,14.116 20.136,13.392 19.767,12.738 C19.323,12.013 18.705,11.471 18.072,11.125 L18.072,11.125 Z M18.9,16.601 C18.619,17.11 18.18,17.557 17.671,17.862 C17.175,18.161 16.578,18.323 15.951,18.331 L15.875,18.832 L15.875,18.332 C14.875,18.332 14.734,18.186 14.217,17.899 C13.684,17.603 13.249,17.172 12.94,16.656 C12.924,16.629 12.905,16.604 12.884,16.581 C12.598,16.076 12.442,15.515 12.431,14.953 C12.422,14.372 12.577,13.748 12.857,13.241 C13.143,12.72 13.612,12.23 14.111,11.93 C14.652,11.606 15.27,11.421 15.9,11.409 C16.488,11.409 17.071,11.56 17.589,11.849 C18.068,12.112 18.563,12.611 18.904,13.169 C19.184,13.665 19.343,14.259 19.353,14.84 C19.363,15.421 19.193,16.079 18.9,16.601 L18.9,16.601 Z" id="Shape"></path>
                </g>
            </g>
        </g>
    </g>
</svg>