<?xml version="1.0" encoding="UTF-8" standalone="no"?>
<svg width="35px" height="31px" viewBox="0 0 35 31" version="1.1" xmlns="http://www.w3.org/2000/svg" xmlns:xlink="http://www.w3.org/1999/xlink" xmlns:sketch="http://www.bohemiancoding.com/sketch/ns">
    <!-- Generator: Sketch 3.5.2 (25235) - http://www.bohemiancoding.com/sketch -->
    <title>settlements</title>
    <desc>Created with Sketch.</desc>
    <defs></defs>
    <g id="Page-1" stroke="none" stroke-width="1" fill="none" fill-rule="evenodd" sketch:type="MSPage">
        <g id="all" sketch:type="MSLayerGroup" transform="translate(0.000000, -3.000000)" fill="#000000">
            <g id="Group" sketch:type="MSShapeGroup">
                <path d="M33.397,27.025 C31.628,28.995 28.019,29.346 24.498,28.814 L24.375,17.033 C24.375,16.949 24.634,16.709 25.786,16.709 L28.288,16.709 C28.789,16.709 29.188,16.451 29.357,16.02 C29.548,15.531 29.39,14.956 28.972,14.571 L24.198,9.717 L17.506,3.475 C16.791,2.809 15.614,2.817 14.889,3.494 L10.071,7.97 C9.791,8.229 9.416,8.6 9.046,8.968 C8.714,9.298 8.384,9.625 8.125,9.867 L3.302,14.553 C2.866,14.956 2.709,15.533 2.901,16.022 C3.071,16.454 3.471,16.711 3.973,16.711 L6.356,16.711 C7.704,16.711 8.306,16.953 8.377,17.044 L8.573,28.312 C4.885,29.685 0.668,32.27 0.484,32.382 C0.25,32.527 0.176,32.835 0.321,33.07 C0.416,33.223 0.58,33.307 0.747,33.307 C0.837,33.307 0.928,33.283 1.01,33.233 C1.055,33.205 5.584,30.426 9.247,29.127 C12.565,27.949 17.286,27.949 21.275,29.126 C25.5,30.373 31.404,30.748 34.143,27.695 C34.328,27.49 34.31,27.174 34.105,26.989 C33.897,26.802 33.581,26.818 33.397,27.025 L33.397,27.025 Z M13.875,27.257 L13.879,20.621 C13.963,20.628 14.068,20.642 14.149,20.653 C14.346,20.68 14.56,20.708 14.776,20.708 L18.014,20.708 C18.233,20.708 18.447,20.68 18.641,20.652 C18.714,20.642 18.802,20.63 18.875,20.623 L18.875,27.56 C17.325,27.304 15.612,27.173 13.875,27.257 L13.875,27.257 Z M19.866,27.751 C19.867,27.735 19.875,27.723 19.875,27.708 L19.875,20.562 C19.875,20.24 19.777,19.992 19.585,19.824 C19.273,19.553 18.863,19.612 18.502,19.663 C18.351,19.684 18.185,19.709 18.014,19.709 L14.776,19.709 C14.607,19.709 14.439,19.685 14.285,19.663 C13.888,19.61 13.481,19.554 13.167,19.83 C12.974,19.998 12.876,20.245 12.876,20.562 L12.876,27.346 C11.755,27.455 10.644,27.665 9.567,27.992 L9.376,17.033 C9.376,16.154 8.359,15.709 6.355,15.709 L3.972,15.709 C3.853,15.709 3.836,15.668 3.831,15.654 C3.805,15.589 3.823,15.43 3.989,15.276 L8.813,10.589 C9.071,10.349 9.409,10.013 9.75,9.675 C10.11,9.317 10.475,8.954 10.749,8.701 L15.569,4.223 C15.916,3.9 16.489,3.893 16.824,4.203 L23.502,10.431 L28.277,15.286 C28.433,15.431 28.451,15.588 28.425,15.653 C28.419,15.668 28.404,15.707 28.287,15.707 L25.785,15.707 C24.185,15.707 23.374,16.23 23.374,17.114 L23.495,28.637 C22.835,28.505 22.182,28.348 21.556,28.162 C21.036,28.011 20.462,27.875 19.866,27.751 L19.866,27.751 Z" id="settlements"></path>
            </g>
        </g>
    </g>
</svg>