<?xml version="1.0" encoding="UTF-8" standalone="no"?>
<svg width="41px" height="29px" viewBox="0 0 41 29" version="1.1" xmlns="http://www.w3.org/2000/svg" xmlns:xlink="http://www.w3.org/1999/xlink" xmlns:sketch="http://www.bohemiancoding.com/sketch/ns">
    <!-- Generator: Sketch 3.5.2 (25235) - http://www.bohemiancoding.com/sketch -->
    <title>staff</title>
    <desc>Created with Sketch.</desc>
    <defs></defs>
    <g id="Page-1" stroke="none" stroke-width="1" fill="none" fill-rule="evenodd" sketch:type="MSPage">
        <g id="all" sketch:type="MSLayerGroup" transform="translate(-241.000000, -4.000000)" fill="#000000">
            <g id="Group" sketch:type="MSShapeGroup">
                <g id="staff" transform="translate(241.000000, 4.000000)">
                    <path d="M13.261,11.827 C13.261,15.791 16.488,19.016 20.453,19.016 C24.416,19.016 27.641,15.79 27.641,11.827 C27.641,7.864 24.416,4.639 20.453,4.639 C16.487,4.638 13.261,7.863 13.261,11.827 L13.261,11.827 Z M20.453,5.638 C23.865,5.638 26.641,8.414 26.641,11.826 C26.641,15.239 23.866,18.015 20.453,18.015 C17.039,18.015 14.261,15.239 14.261,11.826 C14.261,8.415 17.039,5.638 20.453,5.638 L20.453,5.638 Z" id="Shape"></path>
                    <path d="M27.51,19.496 C27.365,19.336 27.135,19.29 26.935,19.377 L20.454,22.306 L13.968,19.377 C13.771,19.29 13.538,19.336 13.393,19.496 L10.636,22.517 C10.455,22.714 10.462,23.019 10.652,23.207 L16.154,28.709 C16.248,28.803 16.376,28.855 16.508,28.855 C16.522,28.855 16.535,28.854 16.549,28.853 C16.695,28.841 16.828,28.766 16.914,28.646 L20.455,23.71 L23.99,28.646 C24.075,28.765 24.209,28.841 24.355,28.853 C24.369,28.854 24.382,28.855 24.396,28.855 C24.528,28.855 24.656,28.802 24.75,28.709 L30.254,23.207 C30.443,23.019 30.45,22.714 30.27,22.517 L27.51,19.496 L27.51,19.496 Z M16.443,27.585 L11.695,22.838 L13.885,20.437 L19.691,23.058 L16.443,27.585 L16.443,27.585 Z M24.458,27.585 L21.215,23.058 L27.016,20.438 L29.207,22.838 L24.458,27.585 L24.458,27.585 Z" id="Shape"></path>
                    <path d="M11.123,14.63 C11.772,14.63 12.421,14.542 13.048,14.369 C13.315,14.295 13.471,14.019 13.398,13.754 C13.325,13.489 13.046,13.334 12.783,13.404 C12.242,13.553 11.683,13.63 11.124,13.63 C7.711,13.63 4.935,10.854 4.935,7.441 C4.935,4.028 7.711,1.252 11.124,1.252 C13.54,1.252 15.751,2.673 16.757,4.871 C16.873,5.122 17.171,5.229 17.42,5.118 C17.671,5.003 17.781,4.706 17.667,4.455 C16.498,1.901 13.93,0.252 11.124,0.252 C7.16,0.252 3.935,3.478 3.935,7.441 C3.935,11.404 7.159,14.63 11.123,14.63 L11.123,14.63 Z" id="Shape"></path>
                    <path d="M10.813,17.972 C10.775,17.827 10.672,17.707 10.537,17.646 L3.848,14.627 C3.652,14.54 3.419,14.587 3.273,14.746 L0.515,17.765 C0.334,17.962 0.341,18.266 0.531,18.455 L6.033,23.959 C6.127,24.053 6.255,24.105 6.387,24.105 C6.401,24.105 6.414,24.104 6.428,24.103 C6.574,24.091 6.708,24.016 6.793,23.896 L10.738,18.392 C10.825,18.272 10.853,18.117 10.813,17.972 L10.813,17.972 Z M6.322,22.835 L1.575,18.086 L3.766,15.688 L9.569,18.307 L6.322,22.835 L6.322,22.835 Z" id="Shape"></path>
                    <path d="M23.336,5.242 C23.589,5.356 23.885,5.246 23.999,4.995 C25.005,2.792 27.216,1.369 29.632,1.369 C33.045,1.369 35.821,4.146 35.821,7.56 C35.821,10.973 33.045,13.75 29.632,13.75 C29.073,13.75 28.515,13.674 27.973,13.524 C27.709,13.454 27.432,13.607 27.358,13.874 C27.285,14.141 27.441,14.415 27.708,14.489 C28.337,14.662 28.984,14.75 29.633,14.75 C33.597,14.75 36.822,11.524 36.822,7.56 C36.822,3.594 33.596,0.369 29.633,0.369 C26.827,0.369 24.259,2.021 23.09,4.579 C22.975,4.83 23.085,5.126 23.336,5.242 L23.336,5.242 Z" id="Shape"></path>
                    <path d="M37.726,14.747 C37.58,14.588 37.349,14.541 37.151,14.628 L30.462,17.65 C30.325,17.713 30.224,17.832 30.185,17.976 C30.147,18.121 30.175,18.276 30.262,18.397 L34.207,23.899 C34.293,24.019 34.426,24.094 34.572,24.106 C34.586,24.107 34.599,24.108 34.613,24.108 C34.745,24.108 34.873,24.055 34.967,23.962 L40.469,18.46 C40.658,18.272 40.665,17.967 40.485,17.77 L37.726,14.747 L37.726,14.747 Z M34.676,22.837 L31.429,18.31 L37.232,15.689 L39.423,18.09 L34.676,22.837 L34.676,22.837 Z" id="Shape"></path>
                </g>
            </g>
        </g>
    </g>
</svg>