<?xml version="1.0" encoding="UTF-8" standalone="no"?>
<svg width="30px" height="30px" viewBox="0 0 30 30" version="1.1" xmlns="http://www.w3.org/2000/svg" xmlns:xlink="http://www.w3.org/1999/xlink" xmlns:sketch="http://www.bohemiancoding.com/sketch/ns">
    <!-- Generator: Sketch 3.5.2 (25235) - http://www.bohemiancoding.com/sketch -->
    <title>tasks</title>
    <desc>Created with Sketch.</desc>
    <defs></defs>
    <g id="Page-1" stroke="none" stroke-width="1" fill="none" fill-rule="evenodd" sketch:type="MSPage">
        <g id="all" sketch:type="MSLayerGroup" transform="translate(0.000000, -3.000000)" fill="#000000">
            <g id="Group" sketch:type="MSShapeGroup">
                <g id="tasks" transform="translate(0.000000, 3.000000)">
                    <path d="M24.788,8.914 L14.214,20.347 L8.23,14.029 C8.041,13.83 7.724,13.821 7.523,14.009 C7.323,14.199 7.314,14.516 7.503,14.716 L13.855,21.487 C13.95,21.587 14.081,21.709 14.218,21.709 L14.221,21.709 C14.36,21.709 14.492,21.585 14.585,21.483 L25.523,9.627 C25.711,9.424 25.698,9.091 25.496,8.903 C25.29,8.715 24.976,8.711 24.788,8.914 L24.788,8.914 Z" id="Shape"></path>
                    <path d="M28.222,0.708 L2.529,0.708 C1.617,0.708 0.876,1.45 0.876,2.363 L0.876,28.052 C0.876,28.965 1.617,29.707 2.529,29.707 L28.222,29.707 C29.134,29.707 29.875,28.965 29.875,28.052 L29.875,2.364 C29.875,1.451 29.134,0.708 28.222,0.708 L28.222,0.708 Z M28.875,28.053 C28.875,28.414 28.582,28.708 28.222,28.708 L2.529,28.708 C2.169,28.708 1.876,28.414 1.876,28.053 L1.876,2.364 C1.876,2.003 2.169,1.709 2.529,1.709 L28.222,1.709 C28.582,1.709 28.875,2.003 28.875,2.364 L28.875,28.053 L28.875,28.053 Z" id="Shape"></path>
                </g>
            </g>
        </g>
    </g>
</svg>