<svg width="124" height="101" viewBox="0 0 124 101" xmlns="http://www.w3.org/2000/svg"><path d="M109.05 16.4c5.212-3.126 9.215-8.073 11.1-13.968-4.88 2.893-10.28 4.994-16.032 6.126C99.514 3.65 92.952.586 85.69.586 71.75.586 60.447 11.89 60.447 25.83c0 1.98.223 3.906.654 5.754C40.118 30.53 21.517 20.48 9.065 5.206c-2.173 3.73-3.418 8.065-3.418 12.692 0 8.76 4.457 16.486 11.23 21.013-4.137-.13-8.03-1.266-11.434-3.157-.003.105-.003.21-.003.318 0 12.232 8.703 22.435 20.25 24.755-2.117.577-4.347.886-6.65.886-1.626 0-3.207-.158-4.75-.452 3.214 10.03 12.537 17.328 23.584 17.53C29.234 85.56 18.35 89.597 6.52 89.597c-2.037 0-4.046-.12-6.02-.353 11.17 7.164 24.44 11.343 38.697 11.343 46.435 0 71.83-38.467 71.83-71.83 0-1.093-.026-2.182-.075-3.265 4.932-3.558 9.212-8.004 12.597-13.067-4.528 2.01-9.394 3.365-14.5 3.976z" fill="#000" fill-rule="evenodd"/></svg>