<?xml version="1.0" encoding="UTF-8" standalone="no"?>
<svg width="23px" height="30px" viewBox="0 0 23 30" version="1.1" xmlns="http://www.w3.org/2000/svg" xmlns:xlink="http://www.w3.org/1999/xlink" xmlns:sketch="http://www.bohemiancoding.com/sketch/ns">
    <!-- Generator: Sketch 3.5.2 (25235) - http://www.bohemiancoding.com/sketch -->
    <title>Shape</title>
    <desc>Created with Sketch.</desc>
    <defs></defs>
    <g id="Page-1" stroke="none" stroke-width="1" fill="none" fill-rule="evenodd" sketch:type="MSPage">
        <g id="all" sketch:type="MSLayerGroup" transform="translate(-212.000000, 0.000000)" fill="#000000">
            <g id="Group" sketch:type="MSShapeGroup">
                <path d="M225.68,0.595 C225.463,0.467 225.135,0.467 224.773,0.467 C223.664,0.467 221.598,0.622 221.295,0.646 C221.273,0.644 221.252,0.643 221.241,0.643 C220.509,0.643 217.795,1.566 217.103,1.998 C211.485,5.54 212.49,11.225 212.495,11.225 C212.499,11.309 212.491,11.47 212.482,11.676 C212.436,12.754 212.419,13.857 212.736,14.441 C212.82,14.595 212.978,14.694 213.153,14.702 C213.191,14.707 213.226,14.687 213.263,14.681 C213.688,17.203 214.846,22.962 215.105,23.848 C215.391,24.826 220.976,28.83 221.861,29.32 C222.599,29.729 222.988,29.832 223.574,29.832 C223.612,29.832 223.663,29.828 223.703,29.827 C223.742,29.828 223.793,29.832 223.831,29.832 C224.417,29.832 224.806,29.729 225.544,29.32 C226.429,28.831 232.015,24.825 232.299,23.849 C232.572,22.916 233.401,17.53 233.73,15.082 C233.739,15.084 233.747,15.089 233.755,15.09 C233.77,15.091 233.784,15.092 233.8,15.092 C234.048,15.092 234.263,14.907 234.295,14.655 C234.304,14.587 234.308,14.518 234.307,14.45 C234.359,13.357 234.512,9.811 234.381,8.771 C233.496,1.75 227.045,0.732 225.68,0.595 L225.68,0.595 Z M217.635,2.845 C218.261,2.454 220.784,1.643 221.23,1.642 C221.265,1.647 221.3,1.648 221.338,1.645 C221.36,1.644 223.638,1.467 224.773,1.467 C224.93,1.467 225.038,1.471 225.111,1.475 C225.19,1.535 225.288,1.571 225.392,1.575 C225.682,1.585 232.509,1.91 233.389,8.897 C233.461,9.469 233.435,11.109 233.375,12.763 C233.24,12.626 233.101,12.492 232.961,12.359 C232.659,12.07 232.375,11.797 232.178,11.532 C231.155,10.157 229.534,9.83 227.483,9.415 C226.637,9.244 225.678,9.05 224.634,8.76 C221.116,7.783 220.12,7.624 218.773,7.511 C217.898,7.511 214.344,11.691 214.31,11.732 C214.101,11.985 213.766,12.456 213.46,12.897 C213.45,12.456 213.47,11.995 213.481,11.719 C213.492,11.47 213.499,11.275 213.485,11.106 C213.476,11.055 212.583,6.03 217.635,2.845 L217.635,2.845 Z M231.354,23.531 C231.019,24.153 226.387,27.661 225.06,28.394 C224.661,28.617 224.425,28.708 224.167,28.708 L224.154,28.708 C223.975,28.708 223.832,28.726 223.701,28.729 C223.571,28.725 223.429,28.708 223.251,28.708 L223.241,28.708 C222.982,28.708 222.746,28.615 222.345,28.394 C221.019,27.662 216.386,24.127 216.065,23.542 C215.785,22.58 214.305,15.168 214.123,13.683 C214.455,13.201 214.857,12.632 215.082,12.361 C215.693,11.615 218.222,8.887 218.84,8.514 C219.919,8.61 220.848,8.743 224.366,9.72 C225.444,10.02 226.422,10.219 227.284,10.394 C229.269,10.795 230.58,11.061 231.375,12.128 C231.622,12.461 231.951,12.776 232.27,13.08 C232.495,13.295 232.73,13.523 232.921,13.746 C232.891,13.803 232.869,13.865 232.863,13.933 C232.753,15.177 231.631,22.573 231.354,23.531 L231.354,23.531 Z" id="Shape"></path>
            </g>
        </g>
    </g>
</svg>