<svg width="176" height="101" viewBox="0 0 176 101" xmlns="http://www.w3.org/2000/svg"><path d="M86.26 99.958H96.74s3.164-.35 4.782-2.09c1.487-1.6 1.44-4.602 1.44-4.602s-.205-14.058 6.318-16.128c6.434-2.04 14.693 13.586 23.447 19.596 6.62 4.546 11.65 3.55 11.65 3.55l23.41-.326s12.244-.756 6.438-10.384c-.476-.786-3.383-7.12-17.406-20.138-14.68-13.623-12.712-11.42 4.97-34.985 10.767-14.35 15.07-23.11 13.726-26.864-1.28-3.575-9.202-2.63-9.202-2.63l-26.355.163s-1.955-.267-3.403.6c-1.417.847-2.326 2.827-2.326 2.827s-4.173 11.105-9.735 20.55c-11.735 19.928-16.428 20.983-18.347 19.744-4.463-2.883-3.348-11.584-3.348-17.767 0-19.313 2.93-27.366-5.704-29.45C94.227.93 92.117.473 84.79.4 75.383.303 67.425.427 62.92 2.635c-3 1.468-5.313 4.74-3.904 4.928 1.743.232 5.687 1.065 7.778 3.91C69.496 15.15 69.4 23.4 69.4 23.4s1.554 22.736-3.623 25.56c-3.552 1.936-8.426-2.018-18.89-20.098-5.36-9.26-9.408-19.5-9.408-19.5s-.78-1.912-2.173-2.936c-1.69-1.24-4.05-1.634-4.05-1.634l-25.045.164s-3.76.105-5.14 1.74c-1.23 1.455-.1 4.462-.1 4.462s19.61 45.874 41.812 68.992c20.36 21.2 43.477 19.808 43.477 19.808" fill="#000" fill-rule="evenodd"/></svg>