<?xml version="1.0" encoding="UTF-8" standalone="no"?>
<svg width="64px" height="56px" viewBox="0 0 64 56" version="1.1" xmlns="http://www.w3.org/2000/svg" xmlns:xlink="http://www.w3.org/1999/xlink">
    <!-- Generator: Sketch 3.6.1 (26313) - http://www.bohemiancoding.com/sketch -->
    <title>warning</title>
    <desc>Created with Sketch.</desc>
    <defs></defs>
    <g id="Page-1" stroke="none" stroke-width="1" fill="none" fill-rule="evenodd">
        <g id="noun_287979_cc" fill="#000000">
            <g id="warning">
                <path d="M62,55.432 L2,55.432 C1.373,55.432 0.794,55.097 0.482,54.553 C0.17,54.009 0.172,53.34 0.488,52.799 L30.488,1.435 C30.802,0.898 31.377,0.568 31.999,0.568 C32.621,0.568 33.196,0.898 33.51,1.435 L63.51,52.799 C63.826,53.34 63.829,54.009 63.517,54.553 C63.206,55.097 62.627,55.432 62,55.432 L62,55.432 Z M5.049,51.932 L58.951,51.932 L32,5.788 L5.049,51.932 L5.049,51.932 Z M33.004,44.103 C33.631,44.103 34.143,44.596 34.143,45.199 L34.143,47.292 C34.143,47.895 33.63,48.388 33.004,48.388 L30.997,48.388 C30.369,48.388 29.858,47.894 29.858,47.292 L29.858,45.199 C29.858,44.596 30.37,44.103 30.997,44.103 L33.004,44.103 L33.004,44.103 Z M33.004,17.928 C33.631,17.928 34.143,18.421 34.143,19.025 L34.143,40.428 C34.143,41.031 33.63,41.525 33.004,41.525 L30.997,41.525 C30.369,41.525 29.858,41.031 29.858,40.428 L29.858,19.024 C29.858,18.421 30.37,17.927 30.997,17.927 L33.004,17.927 L33.004,17.928 L33.004,17.928 Z" id="Shape"></path>
            </g>
        </g>
    </g>
</svg>