<?xml version="1.0" encoding="UTF-8" standalone="no"?>
<svg width="34px" height="25px" viewBox="0 0 34 25" version="1.1" xmlns="http://www.w3.org/2000/svg" xmlns:xlink="http://www.w3.org/1999/xlink">
    <!-- Generator: Sketch 3.8.3 (29802) - http://www.bohemiancoding.com/sketch -->
    <title>noun_410713_cc</title>
    <desc>Created with Sketch.</desc>
    <defs></defs>
    <g id="Page-1" stroke="none" stroke-width="1" fill="none" fill-rule="evenodd">
        <g id="web/open/objec/ver2/country" transform="translate(-348.000000, -680.000000)" fill="#000000">
            <g id="noun_410713_cc" transform="translate(348.000000, 680.000000)">
                <g id="Group">
                    <path d="M31.7333333,10.8233333 L31.7333333,3.4 C31.7333333,1.83713333 30.4628667,0.566666667 28.9,0.566666667 L5.1,0.566666667 C3.53713333,0.566666667 2.26666667,1.83713333 2.26666667,3.4 L2.26666667,10.8233333 C0.974666667,11.0874 0,12.2309333 0,13.6 L0,17 L0,20.4 L0,23.8 C0,24.1128 0.253866667,24.3666667 0.566666667,24.3666667 C0.879466667,24.3666667 1.13333333,24.1128 1.13333333,23.8 L1.13333333,20.9666667 L32.8666667,20.9666667 L32.8666667,23.8 C32.8666667,24.1128 33.1205333,24.3666667 33.4333333,24.3666667 C33.7461333,24.3666667 34,24.1128 34,23.8 L34,20.4 L34,17 L34,13.6 C34,12.2309333 33.0253333,11.0874 31.7333333,10.8233333 L31.7333333,10.8233333 Z M3.4,3.4 C3.4,2.46273333 4.16273333,1.7 5.1,1.7 L28.9,1.7 C29.8372667,1.7 30.6,2.46273333 30.6,3.4 L30.6,10.7666667 L28.1440667,10.7666667 C28.3367333,10.3564 28.3854667,9.8906 28.2732667,9.4384 L27.5796667,6.6062 C27.3632,5.71993333 26.5846,5.1 25.6847333,5.1 L21.2194,5.1 C20.1416,5.1 19.2655333,5.98966667 19.2655333,7.08333333 L19.2655333,9.91666667 C19.2655333,10.2215333 19.3392,10.5082667 19.4616,10.7666667 L14.5372667,10.7666667 C14.6585333,10.5082667 14.7322,10.2215333 14.7322,9.91666667 L14.7322,7.08333333 C14.7322,5.98966667 13.855,5.1 12.7783333,5.1 L8.313,5.1 C7.41313333,5.1 6.6334,5.71993333 6.41806667,6.6062 L5.72446667,9.4384 C5.61226667,9.89173333 5.661,10.3564 5.85366667,10.7666667 L3.4,10.7666667 L3.4,3.4 L3.4,3.4 Z M20.4,9.91666667 L20.4,7.08333333 C20.4,6.61526667 20.7683333,6.23333333 21.2205333,6.23333333 L21.2205333,6.23446667 L25.6881333,6.23446667 C26.0632667,6.23446667 26.3896667,6.4974 26.4826,6.8748 L26.4826,6.87593333 L27.1762,9.70926667 C27.2396667,9.97106667 27.1818667,10.2419333 27.0164,10.4527333 C26.86,10.6522 26.6276667,10.7666667 26.3794667,10.7666667 L21.2205333,10.7666667 C20.7672,10.7666667 20.4,10.3847333 20.4,9.91666667 L20.4,9.91666667 Z M6.82606667,9.70813333 L7.51966667,6.8748 L7.51966667,6.87366667 C7.6126,6.49626667 7.939,6.23333333 8.31413333,6.23333333 L8.31413333,6.2322 L12.7817333,6.2322 C13.2350667,6.2322 13.6022667,6.61413333 13.6022667,7.0822 L13.6022667,9.91553333 C13.6022667,10.3836 13.2339333,10.7655333 12.7817333,10.7655333 L7.6228,10.7655333 C7.3746,10.7655333 7.14226667,10.6522 6.98586667,10.4516 C6.81926667,10.2419333 6.76146667,9.96993333 6.82606667,9.70813333 L6.82606667,9.70813333 Z M1.13333333,13.6 C1.13333333,12.6627333 1.89606667,11.9 2.83333333,11.9 L7.62053333,11.9 L12.7794667,11.9 L21.2194,11.9 L26.3783333,11.9 L31.1666667,11.9 C32.1039333,11.9 32.8666667,12.6627333 32.8666667,13.6 L32.8666667,16.4333333 L1.13333333,16.4333333 L1.13333333,13.6 L1.13333333,13.6 Z M1.13333333,17.5666667 L32.8666667,17.5666667 L32.8666667,19.8333333 L1.13333333,19.8333333 L1.13333333,17.5666667 L1.13333333,17.5666667 Z" id="Shape"></path>
                </g>
            </g>
        </g>
    </g>
</svg>
