<?xml version="1.0" encoding="UTF-8" standalone="no"?>
<svg width="16px" height="16px" viewBox="0 0 16 16" version="1.1" xmlns="http://www.w3.org/2000/svg" xmlns:xlink="http://www.w3.org/1999/xlink" xmlns:sketch="http://www.bohemiancoding.com/sketch/ns">
    <!-- Generator: Sketch 3.4 (15588) - http://www.bohemiancoding.com/sketch -->
    <title>Delete</title>
    <desc>Created with Sketch.</desc>
    <defs></defs>
    <g id="Welcome" stroke="none" stroke-width="1" fill="none" fill-rule="evenodd" sketch:type="MSPage">
        <g id="Object-(Documents)" sketch:type="MSArtboardGroup" transform="translate(-883.000000, -747.000000)" fill="#757575">
            <path d="M891.992011,755.271323 L898.294257,748.969077 C898.568043,748.694968 898.568043,748.250973 898.294257,747.976864 C898.020148,747.703239 897.576153,747.703239 897.302044,747.976864 L890.999798,754.27911 L884.697553,747.976703 C884.423444,747.703078 883.979449,747.703078 883.70534,747.976703 C883.431553,748.250812 883.431553,748.694807 883.70534,748.968916 L890.007585,755.271323 L883.70534,761.573569 C883.431553,761.847678 883.431553,762.291673 883.70534,762.565782 C883.842313,762.702594 884.022041,762.771484 884.201446,762.771484 C884.380851,762.771484 884.560579,762.702594 884.697553,762.565782 L890.999798,756.263536 L897.302044,762.565782 C897.439018,762.702594 897.618746,762.771484 897.798151,762.771484 C897.977556,762.771484 898.157283,762.702594 898.294257,762.565782 C898.568043,762.291673 898.568043,761.847678 898.294257,761.573569 L891.992011,755.271323 L891.992011,755.271323 Z" id="Delete" sketch:type="MSShapeGroup"></path>
        </g>
    </g>
</svg>