<?xml version="1.0" encoding="UTF-8" standalone="no"?>
<svg width="12px" height="2px" viewBox="0 0 12 2" version="1.1" xmlns="http://www.w3.org/2000/svg" xmlns:xlink="http://www.w3.org/1999/xlink">
    <!-- Generator: Sketch 3.6.1 (26313) - http://www.bohemiancoding.com/sketch -->
    <title>Combined Shape</title>
    <desc>Created with Sketch.</desc>
    <defs></defs>
    <g id="Page-1" stroke="none" stroke-width="1" fill="none" fill-rule="evenodd">
        <g id="search/filter" transform="translate(-639.000000, -132.000000)" fill="#000000">
            <g id="Filter_1200" transform="translate(0.000000, 79.000000)">
                <path d="M640,55 C640.552285,55 641,54.5522847 641,54 C641,53.4477153 640.552285,53 640,53 C639.447715,53 639,53.4477153 639,54 C639,54.5522847 639.447715,55 640,55 Z M645,55 C645.552285,55 646,54.5522847 646,54 C646,53.4477153 645.552285,53 645,53 C644.447715,53 644,53.4477153 644,54 C644,54.5522847 644.447715,55 645,55 Z M650,55 C650.552285,55 651,54.5522847 651,54 C651,53.4477153 650.552285,53 650,53 C649.447715,53 649,53.4477153 649,54 C649,54.5522847 649.447715,55 650,55 Z" id="Combined-Shape"></path>
            </g>
        </g>
    </g>
</svg>