<?xml version="1.0" encoding="utf-8"?>
<!-- Generator: Adobe Illustrator 15.0.0, SVG Export Plug-In . SVG Version: 6.00 Build 0)  -->
<!DOCTYPE svg PUBLIC "-//W3C//DTD SVG 1.1//EN" "http://www.w3.org/Graphics/SVG/1.1/DTD/svg11.dtd">
<svg version="1.1" id="Слой_1" xmlns="http://www.w3.org/2000/svg" xmlns:xlink="http://www.w3.org/1999/xlink" x="0px" y="0px"
	 width="24.75px" height="23.583px" viewBox="0 0 24.75 23.583" enable-background="new 0 0 24.75 23.583" xml:space="preserve">
<g>
	<path d="M12.115,22.546L11.75,22.12c-0.041-0.048-4.185-4.881-7.41-8.193c-3.265-3.353-4.141-5.852-3.124-8.913
		C2.28,1.812,5.312,1.466,6.564,1.466c0.216,0,0.406,0.009,0.562,0.021c1.116,0.086,2.668,0.941,5.005,2.762
		c2.109-1.619,4.132-2.669,5.336-2.762c0.155-0.012,0.345-0.021,0.561-0.021c1.254,0,4.285,0.346,5.349,3.547
		c1.018,3.059,0.142,5.558-3.124,8.913c-3.233,3.319-7.71,8.159-7.755,8.208L12.115,22.546z M6.564,2.466
		c-1.287,0-3.571,0.372-4.399,2.863c-0.754,2.27-0.533,4.383,2.892,7.9c2.686,2.757,5.997,6.555,7.087,7.815
		c1.154-1.244,4.701-5.054,7.392-7.816c3.426-3.519,3.646-5.631,2.892-7.899c-0.946-2.851-3.817-2.927-4.884-2.845
		c-1.042,0.081-3.093,1.203-5.103,2.792L12.13,5.522l-0.311-0.246c-2.281-1.807-3.842-2.72-4.77-2.792
		C6.915,2.474,6.751,2.466,6.564,2.466z"/>
</g>
</svg>
