<?xml version="1.0" encoding="UTF-8" standalone="no"?>
<svg width="19px" height="18px" viewBox="0 0 19 18" version="1.1" xmlns="http://www.w3.org/2000/svg" xmlns:xlink="http://www.w3.org/1999/xlink">
    <!-- Generator: Sketch 39.1 (31720) - http://www.bohemiancoding.com/sketch -->
    <title>noun_339273_cc copy 7</title>
    <desc>Created with Sketch.</desc>
    <defs></defs>
    <g id="Page-1" stroke="none" stroke-width="1" fill="none" fill-rule="evenodd">
        <g id="websettlements_openobject_new_open" transform="translate(-580.000000, -2711.000000)" fill="#BABABA">
            <g id="noun_339273_cc-copy-7" transform="translate(580.000000, 2711.000000)">
                <g id="eye-fill-52">
                    <g id="Group">
                        <path d="M16.5619521,7.1454878 L16.5619521,16.224907 L12.7220833,16.224907 L12.7220833,9.64567532 C12.7220833,9.30670268 12.4440422,9.03159445 12.1014559,9.03159445 L7.44799149,9.03159445 C7.10540515,9.03159445 6.82736407,9.30670268 6.82736407,9.64567532 L6.82736392,16.224907 L3.12606838,16.224907 C3.12606838,16.224907 3.12606838,7.1454878 3.12606838,7.1454878 L2.05444267,7.1454878 L9.80099152,1.0272297 L17.5280151,7.1454878 L16.5619521,7.1454878 Z M7.78890623,16.1360379 L7.78890623,9.97278439 L11.8052667,9.97278439 L11.8052667,16.1360379 L7.78890623,16.1360379 Z M10.1613746,0.13356259 C9.93546619,-0.0445208633 9.61522244,-0.0445208633 9.38931406,0.13356259 L1.26778361,6.59687996 C1.11759178,6.71355532 0.66449109,7.52545622 1.26778361,7.92923109 C1.48725359,8.07611914 2.3305057,8.07231908 2.3305057,8.07231908 L2.33050564,16.3668109 C2.33050564,17.0173129 2.75123372,17.1693945 3.09382006,17.1693945 L7.44799149,17.1693942 L12.1014559,17.1693942 L16.8010426,17.1693945 C17.143629,17.1693945 17.4534406,16.8486846 17.4534406,16.509712 C17.4534406,16.509712 17.4732182,8.00819123 17.4534406,8.00513753 C17.9248829,8.00513753 18.3552589,7.92923109 18.3552589,7.92923109 C19.1269504,7.3925888 18.4318556,6.62685375 18.282905,6.51017838 L10.1613746,0.13356259 Z" id="Shape"></path>
                    </g>
                </g>
            </g>
        </g>
    </g>
</svg>