<?xml version="1.0" encoding="utf-8"?>
<!-- Generator: Adobe Illustrator 15.0.0, SVG Export Plug-In . SVG Version: 6.00 Build 0)  -->
<!DOCTYPE svg PUBLIC "-//W3C//DTD SVG 1.1//EN" "http://www.w3.org/Graphics/SVG/1.1/DTD/svg11.dtd">
<svg version="1.1" id="Слой_1" xmlns="http://www.w3.org/2000/svg" xmlns:xlink="http://www.w3.org/1999/xlink" x="0px" y="0px"
	 width="33.5px" height="34.333px" viewBox="0 0 33.5 34.333" enable-background="new 0 0 33.5 34.333" xml:space="preserve">
<path d="M29.5,2.167h-25c-1.381,0-2.5,1.119-2.5,2.5v25c0,1.381,1.119,2.5,2.5,2.5h25c1.381,0,2.5-1.119,2.5-2.5v-25
	C32,3.286,30.881,2.167,29.5,2.167z M11.511,14.979c0.891-2.201,3.006-3.623,5.39-3.623c2.376,0,4.492,1.424,5.388,3.617
	c0.28,0.703,0.423,1.44,0.423,2.193c0,3.204-2.606,5.81-5.811,5.81c-3.209,0-5.82-2.606-5.82-5.81
	C11.081,16.41,11.224,15.676,11.511,14.979z M29,29.167H5v-15h3.531c-0.293,1-0.45,1.93-0.45,2.875c0,4.858,3.957,8.873,8.82,8.873
	c4.858,0,8.811-4.046,8.811-8.904c0-0.938-0.154-1.844-0.445-2.844H29V29.167z M29,9.167c0,0.552-0.448,1-1,1h-3
	c-0.552,0-1-0.448-1-1v-3c0-0.552,0.448-1,1-1h3c0.552,0,1,0.448,1,1V9.167z"/>
</svg>
