<?xml version="1.0" encoding="UTF-8" standalone="no"?>
<svg width="301px" height="35px" viewBox="0 0 301 35" version="1.1" xmlns="http://www.w3.org/2000/svg" xmlns:xlink="http://www.w3.org/1999/xlink">
    <defs></defs>
    <g stroke="none" stroke-width="1" fill="none" fill-rule="evenodd">
        <g fill="#040D0B">
            <path d="M264.69656,33.5719064 C263.42115,33.0904464 262.25567,32.2812273 261.188926,31.1249091 C260.120146,29.9645194 258.620801,27.8534245 256.725497,24.8109641 C255.033771,22.0748873 253.570052,20.0940817 252.314999,18.8512433 C251.374472,17.9249673 250.279227,17.1452668 249.035371,16.5172314 C251.234004,16.199651 252.988839,15.5420968 254.267303,14.5018177 C255.819579,13.242693 256.600298,11.4400174 256.59419,9.2291697 C256.59419,7.89879308 256.306129,6.67834812 255.72288,5.58717464 C255.142685,4.50109059 254.318198,3.58397557 253.266722,2.84397266 C252.21321,2.1009161 250.93271,1.54107896 249.434382,1.15733605 C247.933001,0.770539479 246.238221,0.577141195 244.357168,0.577141195 C243.336229,0.577141195 242.303075,0.624981823 241.254653,0.719645194 L241.256688,0.719645194 L237.94856,1.00465319 L237.945506,1.00465319 C236.545913,1.14410353 234.977351,1.21331976 233.240838,1.21331976 C232.145593,1.21331976 231.184709,1.19092628 230.360222,1.14410353 L228.273556,1.02602879 L228.260324,1.02602879 C228.100516,1.02602879 227.912207,1.01584993 227.700487,1.00261742 L227.283153,0.972080849 L227.283153,2.44801512 L227.598698,2.50908827 C229.119419,2.79714992 230.196342,3.33561146 230.87629,4.08681111 L230.879344,4.08986477 C231.255961,4.49701905 231.513486,4.98051476 231.658026,5.56783481 C231.802566,6.15210121 231.885015,7.17405846 231.881961,8.59095536 L231.881961,26.405991 C231.89214,28.6249818 231.563363,30.0724153 231.071724,30.6729679 L231.065617,30.6750036 L231.063581,30.6790752 C230.366329,31.6012796 229.245637,32.2130289 227.606841,32.488876 L227.281118,32.5438418 L227.281118,33.9973826 L243.070561,33.9973826 L243.070561,32.541806 L242.739748,32.4909117 C241.144721,32.2466192 239.991456,31.7142649 239.238221,30.9335466 C238.810709,30.458194 238.525701,29.9339828 238.375054,29.335466 C238.225425,28.7328777 238.138904,27.7475643 238.14094,26.4080268 L238.14094,17.1004799 L241.856223,17.1004799 C242.91686,17.1004799 243.741347,17.2022684 244.305256,17.3875236 C244.865093,17.5707431 245.33841,17.900538 245.753707,18.4074451 C246.17613,18.924531 246.695252,19.797877 247.287661,21.0132325 L248.535589,23.627163 L248.537625,23.6291988 C249.542278,25.6853279 250.7159,27.5154864 252.059509,29.1156027 C253.403119,30.7136833 254.841391,31.9941835 256.375345,32.9489603 L256.377381,32.9509961 L256.379416,32.9509961 C257.606986,33.6940526 258.844735,34.2131743 260.092663,34.5083612 C261.33143,34.7974407 262.817543,34.9562309 264.553039,34.9898211 L264.950014,35 L264.950014,33.6675876 L264.695543,33.5719064 L264.69656,33.5719064 Z M236.714882,2.9691726 L236.555074,3.08114003 L236.551003,3.08521157 L236.546931,3.090301 C236.068525,3.4536862 235.742802,3.75701614 235.555511,4.08273957 C235.372291,4.41049876 235.304093,4.80950996 235.304093,5.28893413 C235.304093,5.5189763 235.300021,5.68183801 235.293914,5.75512578 L235.293914,5.75105424 C235.283735,5.85589647 235.279664,5.96073869 235.279664,6.06659881 L235.279664,28.935437 C235.279664,29.0392613 235.283735,29.1420678 235.293914,29.2387669 C235.297985,29.29984 235.304093,29.469827 235.304093,29.7171732 C235.306129,30.226116 235.380434,30.6475207 235.589101,30.9854588 C235.796749,31.3050749 236.150974,31.6165479 236.684346,32.0135233 L232.158826,32.0135233 C232.704413,31.6185837 233.064744,31.3152537 233.268321,30.9956376 C233.466809,30.6658427 233.532972,30.2525811 233.537043,29.7385488 L233.540097,29.7385488 C233.556383,29.4637196 233.563508,29.1990694 233.563508,28.9374727 L233.563508,6.06659881 C233.563508,5.80500218 233.555365,5.53933401 233.540097,5.26450487 L233.538061,5.26450487 C233.535007,4.76065145 233.45663,4.33415734 233.247964,3.98705831 C233.032172,3.63792351 232.661661,3.3254326 232.128289,2.96408318 L231.924712,2.81852552 C232.558855,2.83481169 233.109531,2.84499055 233.551294,2.84499055 C234.592591,2.84499055 235.765195,2.80223935 237.032463,2.72488003 L236.716918,2.9691726 L236.714882,2.9691726 Z M251.650319,4.92147739 C252.813763,6.13479715 253.380725,7.51403228 253.383779,9.13552421 C253.383779,9.87043769 253.238221,10.5707431 252.951177,11.2486549 C252.666169,11.9275847 252.259015,12.5271194 251.725643,13.0604915 C251.196342,13.5918278 250.512323,14.0732878 249.667478,14.498764 L249.64712,14.5069071 C249.976915,14.1750763 250.280245,13.8249237 250.51843,13.4381271 C251.243165,12.2655228 251.5923,10.7844991 251.5923,9.02050313 C251.5923,7.98734913 251.426384,7.01526829 251.093536,6.11240366 C250.762723,5.20648539 250.271084,4.39523048 249.625745,3.68372837 C249.481205,3.52392031 249.303075,3.38854152 249.140213,3.23789443 C250.110258,3.65217391 250.956121,4.20081431 251.650319,4.92249527 L251.650319,4.92147739 Z M247.059655,14.5913916 L247.057619,14.5913916 C246.096735,15.0932092 244.383633,15.3782172 241.974298,15.3751636 L238.14094,15.3751636 L238.14094,7.57815908 C238.136869,5.95666715 238.35775,4.79729533 238.72826,4.13159808 C239.07027,3.52595609 239.552748,3.0831758 240.214373,2.77373855 C240.879053,2.46531918 241.733059,2.30143958 242.779445,2.30245747 C244.186163,2.30245747 245.420859,2.59357278 246.499818,3.16460666 C247.578777,3.74072997 248.406318,4.53875236 249.009924,5.57699578 C249.612512,6.6152392 249.915842,7.78580777 249.915842,9.10905918 C249.915842,10.3936309 249.655263,11.5112694 249.14632,12.4782609 C248.634324,13.4483059 247.945215,14.1394503 247.061691,14.5893558 L247.059655,14.5913916 Z M255.307583,30.0225389 C253.42144,28.3633852 251.635051,25.9031554 249.967754,22.6428675 C249.809982,22.2967864 249.648138,21.9659735 249.482223,21.650429 L248.97328,20.6814018 C248.403264,19.5617275 248.014432,18.8329213 247.778282,18.4593573 L247.775228,18.4552857 C247.683619,18.3076923 247.561472,18.1641704 247.45663,18.0175949 C247.766067,18.2109932 248.07754,18.4013378 248.367638,18.6252726 C249.15141,19.2298968 249.945361,20.0401338 250.739312,21.0580195 C251.533262,22.0759052 252.436127,23.4276574 253.436709,25.1010615 L253.438745,25.1010615 C254.510578,26.8681111 255.281118,28.0732878 255.754434,28.738985 C256.232841,29.4026465 256.882252,30.1742039 257.708775,31.0648539 L257.716918,31.0699433 L257.723025,31.0760506 C258.293041,31.6358877 258.794859,32.0705249 259.257997,32.434928 C257.817689,31.8547332 256.491384,31.0668896 255.305547,30.0225389 L255.307583,30.0225389 Z M288.996546,1.00261742 L288.996546,2.46124764 L289.328377,2.51214192 C290.804311,2.73811255 292.002362,3.30812854 292.964264,4.22524357 C294.079867,5.27977316 294.684491,7.08041297 294.684491,9.70146866 L294.684491,20.6742766 C294.684491,23.2556347 294.386251,25.2608696 293.816235,26.6655518 C293.083357,28.4600843 292.014577,29.8291406 290.594626,30.8083467 C289.175694,31.7814454 287.500254,32.2700305 285.519448,32.2710484 C284.16566,32.2710484 282.872945,32.0186128 281.631125,31.5076341 C280.386251,31.0017449 279.379562,30.3095827 278.587647,29.4270758 C277.129016,27.8025302 276.368656,25.4980369 276.35237,22.442344 L276.35237,8.59095536 C276.350334,7.39595754 276.41955,6.47680675 276.543732,5.85996801 C276.665878,5.25330813 276.899992,4.74029373 277.235894,4.30260288 C277.970808,3.39872037 279.187181,2.78595318 280.953213,2.51112404 L281.285044,2.46022975 L281.285044,1.00261742 L265.490511,1.00261742 L265.490511,2.45819398 L265.819288,2.51214192 C267.302348,2.75439872 268.372146,3.28878872 269.083648,4.08477534 L269.085684,4.08681111 C269.478587,4.52450196 269.74222,5.03649847 269.877599,5.64417624 C270.018067,6.25999709 270.091355,7.25243566 270.091355,8.59095536 L270.091355,19.940381 C270.091355,23.4195143 270.532099,26.111822 271.453286,28.0396975 L271.453286,28.0417333 C272.135269,29.4535408 273.059509,30.6678784 274.217863,31.669478 C275.373164,32.6700596 276.721862,33.4365276 278.252762,33.9617566 C279.78468,34.4910571 281.461138,34.7496001 283.27501,34.7496001 C284.978951,34.7496001 286.579067,34.5154864 288.066198,34.0492948 C289.556383,33.5790316 290.880652,32.888905 292.02781,31.9758616 C293.17802,31.063836 294.1216,29.9523048 294.851424,28.6524647 L294.85346,28.6494111 C295.40719,27.6518831 295.807219,26.5505308 296.050494,25.3514614 C296.294786,24.1452668 296.413879,22.5828123 296.413879,20.6488294 L296.413879,9.13450633 C296.413879,7.76036062 296.556383,6.63254326 296.821033,5.75512578 C297.088737,4.88381562 297.510142,4.20793951 298.088301,3.69187146 C298.668496,3.17682129 299.456339,2.77577432 300.4671,2.50399884 L300.755162,2.42562164 L300.755162,1.00159953 L288.998582,1.00159953 L288.996546,1.00261742 Z M275.519739,30.6688963 C273.561327,28.971063 272.408063,26.6757307 272.05282,23.6963792 C271.865529,22.1013523 271.774938,20.7546895 271.774938,19.6604624 L271.774938,6.02588338 L271.764759,5.99229315 C271.759669,5.95361349 271.74949,5.68692744 271.74949,5.28486259 C271.74949,4.76574088 271.657881,4.31787116 271.428856,3.95550385 C271.201868,3.59924386 270.835429,3.28675294 270.32954,2.95594009 L269.925439,2.67703941 L275.338555,2.67703941 L274.935473,2.9549222 C274.411262,3.30100334 274.043805,3.61654791 273.81987,3.96873637 C273.606114,4.32092482 273.509415,4.75556202 273.494147,5.27163007 L273.494147,21.0488585 C273.494147,23.1131307 273.638686,24.7916243 273.939981,26.1036789 C274.242293,27.4167515 274.778718,28.5924095 275.553329,29.6102952 C276.499963,30.8867239 277.726515,31.900538 279.201432,32.6741312 C277.812018,32.2466192 276.582412,31.5819398 275.519739,30.6638069 L275.519739,30.6688963 Z M295.01225,4.04100625 C294.791369,3.68678203 294.559291,3.3610586 294.305838,3.10251563 C294.161298,2.95594009 293.988257,2.82056129 293.815217,2.68111095 L295.861167,2.68111095 C295.545623,3.09844409 295.26265,3.54936746 295.013268,4.04100625 L295.01225,4.04100625 Z M221.728551,15.5095245 C221.426239,14.9985459 221.013995,14.5812127 220.501999,14.2829722 C219.982877,13.9776065 219.396575,13.8289952 218.768539,13.8289952 C218.140504,13.8289952 217.55522,13.9786244 217.038134,14.2829722 C216.526137,14.5812127 216.111858,14.997528 215.812599,15.5095245 C215.509269,16.0255926 215.354551,16.6139305 215.357604,17.241966 C215.357604,17.8669478 215.510287,18.45325 215.813617,18.9723717 C216.111858,19.4813145 216.526137,19.8986477 217.038134,20.1958703 C217.557255,20.501236 218.14254,20.6518831 218.770575,20.6518831 C219.398611,20.6518831 219.986949,20.4992002 220.504035,20.1958703 C221.016031,19.8976298 221.428275,19.4833503 221.729569,18.9713538 C222.030863,18.4522321 222.18151,17.8659299 222.18151,17.2409481 C222.18151,16.6118947 222.030863,16.0255926 221.728551,15.5074887 L221.728551,15.5095245 Z M218.803148,18.98764 C218.801112,19.1260724 218.770575,19.1576269 218.770575,19.1576269 C218.770575,19.1576269 218.754289,19.1840919 218.628071,19.1861277 C218.210738,19.1820561 217.847353,19.0181765 217.464628,18.603897 C217.092082,18.1936891 216.923113,17.7621056 216.918023,17.2429839 C216.923113,16.7167369 217.091064,16.2861713 217.457503,15.8739276 C217.830049,15.4647375 218.192416,15.29984 218.628071,15.2957685 C218.754289,15.2978043 218.768539,15.3222335 218.770575,15.3212156 C218.770575,15.3212156 218.801112,15.3558238 218.803148,15.4942562 L218.803148,18.98764 L218.803148,18.98764 Z M34.225861,31.4475789 C33.5418418,31.08114 32.8079462,30.4449615 32.0455498,29.5298822 L30.2398206,27.0218118 C30.1604255,26.895594 30.0871377,26.7846445 30.0107963,26.6828559 L30.012832,26.6848917 L29.7715931,26.3632398 L20.2543618,12.0517668 L21.6081498,10.7000145 L22.1221821,10.2083757 L24.411407,8.01279628 C27.813181,4.7637051 30.8342658,2.78900683 33.4258028,2.0652901 L33.7108108,1.98385924 L33.7108108,0.614802966 L19.8818156,0.614802966 L19.8818156,2.0937909 L20.2380756,2.12636324 C21.2488361,2.2149193 22.0163219,2.51926712 22.5873558,3.02210266 C23.1512645,3.52086666 23.4159148,4.11836557 23.4220221,4.9204595 C23.4220221,5.51083321 23.2286238,6.12665406 22.8112907,6.78827977 C22.3939575,7.44990548 21.6101855,8.34055547 20.4742251,9.42867529 L20.4670999,9.43681838 L11.8618941,17.8241966 L11.8618941,8.20110513 C11.8618941,6.98982114 11.9331461,6.05336629 12.0654713,5.4120983 C12.1977964,4.76777665 12.4084988,4.28020939 12.6762027,3.93209248 C13.3887227,3.00785226 14.5236653,2.39508507 16.1594076,2.12025593 L16.485131,2.06732587 L16.485131,0.613785081 L1.00003577,0.613785081 L1.00003577,2.06834375 L1.32881285,2.1222917 C2.81085444,2.36658427 3.87861655,2.89893849 4.59215443,3.695943 L4.59622597,3.7030682 C4.97284368,4.11022248 5.23240454,4.59371819 5.37490854,5.17900247 C5.51741253,5.76530464 5.60189705,6.78726189 5.59884339,8.20212302 L5.59884339,26.0212302 C5.60902225,28.2371674 5.28024517,29.6856187 4.78758848,30.2861713 L4.78453483,30.2882071 L4.78148117,30.2932965 C4.08524735,31.2155009 2.96251941,31.8272503 1.32372343,32.1020794 L0.998,32.1580631 L0.998,33.6085502 L16.788461,33.6085502 L16.788461,32.1509379 L16.4566302,32.1000436 C14.8616033,31.8557511 13.7103746,31.3244147 12.9551034,30.5447143 C12.5275914,30.0693616 12.2425834,29.5451505 12.0919363,28.9466337 C11.9392535,28.3440454 11.8547689,27.3556783 11.8547689,26.0212302 L11.8547689,20.1928166 L15.6474111,16.5284281 L22.915115,27.4645921 L22.9181687,27.4717173 C23.4607018,28.2605787 23.8220512,28.8733459 23.9869487,29.273375 L23.9869487,29.2764287 C24.1599892,29.6805293 24.2414201,30.066308 24.2414201,30.4337647 C24.2312412,31.0607823 24.055147,31.3854879 23.7070301,31.6104406 C23.3456807,31.8445543 22.5222111,32.0379526 21.3099093,32.09699 L20.9393989,32.1153119 L20.9393989,33.6085502 L37.0627084,33.6085502 L37.0627084,32.1193835 L36.6942338,32.0959721 C35.7333497,32.0348989 34.9129338,31.8140177 34.2248431,31.4445252 L34.225861,31.4475789 Z M25.5972439,31.6236731 C25.8924307,31.1920896 26.0654713,30.7309873 26.0654713,30.244438 C26.0654713,29.7843536 25.9260209,29.3008579 25.6715495,28.7858078 C25.4170781,28.2748291 24.9213677,27.4523775 24.162025,26.2797732 L16.8790528,15.3344482 L18.1514099,14.0773593 L27.1474838,27.6610441 L27.8620396,28.6158209 L29.2595966,30.4154428 C29.5802306,30.8307401 29.9802597,31.232805 30.440344,31.6267268 L25.5972439,31.6267268 L25.5972439,31.6236731 Z M27.7215713,2.26784935 C26.789188,2.98240512 25.8771624,3.75396248 24.9834588,4.58455722 C24.945797,3.73462266 24.6241451,2.94881489 24.0246104,2.26784935 L27.7215713,2.26784935 L27.7215713,2.26784935 Z M5.46041094,2.29126072 L10.8195792,2.29126072 L10.4327826,2.57830449 C9.9136609,2.93863603 9.55129359,3.25214483 9.33346605,3.59313654 C9.10953119,3.94430711 9.02402879,4.38199796 9.02402879,4.89806602 C9.02402879,5.12810819 9.01893936,5.29198779 9.01181416,5.36120401 C9.00468896,5.4690999 8.99959953,5.57496001 8.99959953,5.67878435 L8.99959953,28.543551 C8.99959953,28.6483932 9.00367108,28.7501818 9.01384993,28.8519703 C9.01893936,28.9089719 9.02402879,29.0789588 9.02402879,29.3222335 C9.02708245,29.8332122 9.09935233,30.2556347 9.30903679,30.5945907 C9.51566759,30.9101352 9.8709097,31.2226261 10.4083534,31.6226552 L5.8757083,31.6226552 C6.42333081,31.2256798 6.78162658,30.9223499 6.98520372,30.6047695 C7.18674509,30.2688672 7.24985401,29.8576414 7.25494343,29.344627 C7.27122961,29.0728515 7.27937269,28.8051476 7.27937269,28.543551 L7.27937269,5.67776647 C7.27937269,5.41718773 7.26919383,5.15050167 7.25392555,4.87567253 C7.24883612,4.34840774 7.18979875,3.93412825 6.98113218,3.6033154 C6.7734835,3.28777083 6.41111618,2.98545878 5.84618962,2.57728661 L5.45939305,2.29227861 L5.46041094,2.29126072 Z M10.4338005,31.6470845 L10.4317647,31.6470845 L10.4338005,31.6470845 L10.4338005,31.6470845 Z M42.427984,1.73549513 L42.427984,2.06834375 L42.757779,2.1222917 C44.2418563,2.36658427 45.3096184,2.89893849 46.0231563,3.695943 L46.02621,3.70001454 L46.0282457,3.7030682 C46.4068992,4.11022248 46.6644243,4.59371819 46.8089641,5.18103824 C46.9514681,5.76428675 47.0328989,6.78726189 47.0328989,8.20212302 L47.0328989,26.0202123 C47.041042,28.2361495 46.7132828,29.6846008 46.2206261,30.2851534 L46.2165546,30.2882071 L46.2145188,30.2912607 C45.5193029,31.2124473 44.3945392,31.8241966 42.757779,32.0990257 L42.4300198,32.1550095 L42.4300198,33.6075324 L57.9161329,33.6075324 L57.9161329,32.1550095 L57.5873558,32.1010615 C56.1042964,31.8567689 55.0365342,31.3244147 54.3229964,30.5284281 L54.308746,30.5080704 L54.3229964,30.5263923 C53.9443429,30.1029519 53.6796926,29.5899375 53.5270097,28.9608841 C53.3743269,28.3318307 53.2908603,27.3404101 53.2908603,26.0191944 L53.2908603,8.20415879 C53.2908603,6.9928748 53.3621123,6.05641995 53.4944374,5.41515196 C53.6267625,4.77184819 53.8405185,4.28326305 54.1051688,3.93514614 C54.8176888,3.01090592 55.9516135,2.39813872 57.5904095,2.12330958 L57.9161329,2.07037953 L57.9161329,0.613785081 L42.427984,0.613785081 L42.427984,1.73549513 L42.427984,1.73549513 Z M46.8903949,2.29126072 L52.2505811,2.29126072 L51.8637845,2.57830449 C51.3120904,2.98749455 50.9476874,3.30507489 50.7390208,3.62672677 L50.7390208,3.62978043 C50.5293363,3.96568271 50.4540128,4.38708739 50.4540128,4.8990839 C50.4540128,5.12912607 50.4489234,5.29300567 50.4438339,5.36731133 C50.4336551,5.4690999 50.4306014,5.57394213 50.4306014,5.67980224 L50.4306014,28.543551 C50.4306014,28.6483932 50.434673,28.7501818 50.4438339,28.8489167 C50.4489234,28.907954 50.4540128,29.077941 50.4540128,29.3222335 C50.4540128,29.8352479 50.5293363,30.2556347 50.7390208,30.5945907 C50.9446337,30.9101352 51.3019116,31.2226261 51.8352837,31.6226552 L47.3077281,31.6226552 C47.8533148,31.2256798 48.2136464,30.9223499 48.4172235,30.6047695 C48.617747,30.2719209 48.6818738,29.8576414 48.6869632,29.344627 C48.7022315,29.0728515 48.7103746,28.8051476 48.7103746,28.543551 L48.7103746,5.67776647 C48.7103746,5.41718773 48.7022315,5.15050167 48.6859453,4.87567253 C48.6788201,4.34840774 48.617747,3.93311037 48.4111162,3.6033154 C48.2034675,3.28777083 47.8411002,2.98647666 47.2761736,2.57728661 L46.8893771,2.29227861 L46.8903949,2.29126072 Z M94.1772933,23.1976152 L93.877017,23.6118947 C91.8493887,26.2309146 89.7922417,28.2636324 87.7106654,29.7090301 C85.8448809,30.9915661 83.9017371,31.6226552 81.8445901,31.6226552 L79.672422,31.6226552 C78.3837787,31.6226552 77.4045726,31.4597935 76.7551616,31.161553 C76.1210188,30.8714556 75.6965604,30.3981387 75.4288565,29.6550822 C75.1611525,28.899811 75.014577,27.741457 75.0155949,26.2085212 L75.0155949,16.3818526 L77.8351383,16.3818526 C79.4433977,16.3818526 80.6994687,16.5508216 81.5860471,16.8663661 C82.4614288,17.1788571 83.1200009,17.6989967 83.6045145,18.4563036 C84.0910638,19.2156464 84.5043254,20.3750182 84.8117269,21.9191508 L84.8728001,22.2346954 L86.2947864,22.2346954 L86.2947864,9.50705249 L84.8789074,9.50705249 L84.8147806,9.81852552 C84.4147515,11.7168824 83.7022315,12.9607387 82.7321864,13.6254181 C81.7601056,14.2992584 80.0978982,14.6809655 77.7628684,14.6758761 L75.014577,14.6758761 L75.014577,7.04173331 C75.014577,5.24007561 75.4339459,4.03693471 76.1749667,3.3539334 C76.9108981,2.66584266 78.273847,2.26275992 80.287225,2.2647957 L81.6104764,2.2647957 C84.1287256,2.26683147 86.1258174,2.88875963 87.6567175,4.10513305 C89.1876176,5.32150647 90.368365,7.23716737 91.1714768,9.89283118 L91.2559613,10.1727497 L92.7339314,10.1727497 L91.7587969,0.610731424 L64.1557723,0.610731424 L64.1557723,2.06630798 L64.4835315,2.12025593 C65.966591,2.36454849 67.0343531,2.89690272 67.7478909,3.69390723 L67.7529804,3.69899666 C68.1295981,4.10615094 68.3871232,4.58964665 68.5326808,5.1769667 C68.6772206,5.7612331 68.7586514,6.78522612 68.7566157,8.20008725 L68.7566157,26.0171586 C68.7647588,28.2341137 68.4410711,29.6815472 67.9463787,30.2820998 L67.9412892,30.2861713 L67.9412892,30.289225 C67.2430196,31.2114294 66.1192738,31.8231787 64.4825136,32.0980079 L64.1567902,32.1539916 L64.1567902,33.6044787 L92.7115379,33.6044787 L95.7244796,23.1945616 L94.1762754,23.1945616 L94.1772933,23.1976152 Z M89.3016208,2.26988512 L89.5275914,3.63792351 C89.2079753,3.28573506 88.8995559,2.98851243 88.6013154,2.75236295 C88.3906131,2.58542969 88.150392,2.42663952 87.8938848,2.26988512 L89.3006029,2.26988512 L89.3016208,2.26988512 Z M73.9773515,2.2932965 L73.5905549,2.58034026 C73.0714332,2.9406718 72.708048,3.2541806 72.4892026,3.59313654 C72.2652677,3.94736077 72.1797653,4.38505162 72.1797653,4.90111967 C72.1797653,5.13116184 72.173658,5.29504144 72.1695864,5.3693471 C72.1594076,5.47113567 72.1543182,5.5759779 72.1543182,5.68183801 L72.1543182,28.543551 C72.1543182,28.6483932 72.1594076,28.7501818 72.1685686,28.8489167 C72.1726401,28.907954 72.1787474,29.077941 72.1787474,29.3222335 C72.1787474,29.8352479 72.2520352,30.2556347 72.4607018,30.5945907 C72.6683504,30.9101352 73.0246104,31.2226261 73.5600183,31.6226552 L69.0304269,31.6226552 C69.5770316,31.2256798 69.9363452,30.9223499 70.1399223,30.6047695 C70.3404458,30.2719209 70.4045726,29.8576414 70.4096621,29.344627 L70.4116978,29.344627 C70.4269661,29.0728515 70.4340913,28.8051476 70.4340913,28.543551 L70.4340913,5.67776647 C70.4340913,5.41718773 70.4259482,5.15050167 70.4116978,4.87567253 L70.4096621,4.87567253 C70.4055905,4.37385488 70.3323027,3.9595754 70.1277077,3.62876254 L70.1256719,3.62672677 C69.9159875,3.30507489 69.5536202,2.98749455 69.0009082,2.57830449 L68.6141117,2.29126072 L73.9753157,2.29126072 L73.9773515,2.2932965 Z M90.4518316,31.6257089 L87.8725092,31.6257089 C88.1514099,31.4608114 88.4272569,31.2969318 88.7010682,31.116766 C89.4166418,30.6485386 90.065035,30.1558819 90.6391226,29.6275992 C90.8325209,29.4494692 91.0279549,29.256071 91.2223711,29.0647084 L90.4508137,31.6257089 L90.4518316,31.6257089 Z M82.6955425,15.5634724 C82.9907294,15.4352188 83.2207716,15.3242693 83.3815975,15.2275702 C83.5088332,15.1461393 83.6564266,15.0372255 83.8121632,14.9120256 L83.8121632,16.253599 C83.4477601,15.9736804 83.0752139,15.7517813 82.6945246,15.5634724 L82.6955425,15.5634724 Z M121.81798,1.73549513 L121.81798,2.05918278 L122.13556,2.12025593 C123.809982,2.44088992 125.026355,2.95899375 125.786716,3.624691 C126.543005,4.28937036 126.910462,5.12301876 126.914533,6.24574669 C126.916569,7.13741457 126.619347,8.31409045 126.002508,9.74930929 L118.975025,25.9387814 L110.616147,6.76893994 L110.626326,6.7933692 C110.231387,5.89762978 110.046131,5.1342155 110.046131,4.52043042 C110.054275,3.70815763 110.297549,3.2256798 110.79326,2.88774175 C111.296095,2.54573215 112.311945,2.26988512 113.789915,2.1507925 L114.298858,2.12738113 L114.669368,2.10905918 L114.669368,0.613785081 L98.5491124,0.613785081 L98.5491124,2.04595027 L98.8524423,2.11720227 C100.180783,2.41951432 101.167114,2.9620474 101.859277,3.731569 C102.556528,4.50516213 103.454304,6.10120692 104.48135,8.47491639 L104.485422,8.48305947 L116.007888,34.3882507 L117.035953,34.3882507 L127.61891,10.3885415 L127.61891,10.3915952 C128.447469,8.5451505 129.199687,7.09059183 129.870473,6.03809801 C130.537189,4.98763996 131.246655,4.15500945 131.995819,3.53409917 C132.746001,2.91115312 133.60815,2.42663952 134.589392,2.07852261 L134.850988,1.9869129 L134.850988,0.613785081 L121.818998,0.613785081 L121.818998,1.73549513 L121.81798,1.73549513 Z M129.971244,2.29126072 C129.608877,2.61698415 129.277046,2.94881489 129.008324,3.28573506 C128.727388,3.63486986 128.45663,4.04711357 128.190962,4.50923368 C128.060673,4.08884688 127.879489,3.70510397 127.635196,3.36920169 C127.367493,3.00276283 126.996982,2.64650284 126.544023,2.29024284 L129.972262,2.29024284 L129.971244,2.29126072 Z M106.119128,7.90490039 C105.91148,7.41020794 105.681438,6.9073724 105.426966,6.40046532 C105.172495,5.89152247 104.86204,5.3052203 104.498654,4.64155882 L104.496619,4.63646939 C104.008033,3.76923077 103.424785,3.0047986 102.751962,2.34113712 L107.978806,2.34113712 C107.74062,2.60069798 107.551294,2.85007998 107.418968,3.10047986 C107.184855,3.54529591 107.06678,4.04202414 107.06678,4.56928893 C107.06678,5.41616984 107.313108,6.36789298 107.783372,7.43972662 L117.390177,29.5604188 L116.518867,31.5391886 L106.118111,7.90388251 L106.119128,7.90490039 Z M172.399774,31.4475789 C171.714737,31.08114 170.984913,30.4449615 170.219463,29.5298822 L168.412716,27.0218118 C168.336374,26.8976298 168.260033,26.7846445 168.186745,26.6859096 L168.184709,26.6828559 L167.945506,26.3622219 L158.430311,12.0507489 L159.781045,10.7000145 L160.295077,10.2093936 L162.583284,8.01584993 C165.986076,4.76675876 169.008179,2.79206049 171.601752,2.06834375 L171.88676,1.9869129 L171.88676,0.614802966 L158.049621,0.614802966 L158.049621,2.0937909 L158.405881,2.12636324 C159.416642,2.2149193 160.187181,2.51926712 160.757197,3.02210266 C161.320088,3.52086666 161.584738,4.11836557 161.591864,4.9204595 C161.589828,5.51083321 161.398465,6.12665406 160.978079,6.78827977 C160.563799,7.44990548 159.780027,8.34055547 158.643049,9.42867529 L158.635924,9.43681838 L150.030718,17.8241966 L150.030718,8.20110513 C150.030718,6.98982114 150.10197,6.05336629 150.234295,5.4120983 C150.368656,4.76879453 150.57834,4.28020939 150.845026,3.93209248 C151.557546,3.00785226 152.691471,2.39508507 154.329249,2.12025593 L154.654973,2.06732587 L154.654973,0.613785081 L139.170895,0.613785081 L139.170895,2.06834375 L139.496619,2.1222917 C140.982732,2.36658427 142.049476,2.89893849 142.761996,3.695943 L142.766067,3.70001454 L142.768103,3.7030682 C143.144721,4.11022248 143.404282,4.59371819 143.548822,5.18103824 C143.693361,5.76428675 143.772756,6.78726189 143.772756,8.20212302 L143.772756,26.0202123 C143.782935,28.2361495 143.454158,29.6846008 142.960484,30.2851534 L142.956412,30.2882071 L142.956412,30.2912607 C142.260178,31.2124473 141.134397,31.8241966 139.498654,32.0990257 L139.172931,32.1550095 L139.172931,33.6075324 L154.965428,33.6075324 L154.965428,32.14992 L154.633597,32.0990257 C153.03857,31.8547332 151.888359,31.3233968 151.13207,30.5436964 C150.704558,30.0683438 150.41955,29.5441326 150.269921,28.9456158 C150.117238,28.3430275 150.033771,27.3546605 150.033771,26.0202123 L150.033771,20.1917987 L153.82336,16.5274102 L161.094117,27.4635742 L161.094117,27.4717173 C161.638686,28.2615966 162.000036,28.8743638 162.166969,29.2754108 C162.337974,29.6825651 162.419405,30.0673259 162.419405,30.4358005 C162.411262,31.0597644 162.234149,31.3865057 161.883997,31.6114585 C161.523665,31.8455722 160.700196,32.0389705 159.487894,32.0980079 L159.117383,32.1163298 L159.117383,33.610586 L175.238657,33.610586 L175.238657,32.1204013 L174.872218,32.09699 C173.909299,32.0359168 173.088883,31.8160535 172.400792,31.4475789 L172.399774,31.4475789 Z M163.844445,28.7858078 C163.592009,28.2748291 163.094263,27.4523775 162.33492,26.2797732 L155.055002,15.3344482 L156.327359,14.0773593 L165.322415,27.6610441 L166.045114,28.6229461 L167.43351,30.4144249 C167.753126,30.8287044 168.152137,31.2307692 168.610186,31.6236731 L163.771157,31.6236731 C164.06329,31.1920896 164.239384,30.7309873 164.239384,30.244438 C164.237349,29.7843536 164.094845,29.3008579 163.845463,28.7858078 L163.843427,28.7858078 L163.844445,28.7858078 Z M165.894466,2.26784935 C164.962083,2.98240512 164.050058,3.75396248 163.156354,4.58353933 C163.118692,3.73360477 162.795005,2.947797 162.199541,2.26784935 L165.894466,2.26784935 L165.894466,2.26784935 Z M143.633306,2.29126072 L148.993492,2.29126072 L148.606696,2.57830449 C148.087574,2.93863603 147.725207,3.25214483 147.505343,3.59110077 C147.283444,3.945325 147.199978,4.38301585 147.196924,4.8990839 C147.196924,5.12912607 147.192852,5.29300567 147.186745,5.36731133 C147.176566,5.4690999 147.173513,5.57394213 147.173513,5.67980224 L147.173513,28.543551 C147.173513,28.6483932 147.177584,28.7501818 147.187763,28.8489167 C147.192852,28.907954 147.197942,29.077941 147.197942,29.3222335 C147.197942,29.8352479 147.27123,30.2556347 147.48295,30.5945907 C147.686527,30.9101352 148.044823,31.2226261 148.578195,31.6226552 L144.048603,31.6226552 C144.596226,31.2256798 144.954522,30.9223499 145.158099,30.6047695 C145.361676,30.2719209 145.424785,29.8576414 145.430892,29.344627 C145.447178,29.0728515 145.454304,28.8051476 145.454304,28.543551 L145.454304,5.67776647 C145.454304,5.41718773 145.446161,5.15050167 145.430892,4.87567253 C145.424785,4.34840774 145.363712,3.93311037 145.156063,3.6033154 C144.948414,3.28777083 144.584011,2.98647666 144.020103,2.57728661 L143.633306,2.29227861 L143.633306,2.29126072 Z M148.607714,31.6470845 L148.605678,31.6470845 L148.607714,31.6470845 L148.607714,31.6470845 Z M212.17264,30.9539043 C211.511014,30.422568 210.893158,29.6041879 210.344517,28.4906209 L210.346553,28.4926567 L209.30831,26.3418642 L209.305256,26.3388105 L209.18311,26.0914643 L209.0915,25.8817798 L209.079285,25.8512433 L208.993783,25.7138287 L197.550712,0 L196.426966,0 L185.893885,23.8327759 C184.723316,26.4711357 183.610767,28.4030827 182.58881,29.6143667 C181.565835,30.8256507 180.35964,31.660317 178.950886,32.1387233 L178.686236,32.230333 L178.686236,33.6085502 L191.715173,33.6085502 L191.715173,32.1651883 L191.399629,32.1041152 C190.22906,31.8720372 189.298713,31.5697252 188.615711,31.2083757 C187.933728,30.8470263 187.442089,30.4062818 187.113312,29.8851243 C186.787588,29.3619311 186.617602,28.738985 186.617602,27.9796423 C186.615566,27.1062964 186.910753,25.9235132 187.531663,24.4760797 L188.749054,21.6911444 L200.393667,21.6911444 L202.907844,27.4269303 C203.404573,28.5812127 203.636651,29.4199506 203.630543,29.8189618 C203.628507,30.2770103 203.513486,30.6302167 203.284462,30.9284572 C203.060527,31.2256798 202.704267,31.4781155 202.187181,31.6735495 C201.706739,31.8526974 200.813036,32.0053803 199.555947,32.0980079 L199.195615,32.123455 L199.195615,33.6075324 L215.033917,33.6075324 L215.033917,32.1712956 L214.72448,32.1051331 C213.686236,31.8791624 212.841391,31.4944016 212.171622,30.9549222 L212.17264,30.9539043 Z M204.449941,26.7805729 L195.434528,6.47884252 L196.353678,4.36164025 L206.125381,26.3316853 L206.122327,26.3215065 C206.819579,27.8585139 207.428275,29.059619 207.960629,29.9380544 C208.333175,30.5528574 208.770866,31.1035335 209.241129,31.6226552 L204.742074,31.6226552 C205.198087,30.9986913 205.450523,30.3879599 205.454594,29.7701032 C205.448487,29.1614076 205.181801,28.3755998 204.687109,27.2925694 L204.689144,27.296641 L204.451977,26.7775193 L204.449941,26.7805729 Z M199.59768,19.9179875 L189.518576,19.9179875 L194.516395,8.4667733 L199.59768,19.9179875 L199.59768,19.9179875 Z M185.25567,30.4327468 C185.418532,30.8063109 185.673004,31.2083757 185.96819,31.6236731 L183.062127,31.6236731 C183.491675,31.2470554 183.866257,30.8775629 184.171622,30.5039988 C184.438308,30.1813291 184.702959,29.8016577 184.965573,29.3771994 C185.026646,29.7436382 185.110113,30.0998982 185.254653,30.4358005 L185.25567,30.4327468 Z"></path>
        </g>
    </g>
</svg>