<?xml version="1.0" encoding="utf-8"?>
<!-- Generator: Adobe Illustrator 15.0.0, SVG Export Plug-In . SVG Version: 6.00 Build 0)  -->
<!DOCTYPE svg PUBLIC "-//W3C//DTD SVG 1.1//EN" "http://www.w3.org/Graphics/SVG/1.1/DTD/svg11.dtd">
<svg version="1.1" id="Слой_1" xmlns="http://www.w3.org/2000/svg" xmlns:xlink="http://www.w3.org/1999/xlink" x="0px" y="0px"
	 width="24.75px" height="23.583px" viewBox="0 0 24.75 23.583" enable-background="new 0 0 24.75 23.583" xml:space="preserve">
<g>
	<path d="M12.003,11.688c-1.761,0-3.193-1.433-3.193-3.193c0-1.762,1.433-3.195,3.193-3.195c1.762,0,3.195,1.434,3.195,3.195
		C15.198,10.255,13.765,11.688,12.003,11.688z M12.003,6.299c-1.209,0-2.193,0.985-2.193,2.195c0,1.209,0.984,2.193,2.193,2.193
		c1.21,0,2.195-0.984,2.195-2.193C14.198,7.284,13.213,6.299,12.003,6.299z"/>
</g>
<g>
	<path d="M11.967,22.605l-3.701-5.377C7.982,16.817,7.685,16.41,7.386,16c-1.536-2.103-3.124-4.278-3.227-7.311
		C4.102,6.982,4.885,5.161,6.307,3.691c1.548-1.601,3.644-2.556,5.605-2.556l0.066-0.01l0.05,0.013c0.003,0,0.006,0,0.009,0
		c1.953,0,4.045,0.956,5.591,2.556c1.42,1.469,2.201,3.29,2.143,4.995c-0.1,3.029-1.685,5.203-3.218,7.304
		c-0.3,0.412-0.599,0.821-0.884,1.235c-1.376,1.992-3.291,4.778-3.291,4.778L11.967,22.605z M11.964,2.135
		c-1.765,0.008-3.581,0.849-4.938,2.252C5.791,5.663,5.11,7.219,5.158,8.656c0.093,2.725,1.589,4.774,3.036,6.755
		c0.304,0.416,0.606,0.831,0.896,1.25l2.878,4.18c0.639-0.928,1.896-2.757,2.879-4.18c0.291-0.421,0.594-0.837,0.9-1.256
		c1.444-1.98,2.937-4.027,3.027-6.749c0.049-1.436-0.63-2.991-1.863-4.267c-1.364-1.411-3.192-2.254-4.889-2.254L11.964,2.135z"/>
</g>
</svg>
