<svg width="16" height="16" viewBox="0 0 16 16" fill="none" xmlns="http://www.w3.org/2000/svg">
<path d="M14.9101 10.4355C14.0974 9.78238 13.3518 9.46485 12.6308 9.46485C11.5879 9.46485 10.8369 10.1283 10.1571 10.808C10.0789 10.8862 9.98421 10.9227 9.85919 10.9227C9.28628 10.9227 8.2784 10.2053 6.86356 8.79026C5.19907 7.12566 4.56976 6.06694 4.99292 5.6436C6.14007 4.49684 6.4982 3.34724 4.74183 1.16291C4.11307 0.380342 3.49789 0 2.86117 0C2.00247 0 1.34971 0.686398 0.773792 1.29205C0.674224 1.39674 0.580169 1.49564 0.487951 1.58786C-0.162975 2.23873 -0.162641 3.65842 0.488898 5.38572C1.20375 7.28091 2.6152 9.34256 4.46328 11.1909C5.89249 12.62 7.44755 13.775 8.96046 14.5504C10.2813 15.2275 11.5625 15.5902 12.568 15.5902C12.5681 15.5902 12.5683 15.5902 12.5684 15.5902C13.1977 15.5902 13.7088 15.4529 14.0464 15.1738C14.7321 14.6068 16.0085 13.5567 16 12.3093C15.9953 11.6403 15.6287 11.0133 14.9101 10.4355Z" fill="white"/>
</svg>
