<?xml version="1.0" encoding="UTF-8"?>
<svg width="28px" height="28px" viewBox="0 0 28 28" version="1.1" xmlns="http://www.w3.org/2000/svg" xmlns:xlink="http://www.w3.org/1999/xlink">
    <!-- Generator: Sketch 40.3 (33839) - http://www.bohemiancoding.com/sketch -->
    <title>Shape</title>
    <desc>Created with Sketch.</desc>
    <defs></defs>
    <g id="Телефон" stroke="none" stroke-width="1" fill="none" fill-rule="evenodd">
        <g id="-Во-внерабочее-время" transform="translate(-146.000000, -519.000000)">
            <g id="позовнить" transform="translate(131.000000, 502.000000)">
                <g id="telephone" transform="translate(15.466667, 17.400000)">
                    <g id="Capa_1">
                        <path d="M5.5222177,17.9771981 C8.19519142,21.1657971 11.4128678,23.6763285 15.0853989,25.4527536 C16.4836562,26.1140097 18.3536147,26.8985507 20.4369618,27.0330435 C20.5661181,27.0386473 20.6896589,27.0442512 20.8188152,27.0442512 C22.2170725,27.0442512 23.3401707,26.5623188 24.2554957,25.5704348 C24.2611112,25.5648309 24.2723422,25.5536232 24.2779577,25.5424155 C24.6036562,25.1501449 24.9742786,24.7971014 25.3617474,24.4216425 C25.6256755,24.1694686 25.8952191,23.906087 26.1535317,23.6371014 C27.3496313,22.3930435 27.3496313,20.8127536 26.1423007,19.6079227 L22.7673906,16.24 C22.1946105,15.6459903 21.5095206,15.3321739 20.7907378,15.3321739 C20.0719549,15.3321739 19.3812495,15.6459903 18.791623,16.2343961 L16.7812772,18.2405797 C16.595966,18.1341063 16.4050393,18.0388406 16.2253436,17.9491787 C16.0007239,17.8371014 15.7929508,17.730628 15.6076396,17.6129469 C13.7769895,16.4529469 12.1148041,14.9399034 10.5256202,12.9953623 C9.72260498,11.9810628 9.18351784,11.1292754 8.80727994,10.2606763 C9.3351361,9.78434783 9.82929931,9.28560386 10.306616,8.79806763 C10.4750808,8.62434783 10.649161,8.45062802 10.8232412,8.27690821 C11.4297142,7.67169082 11.7554127,6.97120773 11.7554127,6.25951691 C11.7554127,5.54782609 11.4353297,4.847343 10.8232412,4.2421256 L9.1498249,2.57217391 C8.95328271,2.37603865 8.76797151,2.18550725 8.57704481,1.98937198 C8.20642241,1.60830918 7.81895353,1.21603865 7.43710014,0.862995169 C6.85870456,0.297004831 6.17923015,0 5.4604473,0 C4.74727994,0 4.06219004,0.297004831 3.4613325,0.868599034 L1.36113887,2.96444444 C0.597432089,3.72657005 0.165039281,4.65120773 0.0751914246,5.72154589 C-0.0315029046,7.06086957 0.2155787,8.48425121 0.855744675,10.2046377 C1.8384556,12.8664734 3.32094523,15.3377778 5.5222177,17.9771981 Z M1.44537123,5.83922705 C1.51275712,5.09391304 1.79914716,4.47188406 2.3382343,3.93391304 L4.42719696,1.84927536 C4.75289544,1.53545894 5.11228686,1.37294686 5.4604473,1.37294686 C5.80299225,1.37294686 6.1511527,1.53545894 6.47123568,1.86048309 C6.84747358,2.20792271 7.20124952,2.57217391 7.5831029,2.95884058 C7.7740296,3.15497585 7.97057178,3.35111111 8.16711397,3.55285024 L9.84053029,5.22280193 C10.1886907,5.57024155 10.3683864,5.92328502 10.3683864,6.27072464 C10.3683864,6.61816425 10.1886907,6.97120773 9.84053029,7.31864734 C9.66645007,7.49236715 9.49236985,7.67169082 9.31828963,7.84541063 C8.79604896,8.37217391 8.30750124,8.87091787 7.76841411,9.34724638 C7.75718313,9.35845411 7.75156763,9.36405797 7.74033665,9.3752657 C7.2742509,9.84038647 7.34725228,10.2830918 7.4595621,10.6193237 C7.46517759,10.6361353 7.47079308,10.647343 7.47640858,10.6641546 C7.90880138,11.7008696 8.50965892,12.6871498 9.44744592,13.8639614 C11.1320932,15.9373913 12.9065884,17.5457005 14.8607793,18.7841546 C15.1022454,18.9410628 15.360558,19.0643478 15.6020241,19.1876329 C15.8266437,19.2997101 16.0344169,19.4061836 16.2197281,19.5238647 C16.24219,19.5350725 16.2590365,19.5462802 16.2814985,19.5574879 C16.4668097,19.6527536 16.6465054,19.6975845 16.8262011,19.6975845 C17.2754404,19.6975845 17.5674459,19.4117874 17.6629093,19.3165217 L19.7631029,17.2206763 C20.0888014,16.8956522 20.4425773,16.7219324 20.7907378,16.7219324 C21.2175151,16.7219324 21.5656755,16.985314 21.7846797,17.2206763 L25.1708207,20.5942029 C25.8446797,21.2666667 25.8390642,21.9951691 25.1539743,22.7068599 C24.9181237,22.9590338 24.671042,23.2 24.407114,23.4521739 C24.0140296,23.8332367 23.6040988,24.2255072 23.2334763,24.6682126 C22.5876949,25.3630918 21.8183726,25.6881159 20.8244307,25.6881159 C20.7289674,25.6881159 20.6278885,25.6825121 20.5324252,25.6769082 C18.6905441,25.5592271 16.9778194,24.8419324 15.6918719,24.2311111 C12.1990365,22.5443478 9.13297842,20.1514976 6.589161,17.1142029 C4.49458285,14.5980676 3.08509461,12.2556522 2.1529231,9.74512077 C1.57452752,8.20405797 1.35552337,6.96560386 1.44537123,5.83922705 Z" id="Shape"></path>
                    </g>
                </g>
            </g>
        </g>
    </g>
</svg>