<?xml version="1.0" encoding="UTF-8"?>
<svg width="201px" height="57px" viewBox="0 0 201 57" version="1.1" xmlns="http://www.w3.org/2000/svg" xmlns:xlink="http://www.w3.org/1999/xlink">
    <!-- Generator: Sketch 40.3 (33839) - http://www.bohemiancoding.com/sketch -->
    <title>riga_logo</title>
    <desc>Created with Sketch.</desc>
    <defs></defs>
    <g id="Page-1" stroke="none" stroke-width="1" fill="none" fill-rule="evenodd">
        <g id="riga_logo" fill="#000000">
            <g id="Layer_1">
                <g id="Group">
                    <path d="M39.4,22 C39.4,11.4 31.1,3.5 20.8,3.4 L8.1,3.4 L0.3,3.4 L0.3,55.9 L8.1,55.9 L8.1,9.9 L20.7,9.9 C26.7,9.9 31.6,15 31.6,22.1 C31.6,29.2 26.7,34.3 20.7,34.3 L16.1,34.3 L30.7,56 L39.4,56 L28.1,39.3 C34.8,36.4 39.4,30 39.4,22 L39.4,22 Z" id="Shape"></path>
                    <path d="M129.7,55.5 L138.1,55.5 L143.9,40.5 L162.6,40.5 L169.5,55.5 L177.9,55.5 L152.1,0.5 L129.7,55.5 L129.7,55.5 Z M159.5,33.9 L146.4,33.9 L152.3,18.4 L159.5,33.9 L159.5,33.9 Z" id="Shape"></path>
                    <rect id="Rectangle-path" x="53.7" y="2.1" width="7.9" height="54.1"></rect>
                    <path d="M101.4,29.8 L105.5,36.1 L112.5,36.1 L112.5,48.1 C110,49.2 106.3,49.9 102.5,49.9 C90.4,49.9 82.9,41.9 82.9,29.1 C82.9,16.2 90.8,8.2 103.6,8.2 C108.6,8.2 113.4,9.3 117.9,11.6 L118.4,11.8 L118.4,4.3 L118.2,4.2 C115.6,3.1 110.1,1.3 103.2,1.3 C86.4,1.3 74.6,13 74.6,29.7 C74.6,45.9 85.6,56.7 101.9,56.7 C109.3,56.7 116.2,54.5 120.1,52.5 L120.3,52.4 L120.3,36 L120.3,29.7 L112.5,29.7 L101.4,29.7 L101.4,29.8 Z" id="Shape"></path>
                </g>
            </g>
        </g>
    </g>
</svg>