<?xml version="1.0" encoding="UTF-8" standalone="no"?>
<svg width="22px" height="19px" viewBox="0 0 22 19" version="1.1" xmlns="http://www.w3.org/2000/svg" xmlns:xlink="http://www.w3.org/1999/xlink">
    <!-- Generator: Sketch 39.1 (31720) - http://www.bohemiancoding.com/sketch -->
    <title>noun_599401_cc</title>
    <desc>Created with Sketch.</desc>
    <defs></defs>
    <g id="Page-1" stroke="none" stroke-width="1" fill="none" fill-rule="evenodd">
        <g id="-web/search/open/filter-copy" transform="translate(-715.000000, -264.000000)" fill="#FFFFFF">
            <g id="noun_599401_cc" transform="translate(715.000000, 264.000000)">
                <g id="Artboard-11-Copy-5">
                    <g id="Group">
                        <g id="Shape">
                            <path d="M2.17283951,1.08571429 C1.57367901,1.08571429 1.08641975,1.57265714 1.08641975,2.17142857 C1.08641975,2.7702 1.57367901,3.25714286 2.17283951,3.25714286 C2.772,3.25714286 3.25925926,2.7702 3.25925926,2.17142857 C3.25925926,1.57265714 2.772,1.08571429 2.17283951,1.08571429 M2.17283951,4.34285714 C0.974790123,4.34285714 0,3.3687 0,2.17142857 C0,0.974157143 0.974790123,0 2.17283951,0 C3.37088889,0 4.34567901,0.974157143 4.34567901,2.17142857 C4.34567901,3.3687 3.37088889,4.34285714 2.17283951,4.34285714"></path>
                            <path d="M19.5555556,15.7428571 C18.9563951,15.7428571 18.4691358,16.2298 18.4691358,16.8285714 C18.4691358,17.4273429 18.9563951,17.9142857 19.5555556,17.9142857 C20.154716,17.9142857 20.6419753,17.4273429 20.6419753,16.8285714 C20.6419753,16.2298 20.154716,15.7428571 19.5555556,15.7428571 M19.5555556,19 C18.3575062,19 17.382716,18.0258429 17.382716,16.8285714 C17.382716,15.6313 18.3575062,14.6571429 19.5555556,14.6571429 C20.7536049,14.6571429 21.7283951,15.6313 21.7283951,16.8285714 C21.7283951,18.0258429 20.7536049,19 19.5555556,19"></path>
                            <path d="M18.1983457,1.62857143 L5.70397531,1.62857143 C5.40412346,1.62857143 5.16076543,1.87177143 5.16076543,2.17142857 C5.16076543,2.47108571 5.40412346,2.71428571 5.70397531,2.71428571 L18.1983457,2.71428571 C19.6957037,2.71428571 20.9135802,3.93191429 20.9135802,5.42857143 L20.9135802,6.24285714 C20.9135802,7.73951429 19.6951605,8.95714286 18.1972593,8.95714286 L13.308642,8.95714286 L9.23511111,8.95714286 L4.07298765,8.95714286 C1.97701235,8.95714286 0.271604938,10.6617143 0.271604938,12.7571429 L0.271604938,13.5714286 C0.271604938,15.6668571 1.97646914,17.3714286 4.07217284,17.3714286 L16.0265926,17.3714286 C16.3264444,17.3714286 16.5698025,17.1282286 16.5698025,16.8285714 C16.5698025,16.5289143 16.3264444,16.2857143 16.0265926,16.2857143 L4.07217284,16.2857143 C2.57562963,16.2857143 1.35802469,15.0680857 1.35802469,13.5714286 L1.35802469,12.7571429 C1.35802469,11.2604857 2.57590123,10.0428571 4.07298765,10.0428571 L9.23511111,10.0428571 L13.308642,10.0428571 L18.1972593,10.0428571 C20.294321,10.0428571 22,8.33828571 22,6.24285714 L22,5.42857143 C22,3.33314286 20.2948642,1.62857143 18.1983457,1.62857143"></path>
                        </g>
                    </g>
                </g>
            </g>
        </g>
    </g>
</svg>