<svg width="32" height="32" viewBox="0 0 32 32" fill="none" xmlns="http://www.w3.org/2000/svg">
<path d="M26.2721 20.8639C26.2721 18.0229 25.1659 15.352 23.157 13.343C20.0859 10.2719 19.0594 5.81228 20.478 1.70455C20.5738 1.42712 20.5296 1.12037 20.3593 0.88102C20.1888 0.641907 19.9132 0.5 19.6195 0.5H19.5272C15.8081 0.5 12.7824 3.52569 12.7824 7.24483V13.0812C12.7824 13.6531 12.3169 14.1186 11.7451 14.1186C11.1729 14.1186 10.7075 13.6531 10.7075 13.0812C10.7075 12.7371 10.5131 12.4225 10.2054 12.2688C9.89744 12.1151 9.52919 12.1484 9.25389 12.3551C7.9623 13.3253 6.89209 14.5965 6.15891 16.0315C5.39001 17.5368 5 19.1626 5 20.8641C5 26.6782 9.68954 31.4167 15.4848 31.4981C15.5333 31.4993 15.582 31.5 15.6309 31.5C15.6326 31.5 15.6343 31.5 15.6361 31.5C15.6364 31.5 15.6361 31.5 15.6361 31.5C15.687 31.5 15.7376 31.4993 15.7882 31.4981C21.583 31.4163 26.2721 26.6778 26.2721 20.8639ZM18.5554 28.4745C17.7759 29.2541 16.7392 29.6836 15.6364 29.6836H15.6361C14.5333 29.6836 13.4964 29.2541 12.7167 28.4743C11.9369 27.6945 11.5074 26.6577 11.5074 25.5551C11.5074 24.4522 11.9369 23.4156 12.7167 22.6358L15.6361 19.7163L18.5554 22.6358C20.1651 24.2455 20.1651 26.8646 18.5554 28.4745ZM21.1686 27.7269C22.0026 25.5934 21.5605 23.0719 19.8399 21.3513L16.2783 17.7897C16.108 17.6194 15.8772 17.5238 15.6361 17.5238C15.3954 17.5238 15.1643 17.6194 14.9938 17.7897L11.4324 21.3513C10.3094 22.4743 9.69096 23.9671 9.69096 25.5551C9.69096 26.3083 9.83051 27.0403 10.0968 27.7215C8.09735 26.1033 6.81641 23.6306 6.81641 20.8639C6.81641 18.5002 7.73265 16.2992 9.36694 14.6573C9.87875 15.4267 10.7536 15.935 11.7448 15.935C13.3183 15.935 14.5986 14.6547 14.5986 13.0812V7.24483C14.5986 4.92323 16.2121 2.97131 18.3768 2.45193C17.9428 4.34023 17.9322 6.30753 18.353 8.21452C18.8889 10.6433 20.106 12.8608 21.8725 14.6275C23.5382 16.2933 24.4557 18.5082 24.4557 20.8641C24.4557 23.6336 23.1719 26.109 21.1686 27.7269Z" fill="#F44336" stroke="#F44336" stroke-width="0.6"/>
</svg>
