<svg width="20" height="20" viewBox="0 0 20 20" fill="none" xmlns="http://www.w3.org/2000/svg">
<path d="M20 3.125V9.76562C20 11.4888 18.5982 12.8906 16.875 12.8906H16.7188C16.2872 12.8906 15.9375 12.5409 15.9375 12.1094C15.9375 11.6779 16.2872 11.3281 16.7188 11.3281H16.875C17.7365 11.3281 18.4375 10.6271 18.4375 9.76562V6.36719H16.3672V6.75781C16.3672 7.18933 16.0175 7.53906 15.5859 7.53906C15.1544 7.53906 14.8047 7.18933 14.8047 6.75781V4.41406C14.8047 3.98254 15.1544 3.63281 15.5859 3.63281C16.0175 3.63281 16.3672 3.98254 16.3672 4.41406V4.80469H18.4375V3.125C18.4375 2.26349 17.7365 1.5625 16.875 1.5625H11.3281V4.80469H11.7188C12.1503 4.80469 12.5 5.15442 12.5 5.58594C12.5 6.01746 12.1503 6.36719 11.7188 6.36719H9.375C8.94348 6.36719 8.59375 6.01746 8.59375 5.58594C8.59375 5.15442 8.94348 4.80469 9.375 4.80469H9.76562V1.5625H7.61719C7.18567 1.5625 6.83594 1.21277 6.83594 0.78125C6.83594 0.349731 7.18567 0 7.61719 0H16.875C18.5982 0 20 1.40182 20 3.125ZM12.7734 11.3281H11.3281V9.84375C11.3281 9.41223 10.9784 9.0625 10.5469 9.0625C10.1154 9.0625 9.76562 9.41223 9.76562 9.84375V17.6562C9.76562 18.087 9.41513 18.4375 8.98438 18.4375H7.69531C7.26379 18.4375 6.91406 18.7872 6.91406 19.2188C6.91406 19.6503 7.26379 20 7.69531 20H8.98438C10.2768 20 11.3281 18.9487 11.3281 17.6562V12.8906H12.7734C13.205 12.8906 13.5547 12.5409 13.5547 12.1094C13.5547 11.6779 13.205 11.3281 12.7734 11.3281ZM7.07031 9.45312C7.07031 9.02161 6.72058 8.67188 6.28906 8.67188C5.85754 8.67188 5.50781 9.02161 5.50781 9.45312V9.88281H1.5625V3.125C1.5625 2.26349 2.26349 1.5625 3.125 1.5625H3.71094C4.14246 1.5625 4.49219 1.21277 4.49219 0.78125C4.49219 0.349731 4.14246 0 3.71094 0H3.125C1.40182 0 0 1.40182 0 3.125V16.875C0 18.5982 1.40182 20 3.125 20H3.75C4.18152 20 4.53125 19.6503 4.53125 19.2188C4.53125 18.7872 4.18152 18.4375 3.75 18.4375H3.125C2.26349 18.4375 1.5625 17.7365 1.5625 16.875V11.4453H5.50781V11.7969C5.50781 12.2284 5.85754 12.5781 6.28906 12.5781C6.72058 12.5781 7.07031 12.2284 7.07031 11.7969V9.45312Z" fill="white"/>
</svg>
