<svg width="18" height="13" viewBox="0 0 18 13" fill="none" xmlns="http://www.w3.org/2000/svg">
<path d="M15.7102 12.3747H2.28982C1.57887 12.3747 1 11.7963 1 11.0849V2.28982C1 1.57836 1.57887 1 2.28982 1H15.7102C16.4211 1 17 1.57836 17 2.28982V11.0849C17 11.7963 16.4211 12.3747 15.7102 12.3747ZM2.28982 1.51593C1.86315 1.51593 1.51593 1.86315 1.51593 2.28982V11.0849C1.51593 11.5115 1.86315 11.8588 2.28982 11.8588H15.7102C16.1369 11.8588 16.4841 11.5115 16.4841 11.0849V2.28982C16.4841 1.86315 16.1369 1.51593 15.7102 1.51593H2.28982Z" fill="#F44336" stroke="#F44336" stroke-width="0.8"/>
<path d="M9.00009 7.98362C8.657 7.98362 8.3139 7.8696 8.05284 7.64207L1.45978 1.89617C1.35247 1.80227 1.34112 1.63975 1.43502 1.53244C1.52892 1.42409 1.69195 1.41377 1.79926 1.50715L8.39181 7.25306C8.722 7.54043 9.27921 7.53992 9.60837 7.25306L16.1994 1.50767C16.3062 1.41326 16.4687 1.42409 16.5636 1.53295C16.6575 1.64026 16.6462 1.80278 16.5388 1.89668L9.94733 7.64155C9.68627 7.8696 9.34318 7.98362 9.00009 7.98362Z" fill="#F44336" stroke="#F44336" stroke-width="0.8"/>
</svg>
