<svg width="20" height="20" viewBox="0 0 20 20" fill="none" xmlns="http://www.w3.org/2000/svg">
<path d="M18.6376 13.3873C17.6217 12.5494 16.6898 12.142 15.7886 12.142C14.4849 12.142 13.5462 12.9932 12.6963 13.8651C12.5986 13.9654 12.4803 14.0122 12.324 14.0122C11.6079 14.0123 10.348 13.0919 8.57945 11.2766C6.49884 9.1412 5.71219 7.78301 6.24115 7.23994C7.67509 5.7688 8.12275 4.29403 5.92729 1.49185C5.14133 0.487925 4.37236 0 3.57646 0C2.50309 0 1.68713 0.880551 0.967241 1.65752C0.84278 1.79182 0.725211 1.9187 0.609939 2.037C-0.203719 2.87197 -0.203301 4.69322 0.611122 6.9091C1.50469 9.34037 3.269 11.9852 5.5791 14.3564C7.36561 16.1897 9.30944 17.6713 11.2006 18.6661C12.8516 19.5346 14.4531 20 15.71 20C15.7102 20 15.7103 20 15.7105 20C16.4971 20 17.136 19.8239 17.558 19.4658C18.4152 18.7385 20.0106 17.3913 20 15.7911C19.9941 14.9328 19.5359 14.1285 18.6376 13.3873Z" />
</svg>
