<svg width="16" height="16" viewBox="0 0 16 16" fill="none" xmlns="http://www.w3.org/2000/svg">
<path d="M12.252 15C11.6695 15 10.966 14.854 10.1924 14.5621C8.49621 13.9226 6.65079 12.6587 4.99609 11.004C3.34091 9.34885 2.07704 7.50297 1.43711 5.80682C0.855556 4.26466 0.854144 2.99891 1.43381 2.41971C1.51716 2.33637 1.60192 2.2469 1.6895 2.1546C2.21831 1.59848 2.81587 0.972669 3.60791 1.00092C4.15367 1.02353 4.68248 1.36257 5.224 2.03641C6.82408 4.02639 6.10268 4.73555 5.26779 5.55772L5.1204 5.7037C4.98385 5.84026 4.7258 6.47266 7.12639 8.87325C7.90995 9.65682 8.57815 10.2304 9.11213 10.5774C9.44835 10.7959 10.0497 11.1265 10.2964 10.8797L10.4448 10.73C11.266 9.89697 11.9751 9.17792 13.9637 10.7766C14.6376 11.3181 14.9761 11.8465 14.9987 12.3932C15.0312 13.1847 14.4007 13.7837 13.8441 14.312C13.7523 14.3996 13.6628 14.4844 13.5795 14.5673C13.2918 14.8554 12.8317 15 12.252 15ZM3.5514 1.47087C2.98869 1.47087 2.4806 2.0058 2.0309 2.47905C1.94049 2.57416 1.8529 2.66646 1.76673 2.75263C1.33492 3.18397 1.37871 4.3174 1.87786 5.64107C2.49472 7.276 3.72045 9.06255 5.32948 10.6716C6.93804 12.2797 8.72365 13.5054 10.359 14.1218C11.6827 14.6219 12.8162 14.6643 13.247 14.2334C13.3332 14.1472 13.4255 14.0596 13.5206 13.9697C14.0042 13.5101 14.5528 12.9893 14.5288 12.4115C14.5123 12.0146 14.2232 11.5875 13.6694 11.1425C12.0123 9.80985 11.549 10.2803 10.7805 11.0596L10.6298 11.2117C10.2625 11.5795 9.6659 11.498 8.85597 10.9715C8.2942 10.6061 7.60011 10.0119 6.79394 9.20523C4.80161 7.21337 4.1645 5.99424 4.78796 5.36937L4.93817 5.22104C5.71938 4.45254 6.19074 3.98872 4.85765 2.33072C4.41171 1.77742 3.98509 1.48829 3.58813 1.47134C3.57589 1.47087 3.56364 1.47087 3.5514 1.47087Z" fill="#F44336" stroke="#F44336" stroke-width="0.8"/>
</svg>
