<svg width="32" height="32" viewBox="0 0 32 32" fill="none" xmlns="http://www.w3.org/2000/svg">
<g clip-path="url(#clip0)">
<path d="M30.8933 24.5909C32.3689 23.1153 32.3689 20.719 30.8933 19.2499C29.4177 17.7743 27.0214 17.7743 25.5523 19.2499L23.5478 21.2544C22.9929 21.8094 22.0853 21.8094 21.5303 21.2544L17.9523 17.6699C17.7303 17.4479 17.4299 17.3238 17.123 17.3238C16.8096 17.3238 16.5093 17.4479 16.2938 17.6699C15.3144 18.6492 14.0151 19.1912 12.6244 19.1912C11.2336 19.1912 9.9343 18.6492 8.95491 17.6699L5.71638 14.4313L13.0488 7.09895L16.2873 10.3375C17.1883 11.2385 17.7237 12.4334 17.7956 13.7001C17.8347 14.3269 18.3505 14.81 18.9708 14.81C18.9904 14.81 19.0165 14.81 19.0426 14.81C19.689 14.7709 20.1853 14.2159 20.1461 13.5695C20.0416 11.7217 19.2581 9.98489 17.9523 8.67904L14.7137 5.44052L15.0728 5.08141C15.5299 4.62436 15.5299 3.88002 15.0728 3.41644C14.6158 2.95939 13.8715 2.95939 13.4079 3.41644L11.103 5.72127L7.10712 1.72536C6.65007 1.26831 5.90573 1.26831 5.44215 1.72536C4.98511 2.18241 4.98511 2.92674 5.44215 3.39032L9.43807 7.38624L6.00367 10.8206L2.00775 6.82472C1.5507 6.36767 0.806366 6.36767 0.342787 6.82472C-0.114262 7.28177 -0.114262 8.02611 0.342787 8.48969L4.34524 12.4856L2.0404 14.7904C1.58335 15.2475 1.58335 15.9918 2.0404 16.4554C2.26892 16.6839 2.56927 16.8015 2.86962 16.8015C3.16997 16.8015 3.47031 16.6839 3.69884 16.4554L4.05795 16.0963L7.29647 19.3348C8.71985 20.7582 10.6133 21.5417 12.6244 21.5417C14.2371 21.5417 15.778 21.039 17.0577 20.0988L19.8719 22.9129C20.6097 23.6507 21.576 24.0163 22.5423 24.0163C23.5087 24.0163 24.475 23.6507 25.2128 22.9129L27.2173 20.9084C27.7723 20.3534 28.6799 20.3534 29.2348 20.9084C29.7898 21.4634 29.7898 22.3709 29.2348 22.9259L27.2304 24.9304C26.5187 25.6421 26.1269 26.5889 26.1269 27.6009C26.1269 28.6129 26.5187 29.5597 27.2304 30.2714C27.4589 30.4999 27.7592 30.6174 28.0596 30.6174C28.3599 30.6174 28.6603 30.4999 28.8888 30.2714C29.3458 29.8143 29.3458 29.07 28.8888 28.6064C28.6211 28.3387 28.4709 27.9796 28.4709 27.6009C28.4709 27.2222 28.6211 26.8631 28.8888 26.5954L30.8933 24.5909Z" fill="#F44336" stroke="#F44336" stroke-width="0.1"/>
</g>
<defs>
<clipPath id="clip0">
<rect width="32" height="32" fill="white"/>
</clipPath>
</defs>
</svg>
