<svg width="18" height="18" viewBox="0 0 18 18" fill="none" xmlns="http://www.w3.org/2000/svg">
<path d="M16.5407 2.36337C16.227 2.29358 15.9183 2.50077 15.8511 2.82587L15.4291 4.8675C14.0853 2.49119 11.6189 1 8.91557 1C4.75246 1 1.36554 4.51081 1.36554 8.82631C1.36554 9.15877 1.62554 9.42834 1.94631 9.42834C2.26704 9.42834 2.52708 9.15877 2.52708 8.82631C2.52708 5.17477 5.39293 2.20405 8.91557 2.20405C11.2121 2.20405 13.3069 3.47567 14.441 5.50039L12.5048 5.07026C12.1911 5.00057 11.8824 5.20771 11.8152 5.53281C11.7481 5.8579 11.9478 6.17798 12.2615 6.24763L15.5852 6.98595C15.6416 6.99852 15.6989 7.00213 15.7555 6.99722C15.8497 6.98898 15.9415 6.95695 16.0223 6.90272C16.1517 6.81599 16.2424 6.67954 16.2747 6.52345L16.987 3.07814C17.0541 2.75309 16.8543 2.43311 16.5407 2.36337Z" fill="white" stroke="white" stroke-width="0.5"/>
<path d="M15.9563 8.33339C15.6358 8.34437 15.3844 8.62265 15.395 8.95492C15.4513 10.7228 14.8402 12.4076 13.674 13.6991C12.5078 14.9904 10.9264 15.7338 9.22091 15.7922C9.14982 15.7946 9.07911 15.7958 9.0083 15.7958C6.78297 15.7957 4.73299 14.5977 3.57526 12.6566L5.59388 13.2177C5.90369 13.3037 6.22218 13.1133 6.30525 12.7921C6.38833 12.4709 6.20452 12.1408 5.89472 12.0546L2.61155 11.1421C2.46278 11.1009 2.30421 11.1224 2.17086 11.2022C2.03743 11.282 1.94009 11.4135 1.90018 11.5677L1.01996 14.9711C0.936888 15.2922 1.12069 15.6224 1.4305 15.7085C1.48091 15.7225 1.53146 15.7293 1.58126 15.7293C1.83764 15.7293 2.07232 15.5518 2.14187 15.283L2.63664 13.3701C4.01302 15.6167 6.40882 16.9999 9.00802 16.9998C9.09151 16.9998 9.17547 16.9984 9.25929 16.9955C11.2748 16.9265 13.1439 16.048 14.522 14.5219C15.9002 12.9957 16.6225 11.0045 16.5559 8.91519C16.5454 8.58297 16.2768 8.32159 15.9563 8.33339Z" fill="white" stroke="white" stroke-width="0.5"/>
</svg>
