<svg width="28" height="28" viewBox="0 0 28 28" xmlns="http://www.w3.org/2000/svg">
<mask id="mask0" mask-type="alpha" maskUnits="userSpaceOnUse" x="3" y="4" width="21" height="22">
<path fill-rule="evenodd" clip-rule="evenodd" d="M17.1617 17.5H18.0833L23.905 23.3333L22.1667 25.0716L16.3333 19.25V18.3283L16.0183 18.0016C14.6883 19.145 12.9617 19.8333 11.0833 19.8333C6.895 19.8333 3.5 16.4383 3.5 12.25C3.5 8.06163 6.895 4.66663 11.0833 4.66663C15.2717 4.66663 18.6667 8.06163 18.6667 12.25C18.6667 14.1283 17.9783 15.855 16.835 17.185L17.1617 17.5ZM5.83333 12.25C5.83333 15.155 8.17833 17.5 11.0833 17.5C13.9883 17.5 16.3333 15.155 16.3333 12.25C16.3333 9.34496 13.9883 6.99996 11.0833 6.99996C8.17833 6.99996 5.83333 9.34496 5.83333 12.25Z"/>
</mask>
<g mask="url(#mask0)">
<rect y="1.16663" width="28" height="28" />
</g>
</svg>
