<svg width="14" height="14" viewBox="0 0 14 14" fill="none" xmlns="http://www.w3.org/2000/svg">
<path d="M13.1923 2.9614H0.80768C0.376941 2.9614 0 2.58451 0 2.15372C0 1.72293 0.376941 1.34604 0.80768 1.34604H13.1923C13.6231 1.34604 13.9999 1.72298 13.9999 2.15372C13.9999 2.58446 13.6231 2.9614 13.1923 2.9614Z"/>
<path d="M13.1923 7.80773H0.80768C0.376941 7.80773 0 7.43079 0 7C0 6.56921 0.376941 6.19232 0.80768 6.19232H13.1923C13.6231 6.19232 13.9999 6.56926 13.9999 7C14 7.43079 13.6231 7.80773 13.1923 7.80773Z"/>
<path d="M13.1923 12.6538H0.80768C0.376941 12.6538 0 12.2769 0 11.8461C0 11.4153 0.376941 11.0385 0.80768 11.0385H13.1923C13.6231 11.0385 13.9999 11.4154 13.9999 11.8461C13.9999 12.2769 13.6231 12.6538 13.1923 12.6538Z"/>
<path d="M4.09235 3.98454C5.10345 3.98454 5.9231 3.16488 5.9231 2.15378C5.9231 1.14268 5.10345 0.323029 4.09235 0.323029C3.08125 0.323029 2.2616 1.14268 2.2616 2.15378C2.2616 3.16488 3.08125 3.98454 4.09235 3.98454Z"/>
<path d="M9.90779 8.8306C10.9189 8.8306 11.7385 8.01094 11.7385 6.99985C11.7385 5.98875 10.9189 5.1691 9.90779 5.1691C8.89669 5.1691 8.07703 5.98875 8.07703 6.99985C8.07703 8.01094 8.89669 8.8306 9.90779 8.8306Z"/>
<path d="M4.09235 13.6769C5.10345 13.6769 5.9231 12.8573 5.9231 11.8462C5.9231 10.8351 5.10345 10.0154 4.09235 10.0154C3.08125 10.0154 2.2616 10.8351 2.2616 11.8462C2.2616 12.8573 3.08125 13.6769 4.09235 13.6769Z"/>
</svg>
