<svg width="32" height="32" viewBox="0 0 32 32" fill="none" xmlns="http://www.w3.org/2000/svg">
<path d="M14.6586 17.8696L10.6105 14.0163L8.88623 15.8277L14.7989 21.456L23.8082 11.425L21.9476 9.75391L14.6586 17.8696Z" fill="#F44336"/>
<path d="M26.2814 4.0745C23.25 3.53125 20.4584 1.87575 19.0641 0.937312C18.1531 0.324125 17.0937 0 16.0002 0C14.9068 0 13.8473 0.324125 12.9364 0.93725C11.5421 1.87569 8.75048 3.53125 5.71911 4.0745C3.92373 4.39625 2.62061 5.94963 2.62061 7.76806V15.3124C2.62061 17.8047 3.31792 20.2342 4.69304 22.5336C5.76892 24.3324 7.25954 26.0516 9.12354 27.6434C12.2577 30.32 15.3613 31.7157 15.4918 31.7738L16.0002 32L16.5085 31.7738C16.6391 31.7158 19.7426 30.32 22.8768 27.6434C24.7407 26.0516 26.2315 24.3324 27.3073 22.5336C28.6825 20.2343 29.3797 17.8047 29.3797 15.3124V7.76813C29.3799 5.94963 28.0767 4.39625 26.2814 4.0745ZM26.879 15.3125C26.879 19.0281 25.0019 22.5234 21.2998 25.7015C19.1478 27.5489 16.9629 28.753 16.0004 29.2417C13.7877 28.1174 5.12148 23.208 5.12148 15.3125V7.76813C5.12148 7.16219 5.55836 6.64406 6.16029 6.53619C9.64267 5.91213 12.7755 4.06019 14.3329 3.01194C14.8295 2.67756 15.4061 2.50081 16.0002 2.50081C16.5944 2.50081 17.171 2.67756 17.6676 3.01187C19.225 4.06019 22.3578 5.912 25.8402 6.53606C26.442 6.64394 26.879 7.16206 26.879 7.768V15.3125Z" fill="#F44336"/>
</svg>
