<svg width="32" height="32" viewBox="0 0 32 32" fill="none" xmlns="http://www.w3.org/2000/svg">
<g clip-path="url(#clip0)">
<path d="M31.8864 22.5688L31.2241 20.5817V16.7934C31.2241 13.5031 28.5473 10.8262 25.2573 10.8262H20.8315C20.2858 10.0295 19.5617 9.38719 18.7307 8.94041V5.64721H20.4533C22.0102 5.64721 23.2768 4.38061 23.2768 2.82372C23.2768 1.2666 22.0102 0 20.4533 0H11.5261C9.96922 0 8.70262 1.2666 8.70262 2.82372C8.70262 4.38061 9.96922 5.64721 11.5261 5.64721H13.0837V8.94041C12.2527 9.38719 11.5285 10.0295 10.9829 10.8264H5.4226C5.06542 10.1023 4.31982 9.60276 3.45947 9.60276H0.937498C0.419677 9.60276 0 10.0227 0 10.5403V18.0847C0 18.6025 0.419677 19.0222 0.937498 19.0222H3.45947C4.3623 19.0222 5.13915 18.4724 5.47289 17.6899H11.0715C12.1865 19.2275 13.9926 20.1628 15.9072 20.1628C17.8217 20.1628 19.6279 19.2275 20.7429 17.6899H24.3608V20.5822L23.6984 22.5688C23.476 23.2363 23.5888 23.9755 24.0002 24.5463C24.4116 25.1171 25.0771 25.458 25.7807 25.458H26.1479C25.5207 26.6154 24.819 28.1027 24.819 28.9648C24.819 30.6384 26.142 31.9999 27.7683 31.9999C29.3942 31.9999 30.7172 30.6384 30.7172 28.9648C30.7172 28.1027 30.0158 26.6154 29.3884 25.458H29.8041C30.5078 25.458 31.1733 25.1171 31.5847 24.5463C31.996 23.9755 32.1088 23.2363 31.8864 22.5688ZM27.7683 30.1249C27.176 30.1249 26.694 29.6044 26.694 28.9648C26.694 28.6469 27.1037 27.644 27.7683 26.4055C28.4328 27.6433 28.8422 28.6464 28.8422 28.9648C28.8422 29.6044 28.3603 30.1249 27.7683 30.1249ZM10.5776 2.82372C10.5776 2.30053 11.0032 1.875 11.5261 1.875H20.4533C20.9763 1.875 21.4018 2.30053 21.4018 2.82372C21.4018 3.34667 20.9763 3.77221 20.4533 3.77221H17.8005C17.7981 3.77221 17.7956 3.77172 17.7932 3.77172H14.0212C14.0188 3.77172 14.0163 3.77221 14.0139 3.77221H11.5261C11.0032 3.77221 10.5776 3.34667 10.5776 2.82372ZM14.9587 5.64721H16.8557V8.30492C16.5449 8.25462 16.228 8.2285 15.9072 8.2285C15.5864 8.2285 15.2695 8.25487 14.9587 8.30492V5.64721ZM3.45947 17.1472H1.875V11.4778H3.45947C3.63158 11.4778 3.77148 11.6174 3.77197 11.7895V16.7524V16.7541V16.8347C3.77197 17.007 3.63183 17.1472 3.45947 17.1472ZM20.238 15.8149C19.9065 15.8149 19.5998 15.99 19.4311 16.2751C18.6965 17.5166 17.3464 18.2878 15.9072 18.2878C14.468 18.2878 13.1179 17.5166 12.3833 16.2751C12.2146 15.9897 11.9079 15.8149 11.5764 15.8149H5.64696V12.7014H11.5046C11.8457 12.7014 12.1596 12.5161 12.3249 12.2177C13.0468 10.9138 14.4194 10.1035 15.9072 10.1035C17.395 10.1035 18.7675 10.9138 19.4895 12.2177C19.6545 12.5161 19.9687 12.7014 20.3098 12.7014H25.2573C27.5134 12.7014 29.3491 14.5371 29.3491 16.7934V19.8108H26.2355V17.4441C26.2355 16.5456 25.5048 15.8149 24.6066 15.8149H20.238ZM30.0637 23.4499C30.0278 23.4995 29.9467 23.5827 29.8041 23.5827H25.7807C25.6381 23.5827 25.5568 23.4995 25.5212 23.4499C25.4853 23.4003 25.4321 23.2971 25.4772 23.1618L25.9689 21.6862H29.6157L30.1076 23.1618C30.1528 23.2968 30.0993 23.4003 30.0637 23.4499Z" fill="#FF0000" stroke="#FF0000" stroke-width="0.2"/>
</g>
<defs>
<clipPath id="clip0">
<rect width="32" height="32" fill="white"/>
</clipPath>
</defs>
</svg>
