<svg width="32" height="32" viewBox="0 0 32 32" fill="none" xmlns="http://www.w3.org/2000/svg">
<g clip-path="url(#clip0)">
<path d="M18.956 3.52801C18.2171 2.44129 17.565 1.44151 16.9565 0.528669C16.8695 0.398263 16.7391 0.267857 16.6087 0.18092C16.0871 -0.16683 15.3916 0.00704506 15.0438 0.528669C14.4787 1.44151 13.8267 2.39782 13.0443 3.52801C9.61026 8.57037 4.48096 16.1774 4.48096 20.5243C4.48096 23.6975 5.78502 26.5664 7.87151 28.6529C9.95801 30.6959 12.8269 32 16.0002 32C19.1734 32 22.0423 30.6959 24.1288 28.6094C26.2153 26.5229 27.5193 23.654 27.5193 20.4808C27.5193 16.1339 22.39 8.57037 18.956 3.52801ZM22.5639 27.0446C20.8686 28.7398 18.5648 29.7396 16.0002 29.7396C13.4355 29.7396 11.1317 28.6964 9.43638 27.0446C7.74111 25.3493 6.74133 23.0454 6.74133 20.4808C6.74133 16.8294 11.6533 9.57015 14.9134 4.74513C15.3047 4.18004 15.6524 3.61494 16.0002 3.13679C16.3479 3.61494 16.6956 4.18004 17.0869 4.74513C20.347 9.61362 25.259 16.8294 25.259 20.4808C25.259 23.0454 24.2157 25.3493 22.5639 27.0446Z" fill="#F44336"/>
<path d="M22.7374 19.6983C22.1289 19.6548 21.6072 20.133 21.5638 20.7416C21.5203 21.6979 21.216 22.6107 20.7379 23.3931C20.2597 24.1756 19.5642 24.8711 18.7383 25.3058C18.2167 25.61 17.9993 26.3055 18.3036 26.8272C18.6514 27.4357 19.3469 27.6096 19.8685 27.3053C21.0422 26.6533 21.9985 25.697 22.6505 24.6103C23.346 23.5235 23.7372 22.2195 23.7807 20.872C23.8242 20.2634 23.346 19.7418 22.7374 19.6983Z" fill="#F44336"/>
</g>
<defs>
<clipPath id="clip0">
<rect width="32" height="32" fill="white"/>
</clipPath>
</defs>
</svg>
