<svg width="38" height="33" viewBox="0 0 38 33" fill="none" xmlns="http://www.w3.org/2000/svg">
<path d="M36.9402 9.18217L19.9587 0.225914C19.3913 -0.0753048 18.4629 -0.0753048 17.894 0.225914L1.11036 9.03729C0.542911 9.33564 0.541468 9.8262 1.10747 10.1274L5.34669 12.3837C5.91269 12.6849 6.84399 12.6921 7.41433 12.398L18.9177 6.48554L31.6325 12.9488V27.2008C31.6325 27.2051 6.14805 27.208 6.14805 27.208V21.0617C6.14805 20.4234 5.686 19.656 5.12289 19.3519L1.02228 17.2649C0.459167 16.9637 -0.00287429 17.2362 1.34632e-05 17.8759V31.8238C1.34632e-05 32.4635 0.581896 32.9857 1.22442 32.9857L36.8333 33C37.4759 33 38.0029 32.4779 38 31.841L37.974 10.8848C37.9726 10.2479 37.5076 9.48052 36.9402 9.18217Z" fill="#FF4C4E"/>
</svg>
